<svg width="69" height="63" viewBox="0 0 69 63" fill="none" xmlns="http://www.w3.org/2000/svg">
<rect x="28.0273" y="11" width="40" height="52" rx="6" fill="#E6F1D2"/>
<path d="M0 20.4043C0.687114 19.7769 1.35431 19.1297 2.06134 18.5222C2.74846 17.9247 3.4754 17.3571 4.17248 16.7795C5.16829 15.953 6.15415 15.1265 7.14001 14.2999C8.03625 13.5431 8.93248 12.7763 9.82872 12.0096C10.3167 11.5913 10.7747 11.1432 11.2926 10.7847C11.5714 10.5955 11.6411 10.4063 11.6411 10.1075C11.6311 7.05039 11.6311 4.00319 11.6411 0.946027C11.6411 0.248954 11.8801 0 12.5672 0C13.7423 0 14.9273 0 16.1024 0C16.7994 0 17.1081 0.308703 17.1081 1.01573C17.1081 2.60904 17.1081 4.20235 17.1081 5.87532C17.5961 5.477 18.0442 5.1185 18.4824 4.76001C19.4483 3.9534 20.4143 3.14678 21.3802 2.34017C21.8582 1.94184 22.3063 1.50368 22.8042 1.14519C23.7702 0.448118 24.8357 0.209122 26.0506 0.368452C27.3153 0.527783 28.2115 1.2149 29.1177 1.99164C30.243 2.95758 31.4081 3.88369 32.5433 4.83967C33.4794 5.62637 34.4055 6.43298 35.3515 7.22964C36.2976 8.02629 37.2635 8.81299 38.2195 9.60964C39.1257 10.3665 40.0119 11.1332 40.9181 11.8901C42.1032 12.8859 43.2981 13.8817 44.4832 14.8775C45.4491 15.6941 46.3951 16.5206 47.3611 17.3372C48.4366 18.2434 49.512 19.1496 50.5776 20.0657C50.7269 20.1952 50.8464 20.3645 50.9859 20.5138C50.9859 20.6433 50.9859 20.7827 50.9859 20.9122C50.7568 21.181 50.5178 21.4499 50.2888 21.7188C49.8208 22.2665 49.3726 22.8341 48.8847 23.3619C48.5959 23.6805 48.2274 23.7104 47.8789 23.4216C47.1619 22.8241 46.4648 22.2067 45.7479 21.5993C45.0807 21.0317 44.4035 20.484 43.7363 19.9263C43.7363 27.8032 43.7363 35.6403 43.7363 43.5073C45.5288 43.5073 47.2715 43.5073 49.0141 43.5073C49.8606 43.5073 50.0896 43.7463 50.0896 44.5827C50.0896 45.9968 50.0697 47.4009 50.0996 48.815C50.1195 49.6017 49.8407 50 48.9046 50C33.1707 49.9801 17.4368 49.99 1.71281 49.99C1.10536 49.99 0.886278 49.7909 0.886278 49.1635C0.876319 47.5702 0.876319 45.9769 0.886278 44.3836C0.886278 43.7064 1.0954 43.5073 1.77256 43.5073C3.43557 43.5073 5.08863 43.5073 6.75164 43.5073C6.91097 43.5073 7.0703 43.4973 7.21968 43.4874C7.21968 35.6503 7.21968 27.8431 7.21968 19.9263C6.54252 20.4939 5.94503 21.0018 5.34754 21.4997C4.5708 22.147 3.79406 22.8042 3.00737 23.4316C2.66879 23.7104 2.30034 23.6706 2.00159 23.3519C1.77256 23.103 1.59331 22.8042 1.36427 22.5453C0.916152 22.0175 0.458076 21.5097 0 21.0018C0 20.8026 0 20.6035 0 20.4043ZM42.2525 43.4674C42.2525 43.2683 42.2525 43.089 42.2525 42.9098C42.2426 34.9731 42.2326 27.0464 42.2426 19.1097C42.2426 18.7313 42.1032 18.4923 41.8343 18.2733C40.6791 17.3173 39.514 16.3613 38.3589 15.3953C36.9946 14.2501 35.6503 13.0751 34.286 11.9299C32.7226 10.6154 31.1492 9.32085 29.5758 8.01633C28.3111 6.96076 27.0564 5.88528 25.7817 4.83967C25.6622 4.74009 25.3336 4.73013 25.2141 4.81976C24.6266 5.25792 24.0689 5.73591 23.5013 6.20394C22.5851 6.97072 21.6789 7.75742 20.7728 8.5242C19.7969 9.34077 18.811 10.1573 17.8351 10.9739C16.9189 11.7407 16.0227 12.5274 15.1066 13.2942C13.9713 14.2501 12.8162 15.1862 11.6809 16.1422C10.8843 16.7994 10.0777 17.4467 9.32085 18.1338C9.05198 18.3828 8.6437 18.5222 8.6437 19.0599C8.67357 27.0464 8.67357 35.0229 8.67357 43.0094C8.67357 43.1687 8.67357 43.3181 8.67357 43.4774C19.9164 43.4674 31.0595 43.4674 42.2525 43.4674ZM2.35013 48.4664C17.8052 48.4664 33.2205 48.4664 48.6357 48.4664C48.6357 47.3013 48.6357 46.1661 48.6357 45.011C33.2006 45.011 17.7853 45.011 2.35013 45.011C2.35013 46.1661 2.35013 47.3013 2.35013 48.4664ZM2.62896 21.8184C3.60486 21.0117 4.56084 20.245 5.49691 19.4483C6.85122 18.3031 8.17566 17.148 9.52997 16.0028C11.2826 14.529 13.0452 13.085 14.8078 11.6212C16.2418 10.4262 17.6658 9.23123 19.0898 8.03625C20.7528 6.6421 22.4159 5.238 24.0789 3.84386C24.995 3.07708 25.7319 3.01733 26.658 3.72436C27.3949 4.29197 28.0821 4.9293 28.7891 5.53675C29.6953 6.31348 30.6114 7.09022 31.5276 7.857C32.4637 8.6437 33.4196 9.42043 34.3557 10.2071C35.2918 10.9938 36.2179 11.8104 37.154 12.5971C38.1299 13.4137 39.1157 14.2203 40.0916 15.0468C40.9779 15.7937 41.8642 16.5505 42.7504 17.2973C43.9156 18.2733 45.0807 19.2392 46.2557 20.2051C46.903 20.7429 47.5503 21.2906 48.2374 21.8582C48.5561 21.4798 48.8449 21.1412 49.1536 20.7728C48.6059 20.3147 48.1279 19.8964 47.6399 19.4881C46.6939 18.6815 45.7479 17.865 44.8018 17.0584C43.6268 16.0625 42.4417 15.0866 41.2667 14.1008C40.2908 13.2742 39.3348 12.4278 38.3589 11.6013C37.1938 10.6254 36.0187 9.65943 34.8536 8.68353C33.8678 7.84704 32.8919 6.99064 31.906 6.15415C30.472 4.93926 29.0181 3.73432 27.5941 2.51942C26.4788 1.57339 24.4573 1.49373 23.3718 2.56921C22.5453 3.38578 21.6092 4.08285 20.723 4.82972C19.767 5.62637 18.811 6.41307 17.855 7.20972C16.9389 7.9765 16.0327 8.7632 15.1265 9.52997C14.1804 10.3266 13.2145 11.1133 12.2585 11.91C11.3224 12.6967 10.3864 13.5033 9.45031 14.2999C8.29516 15.2659 7.14001 16.2219 5.98486 17.1878C5.24796 17.8052 4.5011 18.4127 3.76419 19.0301C3.07708 19.6076 2.40988 20.1852 1.72276 20.7728C2.00159 21.1014 2.29038 21.44 2.62896 21.8184ZM13.1548 9.22127C13.9414 8.56403 14.6784 7.96654 15.3754 7.33918C15.5248 7.20972 15.6144 6.95081 15.6144 6.75164C15.6343 5.30771 15.6244 3.87373 15.6244 2.42979C15.6244 2.10118 15.6244 1.78251 15.6244 1.46385C14.758 1.46385 13.9614 1.46385 13.1548 1.46385C13.1548 4.05298 13.1548 6.60227 13.1548 9.22127Z" fill="#436400"/>
<path d="M25.6523 22.3959C25.0648 21.8183 24.5569 21.3304 24.049 20.8225C23.5909 20.3645 23.6009 20.2848 23.9793 19.747C24.049 19.6574 24.0689 19.4682 24.0191 19.3686C23.2424 17.4666 21.5495 16.5803 19.528 17.2177C19.0201 17.377 18.5322 17.5662 18.0343 17.7654C17.6957 17.8948 17.4069 17.8152 17.2078 17.5363C16.9787 17.2276 17.0185 16.909 17.2775 16.6202C18.4525 15.3157 19.8068 14.2501 21.5495 13.8717C23.2623 13.4933 24.8556 13.9315 26.2996 14.9074C26.5983 15.1065 26.8971 15.3157 27.146 15.5746C27.4547 15.8932 27.7435 16.1422 28.2414 16.0526C28.3808 16.0227 28.5899 16.2119 28.7194 16.3513C29.3368 16.9787 29.9243 17.626 30.5418 18.2434C32.6031 20.3147 34.6644 22.386 36.7357 24.4373C37.0942 24.7958 37.1839 25.1344 36.8453 25.5527C36.7457 25.6722 36.6362 25.8514 36.6561 25.9709C36.7059 26.2597 36.7557 26.6879 36.9548 26.7875C37.2137 26.9169 37.6419 26.8871 37.9307 26.7576C38.568 26.4887 38.7871 26.4788 39.2651 26.9568C39.7331 27.4248 40.2111 27.8928 40.6692 28.3609C41.0078 28.7094 41.0377 29.0878 40.6991 29.4364C39.5439 30.6015 38.3988 31.7865 37.2038 32.9018C36.8054 33.2802 36.3872 33.2304 36.0287 32.8719C35.5208 32.3641 35.013 31.8661 34.5151 31.3583C34.1665 30.9998 34.1466 30.6413 34.4354 30.2131C34.7142 29.8048 34.7341 29.3069 34.4752 29.038C34.2362 28.7891 33.7085 28.7891 33.3101 29.0281C32.7923 29.3467 32.5931 29.3268 32.1649 28.8887C31.438 28.1617 30.6911 27.4447 29.9841 26.6979C29.7053 26.4091 29.5459 26.429 29.2671 26.6979C24.4971 31.4778 19.7471 36.2876 14.9273 41.0177C13.5631 42.3521 12.1191 42.3621 10.8445 41.0974C9.65946 39.9223 9.59971 38.319 10.9142 36.9946C15.5945 32.2943 20.2848 27.614 24.9751 22.9337C25.1843 22.7644 25.4133 22.605 25.6523 22.3959ZM35.4312 25.1444C35.1424 24.8158 34.8736 24.4772 34.5748 24.1784C32.4936 22.0773 30.4123 19.986 28.3111 17.9048C28.2115 17.8052 27.9825 17.7952 27.8232 17.8052C27.4846 17.8152 27.1759 17.845 26.9468 17.5164C26.2797 16.5505 25.3535 15.8833 24.2781 15.475C23.3121 15.1165 22.3063 15.0667 21.1811 15.5347C21.5794 15.6343 21.8582 15.704 22.1271 15.7837C23.9893 16.3015 24.9453 17.7156 25.5826 19.3985C25.6622 19.5977 25.6324 19.8367 25.6722 20.0657C25.6921 20.225 25.6921 20.4242 25.7817 20.5238C28.0622 22.8241 30.3525 25.1045 32.6429 27.385C32.7425 27.4846 32.9218 27.5642 33.0612 27.5543C33.3997 27.5543 33.7383 27.5045 34.0769 27.4646C35.2221 27.3352 36.4967 28.7891 36.0685 30.0836C35.9291 30.5118 35.949 30.8703 36.3772 31.1292C36.4569 31.179 36.5167 31.2687 36.5366 31.2886C37.383 30.4421 38.2195 29.6156 39.0759 28.7592C38.7772 28.4605 38.5581 28.0024 37.8212 28.3111C37.1938 28.57 36.2577 28.2215 35.6901 27.4746C35.1325 26.7377 35.1623 25.951 35.4312 25.1444ZM14.1108 35.6801C14.7381 36.3075 15.2659 36.7855 15.7439 37.3133C16.0626 37.6618 16.2518 37.6817 16.6003 37.3232C20.4342 33.4595 24.288 29.6256 28.1319 25.7717C28.2613 25.6423 28.3709 25.5128 28.5202 25.3535C27.9725 24.8158 27.4348 24.3278 26.9468 23.7901C26.6481 23.4614 26.4589 23.4415 26.1303 23.7801C22.2765 27.6638 18.3928 31.5276 14.519 35.4013C14.4195 35.5009 14.2801 35.5606 14.1108 35.6801ZM13.105 36.7755C12.6967 37.2037 12.3083 37.6021 11.92 38.0103C11.8702 38.0601 11.8204 38.1 11.7805 38.1498C11.3424 38.6676 11.3424 39.5339 11.7805 40.0816C12.149 40.5497 12.866 40.709 13.4436 40.3107C14.061 39.8825 14.5888 39.3149 15.1365 38.8369C14.4394 38.1298 13.8021 37.4826 13.105 36.7755Z" fill="#436400"/>
</svg>
