<svg width="70" height="61" viewBox="0 0 70 61" fill="none" xmlns="http://www.w3.org/2000/svg">
<rect x="29.0273" y="9" width="40" height="52" rx="6" fill="#E6F1D2"/>
<path d="M43.3263 3.90816H42.5925V2.34184C42.5925 1.05102 41.6046 0 40.3912 0C39.1779 0 38.1899 1.05102 38.1899 2.34184V3.90306H8.8149V2.34184C8.8149 1.05102 7.82694 0 6.61357 0C5.4002 0 4.41224 1.05102 4.41224 2.34184V3.90306H3.67367C1.6498 3.90306 0 5.65306 0 7.81122V42.1888C0 44.3418 1.645 46.0969 3.67367 46.0969H11.75C12.1577 46.0969 12.4838 45.7449 12.4838 45.3163C12.4838 44.8878 12.1529 44.5357 11.75 44.5357H3.67367C2.46031 44.5357 1.47235 43.4847 1.47235 42.1939V12.5H36.7223C37.13 12.5 37.4561 12.148 37.4561 11.7194C37.4561 11.2857 37.1252 10.9388 36.7223 10.9388H1.47235V7.81122C1.47235 6.52041 2.46031 5.46939 3.67367 5.46939H4.40745V7.03061C4.40745 8.32143 5.39541 9.37245 6.60878 9.37245C7.82214 9.37245 8.8101 8.32143 8.8101 7.03061V5.46939H38.1851V7.03061C38.1851 8.32143 39.1731 9.37245 40.3864 9.37245C41.5998 9.37245 42.5878 8.32143 42.5878 7.03061V5.46939H43.3215C44.5349 5.46939 45.5229 6.52041 45.5229 7.81122V10.9388H44.0553C43.6477 10.9388 43.3215 11.2908 43.3215 11.7194C43.3215 12.1531 43.6524 12.5 44.0553 12.5H45.5229V42.1888C45.5229 43.4796 44.5349 44.5306 43.3215 44.5306H35.25C34.8423 44.5306 34.5162 44.8827 34.5162 45.3112C34.5162 45.7398 34.8471 46.0918 35.25 46.0918H43.3263C45.3502 46.0918 47 44.3418 47 42.1837V7.81122C47 5.65816 45.355 3.90816 43.3263 3.90816ZM7.34255 7.03061C7.34255 7.45918 7.01163 7.81122 6.60878 7.81122C6.20592 7.81122 5.875 7.45918 5.875 7.03061V4.68878V2.34184C5.875 1.91327 6.20592 1.56122 6.60878 1.56122C7.01163 1.56122 7.34255 1.91327 7.34255 2.34184V7.03061ZM40.3912 7.81122C39.9884 7.81122 39.6574 7.45918 39.6574 7.03061V2.34184C39.6574 1.91327 39.9884 1.56122 40.3912 1.56122C40.7941 1.56122 41.125 1.91327 41.125 2.34184V4.68367V7.02551C41.125 7.46429 40.7941 7.81122 40.3912 7.81122Z" fill="#436400"/>
<path d="M41.125 12.5C41.5327 12.5 41.8588 12.148 41.8588 11.7194C41.8588 11.2857 41.5279 10.9388 41.125 10.9388H39.6575C39.2498 10.9388 38.9237 11.2908 38.9237 11.7194C38.9237 12.1531 39.2546 12.5 39.6575 12.5H41.125Z" fill="#436400"/>
<path d="M22.7662 19.5306H24.2338C24.6415 19.5306 24.9676 19.1786 24.9676 18.75C24.9676 18.3164 24.6367 17.9694 24.2338 17.9694H22.7662C22.3586 17.9694 22.0325 18.3215 22.0325 18.75C22.0325 19.1837 22.3586 19.5306 22.7662 19.5306Z" fill="#436400"/>
<path d="M22.7662 23.4388H24.2338C24.6415 23.4388 24.9676 23.0867 24.9676 22.6582C24.9676 22.2245 24.6367 21.8776 24.2338 21.8776H22.7662C22.3586 21.8776 22.0325 22.2296 22.0325 22.6582C22.0325 23.0867 22.3586 23.4388 22.7662 23.4388Z" fill="#436400"/>
<path d="M27.9075 19.5306H29.375C29.7827 19.5306 30.1088 19.1786 30.1088 18.75C30.1088 18.3164 29.7779 17.9694 29.375 17.9694H27.9075C27.4998 17.9694 27.1737 18.3215 27.1737 18.75C27.1737 19.1837 27.4998 19.5306 27.9075 19.5306Z" fill="#436400"/>
<path d="M27.9075 23.4388H29.375C29.7827 23.4388 30.1088 23.0867 30.1088 22.6582C30.1088 22.2245 29.7779 21.8776 29.375 21.8776H27.9075C27.4998 21.8776 27.1737 22.2296 27.1737 22.6582C27.1737 23.0867 27.4998 23.4388 27.9075 23.4388Z" fill="#436400"/>
<path d="M17.625 19.5306H19.0926C19.5002 19.5306 19.8263 19.1786 19.8263 18.75C19.8263 18.3164 19.4954 17.9694 19.0926 17.9694H17.625C17.2174 17.9694 16.8912 18.3215 16.8912 18.75C16.8912 19.1837 17.2174 19.5306 17.625 19.5306Z" fill="#436400"/>
<path d="M17.625 23.4388H19.0926C19.5002 23.4388 19.8263 23.0867 19.8263 22.6582C19.8263 22.2245 19.4954 21.8776 19.0926 21.8776H17.625C17.2174 21.8776 16.8912 22.2296 16.8912 22.6582C16.8912 23.0867 17.2174 23.4388 17.625 23.4388Z" fill="#436400"/>
<path d="M12.4838 19.5306H13.9513C14.359 19.5306 14.6851 19.1786 14.6851 18.75C14.6851 18.3164 14.3542 17.9694 13.9513 17.9694H12.4838C12.0761 17.9694 11.75 18.3215 11.75 18.75C11.75 19.1837 12.0809 19.5306 12.4838 19.5306Z" fill="#436400"/>
<path d="M12.4838 23.4388H13.9513C14.359 23.4388 14.6851 23.0867 14.6851 22.6582C14.6851 22.2245 14.3542 21.8776 13.9513 21.8776H12.4838C12.0761 21.8776 11.75 22.2296 11.75 22.6582C11.75 23.0867 12.0809 23.4388 12.4838 23.4388Z" fill="#436400"/>
<path d="M12.4838 27.3418H13.9513C14.359 27.3418 14.6851 26.9898 14.6851 26.5612C14.6851 26.1326 14.3542 25.7806 13.9513 25.7806H12.4838C12.0761 25.7806 11.75 26.1326 11.75 26.5612C11.75 26.9898 12.0809 27.3418 12.4838 27.3418Z" fill="#436400"/>
<path d="M11.9658 31.0204C12.1049 31.1684 12.2919 31.25 12.4838 31.25C12.6756 31.25 12.8674 31.1684 13.0017 31.0204C13.1408 30.8725 13.2176 30.6735 13.2176 30.4694C13.2176 30.2653 13.1408 30.0612 13.0017 29.9184C12.8627 29.7704 12.6756 29.6888 12.4838 29.6888C12.2919 29.6888 12.1001 29.7704 11.9658 29.9184C11.8267 30.0663 11.75 30.2653 11.75 30.4694C11.75 30.6735 11.8267 30.8776 11.9658 31.0204Z" fill="#436400"/>
<path d="M33.0487 19.5306H34.5163C34.9239 19.5306 35.25 19.1786 35.25 18.75C35.25 18.3164 34.9191 17.9694 34.5163 17.9694H33.0487C32.6411 17.9694 32.3149 18.3215 32.3149 18.75C32.3149 19.1837 32.6411 19.5306 33.0487 19.5306Z" fill="#436400"/>
<path d="M33.0487 23.4388H34.5163C34.9239 23.4388 35.25 23.0867 35.25 22.6582C35.25 22.2245 34.9191 21.8776 34.5163 21.8776H33.0487C32.6411 21.8776 32.3149 22.2296 32.3149 22.6582C32.3149 23.0867 32.6411 23.4388 33.0487 23.4388Z" fill="#436400"/>
<path d="M33.0487 27.3418H34.5163C34.9239 27.3418 35.25 26.9898 35.25 26.5612C35.25 26.1326 34.9191 25.7806 34.5163 25.7806H33.0487C32.6411 25.7806 32.3149 26.1326 32.3149 26.5612C32.3149 26.9898 32.6411 27.3418 33.0487 27.3418Z" fill="#436400"/>
<path d="M33.9983 29.9184C33.8592 30.0663 33.7825 30.2653 33.7825 30.4694C33.7825 30.6735 33.8592 30.8776 33.9983 31.0204C34.1374 31.1684 34.3244 31.25 34.5162 31.25C34.7081 31.25 34.8999 31.1684 35.0342 31.0204C35.1733 30.8725 35.25 30.6735 35.25 30.4694C35.25 30.2653 35.1733 30.0612 35.0342 29.9184C34.8951 29.7704 34.7081 29.6888 34.5162 29.6888C34.3196 29.6888 34.1326 29.7704 33.9983 29.9184Z" fill="#436400"/>
<path d="M37.4513 18.75C37.4513 19.1837 37.7822 19.5306 38.1851 19.5306H39.6526C40.0603 19.5306 40.3864 19.1786 40.3864 18.75C40.3864 18.3164 40.0555 17.9694 39.6526 17.9694H38.1851C37.7822 17.9694 37.4513 18.3164 37.4513 18.75Z" fill="#436400"/>
<path d="M38.1899 23.4388H39.6574C40.0651 23.4388 40.3912 23.0867 40.3912 22.6582C40.3912 22.2245 40.0603 21.8776 39.6574 21.8776H38.1899C37.7822 21.8776 37.4561 22.2296 37.4561 22.6582C37.4513 23.0867 37.7822 23.4388 38.1899 23.4388Z" fill="#436400"/>
<path d="M38.1898 27.3418H39.6574C40.065 27.3418 40.3912 26.9898 40.3912 26.5612C40.3912 26.1326 40.0602 25.7806 39.6574 25.7806H38.1898C37.7822 25.7806 37.4561 26.1326 37.4561 26.5612C37.4561 26.9898 37.7822 27.3418 38.1898 27.3418Z" fill="#436400"/>
<path d="M38.1898 31.25H39.6574C40.065 31.25 40.3912 30.898 40.3912 30.4694C40.3912 30.0408 40.0602 29.6888 39.6574 29.6888H38.1898C37.7822 29.6888 37.4561 30.0408 37.4561 30.4694C37.4561 30.898 37.7822 31.25 38.1898 31.25Z" fill="#436400"/>
<path d="M38.1898 35.1581H39.6574C40.065 35.1581 40.3912 34.8061 40.3912 34.3775C40.3912 33.949 40.0602 33.5969 39.6574 33.5969H38.1898C37.7822 33.5969 37.4561 33.949 37.4561 34.3775C37.4561 34.8061 37.7822 35.1581 38.1898 35.1581Z" fill="#436400"/>
<path d="M38.1898 39.0612H39.6574C40.065 39.0612 40.3912 38.7092 40.3912 38.2806C40.3912 37.852 40.0602 37.5 39.6574 37.5H38.1898C37.7822 37.5 37.4561 37.852 37.4561 38.2806C37.4561 38.7092 37.7822 39.0612 38.1898 39.0612Z" fill="#436400"/>
<path d="M8.81497 17.9694H7.34742C6.93977 17.9694 6.61365 18.3215 6.61365 18.75C6.61365 19.1837 6.94457 19.5306 7.34742 19.5306H8.81497C9.22263 19.5306 9.54875 19.1786 9.54875 18.75C9.54875 18.3164 9.21783 17.9694 8.81497 17.9694Z" fill="#436400"/>
<path d="M8.81497 21.8776H7.34742C6.93977 21.8776 6.61365 22.2296 6.61365 22.6582C6.61365 23.0919 6.94457 23.4388 7.34742 23.4388H8.81497C9.22263 23.4388 9.54875 23.0867 9.54875 22.6582C9.54875 22.2245 9.21783 21.8776 8.81497 21.8776Z" fill="#436400"/>
<path d="M8.81497 25.7806H7.34742C6.93977 25.7806 6.61365 26.1326 6.61365 26.5612C6.61365 26.9898 6.94457 27.3418 7.34742 27.3418H8.81497C9.22263 27.3418 9.54875 26.9898 9.54875 26.5612C9.54875 26.1326 9.21783 25.7806 8.81497 25.7806Z" fill="#436400"/>
<path d="M8.81497 29.6888H7.34742C6.93977 29.6888 6.61365 30.0408 6.61365 30.4694C6.61365 30.898 6.94457 31.25 7.34742 31.25H8.81497C9.22263 31.25 9.54875 30.898 9.54875 30.4694C9.54875 30.0408 9.21783 29.6888 8.81497 29.6888Z" fill="#436400"/>
<path d="M8.81497 33.5918H7.34742C6.93977 33.5918 6.61365 33.9438 6.61365 34.3724C6.61365 34.801 6.94457 35.153 7.34742 35.153H8.81497C9.22263 35.153 9.54875 34.801 9.54875 34.3724C9.54875 33.9438 9.21783 33.5918 8.81497 33.5918Z" fill="#436400"/>
<path d="M8.81497 37.5H7.34742C6.93977 37.5 6.61365 37.852 6.61365 38.2806C6.61365 38.7092 6.94457 39.0612 7.34742 39.0612H8.81497C9.22263 39.0612 9.54875 38.7092 9.54875 38.2806C9.54875 37.852 9.21783 37.5 8.81497 37.5Z" fill="#436400"/>
<path d="M23.5006 28.5612C17.8678 28.5612 13.2806 33.144 13.2806 38.7812C13.2806 44.4185 17.8678 49.0012 23.5006 49.0012C29.1334 49.0012 33.7206 44.4185 33.7206 38.7812C33.7206 33.144 29.1334 28.5612 23.5006 28.5612ZM24.1814 47.613V46.959C24.1814 46.5808 23.8744 46.2783 23.5006 46.2783C23.1225 46.2783 22.8199 46.5853 22.8199 46.959V47.613C18.4774 47.2793 15.0025 43.8045 14.6688 39.462H15.3229C15.701 39.462 16.0036 39.155 16.0036 38.7812C16.0036 38.4075 15.6966 38.1005 15.3229 38.1005H14.6688C15.0025 33.758 18.4774 30.2831 22.8199 29.9494V30.6034C22.8199 30.9816 23.1269 31.2842 23.5006 31.2842C23.8788 31.2842 24.1814 30.9772 24.1814 30.6034V29.9494C28.5239 30.2831 31.9988 33.758 32.3325 38.1005H31.6784C31.3002 38.1005 30.9977 38.4075 30.9977 38.7812C30.9977 39.155 31.3047 39.462 31.6784 39.462H32.3325C31.9988 43.8045 28.5239 47.2793 24.1814 47.613Z" fill="#436400"/>
<path d="M28.951 38.1005H25.4271C25.2225 37.522 24.7597 37.0593 24.1813 36.8547V33.3308C24.1813 32.9526 23.8743 32.6501 23.5006 32.6501C23.1224 32.6501 22.8199 32.9571 22.8199 33.3308V36.8547C22.0279 37.135 21.4584 37.8913 21.4584 38.7812C21.4584 39.9069 22.3749 40.8234 23.5006 40.8234C24.3905 40.8234 25.1468 40.2539 25.4271 39.4619H28.951C29.3292 39.4619 29.6317 39.1549 29.6317 38.7812C29.6317 38.4075 29.3292 38.1005 28.951 38.1005ZM23.5006 39.4619C23.1269 39.4619 22.8199 39.1549 22.8199 38.7812C22.8199 38.4075 23.1269 38.1005 23.5006 38.1005C23.8743 38.1005 24.1813 38.4075 24.1813 38.7812C24.1813 39.1549 23.8743 39.4619 23.5006 39.4619Z" fill="#436400"/>
</svg>
