<svg width="58" height="61" viewBox="0 0 58 61" fill="none" xmlns="http://www.w3.org/2000/svg">
<rect x="17.0273" y="9" width="40" height="52" rx="6" fill="#E6F1D2"/>
<path d="M1.41676 24.8088C1.41676 29.2762 1.45812 33.7436 1.39607 38.2111C1.37539 40.2793 3.06102 41.8926 5.05689 41.8822C9.43126 41.8512 13.8056 41.8719 18.18 41.8719C18.7591 41.8719 18.7591 41.8719 18.7591 42.4407C18.7591 43.268 18.7591 43.268 17.9318 43.268C13.6298 43.268 9.33819 43.268 5.03621 43.268C2.49225 43.268 0.496382 41.6134 0.0620478 39.1211C0.0206826 38.8833 0.0103413 38.6351 0.0103413 38.3869C0.0103413 28.9039 0.0103413 19.4106 0 9.92764C0 9.66911 0.0827303 9.50365 0.258532 9.32785C3.29887 6.28751 6.31853 3.26785 9.33819 0.248191C9.50365 0.0723891 9.66911 0 9.90696 0C16.5771 0.0103413 23.2576 0 29.9277 0.0103413C32.6681 0.0103413 34.8398 2.17167 34.8502 4.92246C34.8708 10.8377 34.8502 16.7426 34.8605 22.6578C34.8605 22.9887 34.7571 23.0714 34.4365 23.0611C33.4541 23.0507 33.4541 23.0611 33.4541 22.0683C33.4541 16.3909 33.4541 10.7136 33.4541 5.02587C33.4541 3.18512 32.3786 1.85109 30.5999 1.44778C30.3103 1.38573 30.0104 1.38573 29.7105 1.38573C23.4334 1.38573 17.1665 1.38573 10.8894 1.38573C10.4033 1.38573 10.4137 1.38573 10.4964 1.86143C10.7963 3.49536 10.8377 5.11894 10.331 6.72184C9.71047 8.69703 8.27304 9.84491 6.4116 10.5378C4.90177 11.0962 3.35058 11.0962 1.80973 10.7032C1.4788 10.6205 1.40642 10.6619 1.40642 11.0135C1.41676 15.6154 1.41676 20.2069 1.41676 24.8088Z" fill="#436400"/>
<path d="M26.349 24.5712C26.5765 24.5608 26.8867 24.6022 27.1245 24.7677C27.7657 25.1916 28.3448 25.1606 29.0273 24.7883C29.9477 24.2816 31.0439 24.6332 31.6437 25.5019C31.7368 25.626 31.8298 25.7501 31.9022 25.8845C32.0884 26.2258 32.3676 26.3706 32.7502 26.3602C33.6913 26.3499 34.4669 26.6601 34.9322 27.5391C35.1287 27.9114 35.1804 28.3354 35.1701 28.7387C35.1597 29.1834 35.3459 29.4626 35.7182 29.6798C36.318 30.0314 36.7833 30.4864 36.9281 31.1999C37.0315 31.717 36.9798 32.2134 36.7109 32.6581C36.38 33.1958 36.38 33.6715 36.6902 34.2403C37.29 35.3675 37.0005 36.4223 35.9146 37.1152C35.4183 37.4254 35.1804 37.777 35.1597 38.3871C35.108 39.7522 34.3738 40.4657 32.9881 40.5381C32.4089 40.5692 32.047 40.7863 31.7471 41.2724C31.0439 42.3892 30.0201 42.6788 28.8515 42.0686C28.2931 41.7791 27.8484 41.7894 27.3003 42.079C26.1731 42.6788 25.108 42.3892 24.4358 41.293C24.1152 40.7656 23.7223 40.5174 23.1225 40.5381C22.0159 40.5898 20.9715 39.6074 21.0128 38.4802C21.0335 37.808 20.744 37.4047 20.1752 37.0531C19.1928 36.4533 18.8825 35.3365 19.4306 34.323C19.7615 33.7129 19.7719 33.2165 19.4306 32.596C18.8825 31.5929 19.1928 30.5484 20.1338 29.8763C20.2683 29.7832 20.4027 29.6798 20.5475 29.597C20.8267 29.4316 20.9611 29.2041 20.9715 28.8732C20.9715 28.5939 21.0025 28.3044 21.0542 28.0252C21.23 27.1875 21.8919 26.567 22.7398 26.4119C22.9673 26.3706 23.2052 26.3395 23.4327 26.3499C23.805 26.3602 24.0635 26.1948 24.26 25.8845C24.5496 25.4295 24.8495 24.9745 25.3769 24.747C25.6561 24.6436 25.956 24.5712 26.349 24.5712ZM29.8133 41.7998C30.5682 41.7998 31.0129 41.4482 31.3231 40.8897C31.6644 40.2589 32.1814 39.959 32.9053 39.99C33.9912 40.0314 34.653 39.2041 34.6013 38.3044C34.5599 37.6012 34.8598 37.0945 35.4803 36.7118C36.5144 36.0707 36.6799 35.4295 36.1215 34.3644C35.7906 33.7232 35.7906 33.1648 36.1318 32.5443C36.6696 31.5515 36.4938 30.838 35.5217 30.2485C34.8909 29.8659 34.6116 29.3695 34.5806 28.6456C34.5393 27.4874 34.0739 27.0221 32.9053 26.9704C32.1814 26.9393 31.6747 26.6601 31.3024 26.0293C30.7337 25.0882 30.0408 24.8711 29.0791 25.3881C28.3655 25.7708 27.745 25.7708 27.0418 25.3675C26.1938 24.8918 25.4079 25.0986 24.9219 25.9362C24.4979 26.6705 23.9187 26.9704 23.0914 26.9807C22.1814 26.991 21.5713 27.5908 21.5816 28.4905C21.592 29.3178 21.2817 29.8659 20.5785 30.3002C19.6892 30.838 19.503 31.5619 20.0097 32.4823C20.382 33.1648 20.3924 33.7542 20.0201 34.4471C19.503 35.4088 19.6892 36.1121 20.6302 36.6808C21.3024 37.0841 21.5816 37.6219 21.5816 38.3975C21.5816 39.3592 22.1917 39.99 23.1535 39.9797C23.9705 39.9694 24.5289 40.2796 24.9115 40.9931C25.108 41.3758 25.4286 41.6446 25.8526 41.7481C26.2972 41.8618 26.7212 41.7998 27.1142 41.5516C27.7554 41.1483 28.3862 41.1172 29.0377 41.5412C29.2859 41.7067 29.5754 41.8204 29.8133 41.7998Z" fill="#436400"/>
<path d="M32.3387 41.4377C32.6076 42.1099 32.8558 42.72 33.104 43.3405C33.6417 44.6952 34.1795 46.0499 34.7275 47.3943C34.8413 47.6735 34.8103 47.8079 34.4794 47.7562C34.4587 47.7562 34.4276 47.7562 34.407 47.7562C33.2591 47.6114 32.3284 47.9734 31.5941 48.8731C31.3149 49.2143 31.2736 49.1833 31.1081 48.7593C30.3118 46.7531 29.5052 44.7366 28.6882 42.6683C30.2394 43.2681 31.4287 42.8338 32.3387 41.4377Z" fill="#436400"/>
<path d="M17.4133 21.4686C14.0317 21.4686 10.6501 21.4583 7.2685 21.479C6.87553 21.479 6.72041 21.3859 6.78246 20.9826C6.80314 20.8792 6.7928 20.7758 6.78246 20.6723C6.77212 20.4862 6.83417 20.3724 7.04099 20.4035C7.10304 20.4138 7.16509 20.4035 7.23748 20.4035C14.0214 20.4035 20.8156 20.4035 27.5995 20.3931C27.9821 20.3931 28.0752 20.4965 28.0545 20.8688C28.0235 21.4686 28.0442 21.4686 27.4961 21.4686C24.1558 21.4583 20.7846 21.4583 17.4133 21.4686Z" fill="#436400"/>
<path d="M17.4247 12.8235C14.0224 12.8235 10.6098 12.8235 7.2075 12.8235C7.07306 12.8235 6.84555 12.9165 6.81453 12.6994C6.77316 12.4098 6.72145 12.0996 6.85589 11.8307C6.88691 11.7687 7.09374 11.7893 7.21784 11.7893C11.0234 11.7893 14.829 11.7893 18.6346 11.7893C21.6336 11.7893 24.6222 11.7997 27.6212 11.779C27.9625 11.779 28.1279 11.8617 28.0659 12.2237C28.0555 12.2961 28.0555 12.3788 28.0659 12.4512C28.1176 12.7614 27.9728 12.8338 27.6833 12.8338C24.2603 12.8235 20.8477 12.8235 17.4247 12.8235Z" fill="#436400"/>
<path d="M17.4553 17.1356C14.053 17.1356 10.6404 17.1356 7.23812 17.1459C6.89686 17.1459 6.72106 17.0839 6.79345 16.7116C6.81413 16.6082 6.80379 16.5048 6.79345 16.4014C6.77276 16.1945 6.85549 16.0808 7.083 16.1015C7.22778 16.1118 7.36222 16.1015 7.50699 16.1015C14.1978 16.1015 20.899 16.1015 27.5898 16.1015C27.7449 16.1015 28.0034 16.0084 28.0345 16.1945C28.0965 16.4737 28.0758 16.784 28.0241 17.0735C28.0034 17.1976 27.7966 17.1356 27.6725 17.1356C24.2702 17.1356 20.8679 17.1356 17.4553 17.1356Z" fill="#436400"/>
<path d="M26.992 42.9888C26.9713 43.0405 26.9506 43.0819 26.9299 43.1336C26.2991 44.7882 25.6476 46.4428 25.0375 48.1078C24.9237 48.4283 24.8203 48.3249 24.6548 48.1698C24.2205 47.7872 23.8275 47.2805 23.3208 47.084C22.8244 46.8978 22.204 47.0219 21.6352 47.0323C21.3456 47.0426 21.3146 46.9599 21.418 46.7014C22.1005 44.933 22.7727 43.1646 23.4553 41.4066C23.4863 41.3239 23.4863 41.2101 23.5897 41.1894C23.7241 41.1688 23.7345 41.3135 23.7965 41.3859C23.8896 41.51 23.9723 41.6445 24.055 41.7686C24.7272 42.6786 25.6166 43.0716 26.7438 42.9061C26.8265 42.8854 26.9713 42.7717 26.992 42.9888Z" fill="#436400"/>
<path d="M20.87 24.7363C20.5908 25.0466 20.3012 25.3568 20.022 25.667C19.9186 25.7808 19.7842 25.7498 19.6601 25.7498C15.5029 25.7498 11.3457 25.7498 7.18846 25.7601C6.86788 25.7601 6.76446 25.6774 6.7748 25.3568C6.79549 24.7363 6.7748 24.7363 7.4987 24.7363C11.842 24.7363 16.1957 24.726 20.5391 24.726C20.6735 24.726 20.7976 24.6846 20.87 24.7363Z" fill="#436400"/>
<path d="M11.9348 34.4051C10.3422 34.4051 8.75999 34.3947 7.16743 34.4154C6.84685 34.4154 6.77447 34.312 6.78481 34.0224C6.79515 33.3502 6.78481 33.3502 7.46733 33.3502C10.4973 33.3502 13.5377 33.3502 16.5677 33.3399C16.8779 33.3399 17.0227 33.3709 17.0227 33.7432C17.0123 34.4051 17.033 34.4051 16.3505 34.4051C14.882 34.4051 13.4032 34.4051 11.9348 34.4051Z" fill="#436400"/>
<path d="M12.2956 29.0383C14.0019 29.0383 15.6979 29.0486 17.4042 29.028C17.7662 29.028 17.8179 29.1107 17.6834 29.4416C17.4352 30.0724 17.4456 30.0828 16.7527 30.0828C13.5779 30.0828 10.4135 30.0828 7.23873 30.0931C6.89747 30.0931 6.73201 30.0104 6.79406 29.6484C6.8044 29.6071 6.8044 29.5657 6.79406 29.5347C6.73201 29.1624 6.8561 29.028 7.26975 29.0383C8.94504 29.0486 10.6203 29.0383 12.2956 29.0383Z" fill="#436400"/>
<path d="M30.3302 50C29.9269 48.9659 29.5235 47.9628 29.1306 46.9597C28.7273 45.9566 28.3343 44.9534 27.8896 43.8676C27.507 44.8604 27.1657 45.7497 26.8245 46.6494C26.5453 47.3837 26.2764 48.1179 25.9765 48.8521C25.9351 48.9555 25.9765 49.2554 25.7283 49.1106C25.5628 49.0176 25.2836 48.9245 25.418 48.5936C25.6662 47.9834 25.8937 47.3733 26.1213 46.7528C26.6176 45.4395 27.1244 44.1261 27.6207 42.8231C27.6414 42.7611 27.6725 42.7094 27.6931 42.6473C27.7345 42.5336 27.8172 42.4715 27.9206 42.4612C28.0654 42.4509 28.0551 42.5853 28.0861 42.6784C28.6549 44.0848 29.2133 45.5015 29.7821 46.9183C30.0716 47.6318 30.3508 48.3557 30.6404 49.0693C30.8576 49.5863 30.8576 49.5863 30.3302 50Z" fill="#436400"/>
<path d="M35.7067 47.7353C35.4482 47.8076 35.3758 47.6422 35.2931 47.4457C34.5072 45.4602 33.7109 43.4746 32.9249 41.4891C32.8836 41.3857 32.7078 41.2099 32.9146 41.1582C33.1111 41.1168 33.3903 40.9203 33.5247 41.2926C33.8763 42.213 34.2486 43.1334 34.6209 44.0538C35.0552 45.1499 35.4896 46.2565 35.9343 47.3526C36.0687 47.6318 36.0997 47.8076 35.7067 47.7353Z" fill="#436400"/>
<path d="M22.5961 41.086C22.9787 41.0343 22.9787 41.1895 22.8649 41.479C22.1927 43.206 21.5412 44.9433 20.8691 46.6703C20.8174 46.8048 20.8174 47.0013 20.6105 47.0116C20.4451 47.0219 20.2382 47.0943 20.1348 46.9599C20.0418 46.8565 20.1865 46.7014 20.2279 46.5773C20.8897 44.8296 21.5516 43.0923 22.2238 41.3446C22.2858 41.1688 22.3065 40.8999 22.5961 41.086Z" fill="#436400"/>
<path d="M26.2866 25.7187C26.5555 25.6876 26.783 25.8427 27.0002 25.9668C27.7241 26.3908 28.448 26.3805 29.1615 25.9668C29.2753 25.9048 29.389 25.8531 29.5131 25.8014C29.9371 25.6152 30.3714 25.7187 30.6507 26.0909C30.7954 26.2771 30.9195 26.4736 31.0436 26.6597C31.3745 27.1561 31.8296 27.4353 32.419 27.487C32.5948 27.5077 32.781 27.518 32.9568 27.5284C33.66 27.5697 33.9909 27.8903 34.0219 28.5935C34.0426 29.1313 34.084 29.6483 34.4252 30.093C34.6631 30.4033 35.0043 30.5687 35.3042 30.7859C35.8627 31.1789 36.0075 31.6132 35.6558 32.213C35.1595 33.0713 35.1595 33.8779 35.6558 34.7363C36.0178 35.3774 35.8937 35.8221 35.2422 36.1944C34.4046 36.6908 34.0012 37.3836 34.0116 38.3557C34.0219 39.0382 33.7013 39.3381 33.0395 39.4105C32.843 39.4312 32.6569 39.4416 32.4604 39.4622C31.8503 39.5036 31.3642 39.7828 31.0436 40.2895C30.4335 41.2616 30.1233 41.5408 28.9133 40.8686C28.3549 40.5584 27.7654 40.5687 27.207 40.879C26.0178 41.5408 25.6868 41.2513 25.1077 40.3102C24.7768 39.7725 24.2701 39.4933 23.6289 39.4519C23.4014 39.4415 23.1636 39.4209 22.9361 39.3898C22.5327 39.3381 22.2225 39.0382 22.1605 38.6453C22.1191 38.4074 22.1088 38.1592 22.0984 37.911C22.057 37.2802 21.7778 36.7735 21.2401 36.4322C20.2577 35.8221 20.0302 35.4912 20.6713 34.3226C20.9712 33.7642 20.9816 33.1747 20.6713 32.6163C19.9991 31.3857 20.2887 31.0961 21.2608 30.486C21.7882 30.1551 22.0467 29.6483 22.0984 29.0382C22.1088 28.8934 22.1088 28.759 22.1191 28.6142C22.1811 27.849 22.481 27.5284 23.236 27.5284C24.1977 27.5284 24.8906 27.1354 25.3456 26.2978C25.5524 25.9358 25.8316 25.6876 26.2866 25.7187ZM21.4573 33.4539C21.4262 37.0631 24.3528 40.0517 27.9723 40.0931C31.6744 40.1344 34.6838 37.1975 34.7148 33.5056C34.7458 29.8965 31.7675 26.8562 28.1688 26.8355C24.4562 26.8045 21.4883 29.7311 21.4573 33.4539Z" fill="#436400"/>
<path d="M32.1939 32.306C32.8661 34.095 32.0078 36.3494 30.3015 37.3215C28.6986 38.2316 27.075 38.2005 25.5651 37.1354C24.0863 36.1012 23.4762 34.6121 23.7864 32.8437C24.107 31.0133 25.2342 29.8344 27.0439 29.3587C28.0781 29.0795 29.0915 29.2346 30.0533 29.7C30.2808 29.8137 30.3738 29.8965 30.167 30.1343C29.7327 30.6307 29.743 30.6514 29.1329 30.4342C27.4059 29.8448 25.5134 30.7858 24.924 32.5232C24.3449 34.2295 25.2756 36.1426 26.9716 36.7321C28.7192 37.3319 30.6117 36.4115 31.2012 34.6845C31.3046 34.4053 31.408 34.1054 31.377 33.8158C31.2942 33.1023 31.8527 32.8024 32.1939 32.306Z" fill="#436400"/>
<path d="M26.2984 32.1096C26.3604 32.1613 26.4432 32.213 26.5156 32.2854C26.9085 32.637 27.3118 32.9886 27.6738 33.3609C27.9323 33.6298 28.0978 33.6401 28.3356 33.3299C29.194 32.2544 30.0833 31.1996 30.952 30.1241C31.1588 29.8655 31.3139 29.8552 31.5518 30.062C31.7689 30.2585 32.0068 30.4447 32.2446 30.6308C32.4515 30.7859 32.4825 30.941 32.3067 31.1479C31.014 32.7197 29.7214 34.2916 28.4287 35.8738C28.2736 36.0703 28.1391 36.0807 27.953 35.9049C27.0947 35.0982 26.2364 34.3123 25.3677 33.516C25.1505 33.3195 25.1505 33.1748 25.3573 32.9783C25.5848 32.7508 25.7917 32.5026 26.0192 32.2647C26.0916 32.1923 26.1536 32.1096 26.2984 32.1096Z" fill="#436400"/>
</svg>
