<svg width="73" height="61" viewBox="0 0 73 61" fill="none" xmlns="http://www.w3.org/2000/svg">
<rect x="32.0273" y="9" width="40" height="52" rx="6" fill="#E6F1D2"/>
<path d="M0 20.4043C0.687114 19.7769 1.35431 19.1297 2.06134 18.5222C2.74846 17.9247 3.4754 17.3571 4.17248 16.7795C5.16829 15.953 6.15415 15.1265 7.14001 14.2999C8.03625 13.5431 8.93248 12.7763 9.82872 12.0096C10.3167 11.5913 10.7747 11.1432 11.2926 10.7847C11.5714 10.5955 11.6411 10.4063 11.6411 10.1075C11.6311 7.05039 11.6311 4.00319 11.6411 0.946027C11.6411 0.248954 11.8801 0 12.5672 0C13.7423 0 14.9273 0 16.1024 0C16.7994 0 17.1081 0.308703 17.1081 1.01573C17.1081 2.60904 17.1081 4.20235 17.1081 5.87532C17.5961 5.477 18.0442 5.1185 18.4824 4.76001C19.4483 3.9534 20.4143 3.14678 21.3802 2.34017C21.8582 1.94184 22.3063 1.50368 22.8042 1.14519C23.7702 0.448118 24.8357 0.209122 26.0506 0.368452C27.3153 0.527783 28.2115 1.2149 29.1177 1.99164C30.243 2.95758 31.4081 3.88369 32.5433 4.83967C33.4794 5.62637 34.4055 6.43298 35.3515 7.22964C36.2976 8.02629 37.2635 8.81299 38.2195 9.60964C39.1257 10.3665 40.0119 11.1332 40.9181 11.8901C42.1032 12.8859 43.2981 13.8817 44.4832 14.8775C45.4491 15.6941 46.3951 16.5206 47.3611 17.3372C48.4366 18.2434 49.512 19.1496 50.5776 20.0657C50.7269 20.1952 50.8464 20.3645 50.9859 20.5138C50.9859 20.6433 50.9859 20.7827 50.9859 20.9122C50.7568 21.181 50.5178 21.4499 50.2888 21.7188C49.8208 22.2665 49.3726 22.8341 48.8847 23.3619C48.5959 23.6805 48.2274 23.7104 47.8789 23.4216C47.1619 22.8241 46.4648 22.2067 45.7479 21.5993C45.0807 21.0317 44.4035 20.484 43.7363 19.9263C43.7363 27.8032 43.7363 35.6403 43.7363 43.5073C45.5288 43.5073 47.2715 43.5073 49.0141 43.5073C49.8606 43.5073 50.0896 43.7463 50.0896 44.5827C50.0896 45.9968 50.0697 47.4009 50.0996 48.815C50.1195 49.6017 49.8407 50 48.9046 50C33.1707 49.9801 17.4368 49.99 1.71281 49.99C1.10536 49.99 0.886278 49.7909 0.886278 49.1635C0.876319 47.5702 0.876319 45.9769 0.886278 44.3836C0.886278 43.7064 1.0954 43.5073 1.77256 43.5073C3.43557 43.5073 5.08863 43.5073 6.75164 43.5073C6.91097 43.5073 7.0703 43.4973 7.21968 43.4874C7.21968 35.6503 7.21968 27.8431 7.21968 19.9263C6.54252 20.4939 5.94503 21.0018 5.34754 21.4997C4.5708 22.147 3.79406 22.8042 3.00737 23.4316C2.66879 23.7104 2.30034 23.6706 2.00159 23.3519C1.77256 23.103 1.59331 22.8042 1.36427 22.5453C0.916152 22.0175 0.458076 21.5097 0 21.0018C0 20.8026 0 20.6035 0 20.4043ZM42.2525 43.4674C42.2525 43.2683 42.2525 43.089 42.2525 42.9098C42.2426 34.9731 42.2326 27.0464 42.2426 19.1097C42.2426 18.7313 42.1032 18.4923 41.8343 18.2733C40.6791 17.3173 39.514 16.3613 38.3589 15.3953C36.9946 14.2501 35.6503 13.0751 34.286 11.9299C32.7226 10.6154 31.1492 9.32085 29.5758 8.01633C28.3111 6.96076 27.0564 5.88528 25.7817 4.83967C25.6622 4.74009 25.3336 4.73013 25.2141 4.81976C24.6266 5.25792 24.0689 5.73591 23.5013 6.20394C22.5851 6.97072 21.6789 7.75742 20.7728 8.5242C19.7969 9.34077 18.811 10.1573 17.8351 10.9739C16.9189 11.7407 16.0227 12.5274 15.1066 13.2942C13.9713 14.2501 12.8162 15.1862 11.6809 16.1422C10.8843 16.7994 10.0777 17.4467 9.32085 18.1338C9.05198 18.3828 8.6437 18.5222 8.6437 19.0599C8.67357 27.0464 8.67357 35.0229 8.67357 43.0094C8.67357 43.1687 8.67357 43.3181 8.67357 43.4774C19.9164 43.4674 31.0595 43.4674 42.2525 43.4674ZM2.35013 48.4664C17.8052 48.4664 33.2205 48.4664 48.6357 48.4664C48.6357 47.3013 48.6357 46.1661 48.6357 45.011C33.2006 45.011 17.7853 45.011 2.35013 45.011C2.35013 46.1661 2.35013 47.3013 2.35013 48.4664ZM2.62896 21.8184C3.60486 21.0117 4.56084 20.245 5.49691 19.4483C6.85122 18.3031 8.17566 17.148 9.52997 16.0028C11.2826 14.529 13.0452 13.085 14.8078 11.6212C16.2418 10.4262 17.6658 9.23123 19.0898 8.03625C20.7528 6.6421 22.4159 5.238 24.0789 3.84386C24.995 3.07708 25.7319 3.01733 26.658 3.72436C27.3949 4.29197 28.0821 4.9293 28.7891 5.53675C29.6953 6.31348 30.6114 7.09022 31.5276 7.857C32.4637 8.6437 33.4196 9.42043 34.3557 10.2071C35.2918 10.9938 36.2179 11.8104 37.154 12.5971C38.1299 13.4137 39.1157 14.2203 40.0916 15.0468C40.9779 15.7937 41.8642 16.5505 42.7504 17.2973C43.9156 18.2733 45.0807 19.2392 46.2557 20.2051C46.903 20.7429 47.5503 21.2906 48.2374 21.8582C48.5561 21.4798 48.8449 21.1412 49.1536 20.7728C48.6059 20.3147 48.1279 19.8964 47.6399 19.4881C46.6939 18.6815 45.7479 17.865 44.8018 17.0584C43.6268 16.0625 42.4417 15.0866 41.2667 14.1008C40.2908 13.2742 39.3348 12.4278 38.3589 11.6013C37.1938 10.6254 36.0187 9.65943 34.8536 8.68353C33.8678 7.84704 32.8919 6.99064 31.906 6.15415C30.472 4.93926 29.0181 3.73432 27.5941 2.51942C26.4788 1.57339 24.4573 1.49373 23.3718 2.56921C22.5453 3.38578 21.6092 4.08285 20.723 4.82972C19.767 5.62637 18.811 6.41307 17.855 7.20972C16.9389 7.9765 16.0327 8.7632 15.1265 9.52997C14.1804 10.3266 13.2145 11.1133 12.2585 11.91C11.3224 12.6967 10.3864 13.5033 9.45031 14.2999C8.29516 15.2659 7.14001 16.2219 5.98486 17.1878C5.24796 17.8052 4.5011 18.4127 3.76419 19.0301C3.07708 19.6076 2.40988 20.1852 1.72276 20.7728C2.00159 21.1014 2.29038 21.44 2.62896 21.8184ZM13.1548 9.22127C13.9414 8.56403 14.6784 7.96654 15.3754 7.33918C15.5248 7.20972 15.6144 6.95081 15.6144 6.75164C15.6343 5.30771 15.6244 3.87373 15.6244 2.42979C15.6244 2.10118 15.6244 1.78251 15.6244 1.46385C14.758 1.46385 13.9614 1.46385 13.1548 1.46385C13.1548 4.05298 13.1548 6.60227 13.1548 9.22127Z" fill="#436400"/>
<path d="M13.8816 24.8357C14.1406 25.9311 14.7779 26.8672 15.7438 27.6738C16.3413 28.1717 17.0483 28.56 17.7853 28.9185C18.2931 29.1575 18.7612 29.4463 19.2391 29.7252C20.0756 30.2131 20.9221 30.7011 21.7187 31.2288C22.6548 31.8462 23.4116 32.5831 23.8398 33.4993C24.0489 33.9474 24.1784 34.4055 24.1784 34.8835C24.1784 35.1524 24.2083 35.4212 24.1784 35.6901C24.1286 36.0884 24.039 36.4768 23.9494 36.8652C23.9294 36.9747 23.9394 37.0345 24.0489 37.1042C24.6763 37.4826 25.2539 37.9008 25.6821 38.4386C25.9709 38.7971 26.2198 39.1755 26.4787 39.5439C26.5086 39.5837 26.5285 39.6335 26.5783 39.6734C26.5484 39.295 26.4987 38.9165 26.4787 38.5381C26.4688 38.1896 26.4787 37.851 26.4987 37.5025C26.5086 37.2735 26.5285 37.0444 26.5883 36.8253C26.6679 36.4967 26.7775 36.1681 26.897 35.8395C26.9468 35.71 26.9269 35.6403 26.7775 35.5407C25.8713 34.9731 25.3037 34.2462 25.1045 33.34C25.0348 33.0213 24.9751 32.7026 24.9751 32.384C24.9751 32.0653 25.0248 31.7467 25.0946 31.428C25.3933 29.9243 26.1601 28.5501 27.0464 27.2057C28.072 25.6622 29.2869 24.2083 30.5815 22.8042C31.1292 22.2167 31.7466 21.659 32.3043 21.0715C33.1905 20.1653 33.9075 19.1695 34.4254 18.094C34.6942 17.5363 34.9133 16.9687 34.9731 16.3712C35.0129 15.9928 35.0627 15.6244 35.0726 15.246C35.0826 15.0368 35.0328 14.8277 35.0328 14.6086C35.1424 14.8974 35.2718 15.1763 35.3614 15.465C35.6901 16.4808 36.0087 17.4866 36.3075 18.5023C36.427 18.9006 36.4867 19.3089 36.5763 19.7172C36.6759 20.1753 36.7755 20.6333 36.8552 21.0914C36.905 21.3902 36.9348 21.6789 36.9747 21.9777C37.0145 22.2764 37.0543 22.5652 37.0742 22.864C37.1041 23.2723 37.1041 23.6706 37.1141 24.0789C37.124 24.4075 37.1639 24.7461 37.1439 25.0747C37.1141 25.6124 37.0643 26.1601 37.0045 26.6979C36.9547 27.136 36.885 27.5742 36.7855 28.0024C36.5365 29.1277 36.1382 30.2131 35.5108 31.2488C34.6743 32.6329 33.4993 33.7881 31.9458 34.7042C31.2288 35.1324 30.4919 35.5308 29.6654 35.8196C29.1077 36.0088 28.5301 36.1382 27.9227 36.1183C27.7633 36.1183 27.614 36.0785 27.4546 36.0586C27.4148 36.3075 27.3551 36.5465 27.3252 36.7855C27.2654 37.2037 27.2057 37.622 27.1858 38.0402C27.1559 38.5282 27.1459 39.0161 27.1459 39.5041C27.136 40.0817 27.2057 40.6493 27.4447 41.2169C27.2356 41.2567 27.0364 41.2966 26.8273 41.3463C26.2497 39.8028 25.2141 38.4784 23.7701 37.3531C23.1726 37.851 22.3959 38.0402 21.5992 38.1796C21.2905 38.2294 20.9719 38.2693 20.6632 38.2892C20.4939 38.2991 20.3246 38.2593 20.1553 38.2294C19.04 37.9805 18.1736 37.4427 17.4467 36.7357C16.6998 36.0088 16.172 35.1822 15.7438 34.3059C15.236 33.2802 14.8775 32.2147 14.6186 31.1293C14.4891 30.6114 14.3796 30.0936 14.28 29.5658C14.1904 29.0779 14.1206 28.58 14.0609 28.0821C14.0011 27.614 13.9514 27.146 13.9215 26.678C13.8816 26.0605 13.8518 25.4531 13.8219 24.8357C13.8418 24.8456 13.8617 24.8357 13.8816 24.8357Z" fill="#436400"/>
</svg>
