<svg width="69" height="59" viewBox="0 0 69 59" fill="none" xmlns="http://www.w3.org/2000/svg">
<rect x="28.0273" y="6.79999" width="40" height="52" rx="6" fill="#E6F1D2"/>
<path d="M39.8974 21.4653C40.0543 21.2889 40.8972 20.3284 41.0442 20.1519C41.5539 19.5246 42.0832 19.3286 42.9359 19.3678C49.5421 19.6422 54.4037 13.3301 52.5414 6.98848C52.2768 6.08674 51.6103 5.91032 50.934 6.55722C49.5715 7.87062 48.2091 9.19382 46.8369 10.4974C45.9744 11.3208 45.0334 11.3306 44.1415 10.5268C43.573 10.0172 43.0045 9.49767 42.436 8.97819C41.4657 8.07645 41.3971 7.18451 42.2302 6.14555C43.377 4.70473 44.5336 3.26391 45.6901 1.82308C46.3174 1.04876 46.0626 0.392061 45.0726 0.225435C44.5924 0.12742 44.1023 0.0686106 43.622 0C43.3574 0 43.1025 0 42.8379 0C42.5438 0.137221 42.2302 0.0784121 41.9263 0.12742C36.3395 0.980152 32.7521 6.03774 33.8009 11.6148C33.8597 11.9088 33.7911 12.1049 33.595 12.3107C32.9481 12.9968 32.2914 13.6829 31.6837 14.418C31.3701 14.8003 31.1839 14.7611 30.8604 14.4376C29.2628 12.8596 27.3319 12.1637 25.0873 12.2225C23.6171 12.2617 22.1469 12.2519 20.6766 12.2715C20.4316 12.2715 20.2454 12.2127 20.0689 12.0461C18.9908 11.0463 17.9028 10.0564 16.805 9.07621C16.5894 8.88018 16.5306 8.74295 16.7756 8.54692C16.8736 8.46851 16.952 8.3607 17.0403 8.26268C17.5107 7.7236 17.5009 7.30213 16.9815 6.82186C16.0699 5.97893 15.1486 5.1458 14.2272 4.31267C13.7665 3.901 13.2765 3.8814 12.9334 4.25386C12.5904 4.62632 12.6492 5.12619 13.1 5.53786C13.7469 6.13575 14.3938 6.74344 15.0604 7.31193C15.3348 7.54717 15.2956 7.68439 15.08 7.92943C13.8548 9.24283 12.6492 10.5758 11.4436 11.9088C8.9932 14.6043 6.53302 17.2899 4.09244 19.9853C3.8474 20.2597 3.71018 20.2793 3.45534 20.0147C3.14169 19.6814 2.80843 19.3678 2.44578 19.0934C2.08312 18.8189 2.06352 18.6327 2.39677 18.27C5.03338 15.4178 7.64059 12.5361 10.2674 9.6643C10.4242 9.49767 10.6105 9.34085 10.6693 9.11541C10.7771 8.71355 10.6791 8.3705 10.3164 8.13526C9.94395 7.90002 9.52248 7.99804 9.15003 8.4097C6.21937 11.6148 3.29851 14.8101 0.387456 18.0054C-0.141827 18.5837 -0.132025 18.9757 0.436464 19.505C1.299 20.2989 2.17133 21.0929 3.04367 21.8868C3.71018 22.4945 4.07283 22.4749 4.69033 21.8084C4.75894 21.7398 4.83735 21.6712 4.88636 21.5927C5.03338 21.3673 5.1608 21.3967 5.34703 21.5731C6.4252 22.5827 7.54257 23.553 8.52273 24.69C9.89494 26.2681 10.8751 28.101 11.9337 29.8848C12.0807 30.1397 12.2571 30.3749 12.4727 30.5709C15.4034 33.2369 18.3439 35.903 21.2647 38.5984C21.99 39.2649 22.7153 39.853 23.7249 40C23.8523 40 23.9895 40 24.117 40C24.411 39.9216 24.7247 39.8628 25.0089 39.755C25.9008 39.4119 26.4595 38.7356 26.7928 37.8535C26.8614 37.8927 26.9104 37.9123 26.9496 37.9319C29.0667 39.1571 31.3211 38.0005 31.5661 35.5599C31.5857 35.3247 31.6739 35.2659 31.8798 35.2267C33.448 34.9032 34.2714 34.0211 34.4576 32.4528C34.487 32.247 34.487 32.1 34.7614 32.0608C36.016 31.8745 36.859 31.1688 37.2216 29.9632C37.5941 28.7185 37.202 27.6501 36.2415 26.7875C35.9572 26.5327 35.673 26.2681 35.3495 25.974C35.4965 25.9152 35.5652 25.8858 35.6436 25.8564C37.9469 24.9449 38.6428 22.3377 37.153 20.2597C36.6825 19.603 36.0944 19.0542 35.4671 18.5543C34.5458 17.8192 33.7323 16.9762 32.8305 16.2215C32.5757 16.0059 32.5953 15.8785 32.8109 15.653C33.6048 14.8101 34.3596 13.928 35.1731 13.0948C35.5848 12.6734 35.6828 12.2617 35.5456 11.6834C34.3988 6.99828 37.3098 2.5974 42.0342 1.81328C42.5144 1.73487 43.0143 1.68586 43.524 1.75447C43.475 1.85249 43.475 1.88189 43.4554 1.9113C42.5634 3.03847 41.6519 4.15584 40.7698 5.28302C39.5936 6.78265 39.7504 8.75276 41.1422 10.0564C41.7597 10.6346 42.3968 11.2031 43.0241 11.7716C44.563 13.1634 46.5233 13.1242 48.0327 11.6834C48.9638 10.7915 49.8852 9.88973 50.8163 8.9978C50.9144 8.89978 50.983 8.75276 51.1888 8.77236C51.2084 8.96839 51.2378 9.15462 51.2476 9.35065C51.4632 14.516 46.9741 18.4759 41.8773 17.6133C41.5343 17.5545 41.1912 17.5251 40.9658 17.7996C40.4659 18.4073 39.8876 19.0247 39.3976 19.6128C39.3387 19.6814 38.8095 20.2989 38.5154 20.691M24.8717 37.8535C24.3816 38.3827 23.5975 38.422 23.029 37.9123C21.7744 36.7949 20.5394 35.6579 19.3044 34.5112C18.8633 34.0995 18.7457 33.5506 18.9516 33.0409C19.1476 32.5704 19.6279 32.2372 20.1375 32.2372C20.5002 32.2274 20.804 32.3646 21.0687 32.6097C22.3037 33.727 23.5387 34.8444 24.7541 35.9716C25.3422 36.5107 25.3716 37.3144 24.8717 37.8535ZM29.1353 36.6185C28.6061 36.8635 28.116 36.7557 27.6847 36.3636C26.6556 35.4325 25.6362 34.4915 24.607 33.5604C23.9797 32.9919 23.3524 32.4234 22.7251 31.8451C22.0782 31.2472 22.0096 30.4729 22.5389 29.8946C23.0682 29.3261 23.8523 29.3359 24.4992 29.924C26.1165 31.3943 27.7337 32.8743 29.351 34.3445C29.6842 34.6484 29.8999 34.9816 29.8999 35.5207C29.8705 35.9912 29.6254 36.393 29.1353 36.6185ZM32.4483 33.1389C31.9582 33.6878 31.1545 33.727 30.5664 33.1879C28.8805 31.6687 27.2044 30.1397 25.5382 28.6008C25.0873 28.1794 24.9697 27.6501 25.1755 27.1306C25.3814 26.6209 25.8616 26.2975 26.2929 26.3073C26.7536 26.3269 27.0476 26.4543 27.3123 26.6993C28.9785 28.2186 30.6448 29.728 32.3012 31.257C32.8893 31.7961 32.9383 32.5999 32.4483 33.1389ZM35.3397 29.973C34.8594 30.5219 34.0459 30.5611 33.4578 30.0319C31.772 28.5126 30.0959 26.9836 28.4296 25.4447C27.9592 25.0135 27.8415 24.445 28.0866 23.9255C28.3218 23.4158 28.7335 23.1708 29.2628 23.1414C29.6548 23.1512 29.9587 23.2982 30.2135 23.5334C31.8798 25.0527 33.546 26.5621 35.2025 28.0912C35.7906 28.6498 35.8396 29.4144 35.3397 29.973ZM34.389 19.9069C34.8398 20.3382 35.3299 20.7302 35.7612 21.1713C36.3199 21.7496 36.4669 23.1218 35.771 23.8079C35.0457 24.5234 33.9381 24.6312 33.154 23.9549C32.1934 23.1218 31.2623 22.2593 30.3213 21.3967C29.2236 20.397 28.1454 19.3776 27.0476 18.3778C26.6066 17.976 26.2145 17.9956 25.695 18.368C24.3326 19.3482 22.9016 19.6716 21.3235 18.8875C21.1961 18.8189 21.0785 18.7405 20.9707 18.6523C20.5394 18.2798 20.0199 18.2308 19.7847 18.5053C19.3044 19.0738 19.324 19.4462 19.9121 19.9069C20.6962 20.5244 21.5882 20.887 22.5879 20.9654C23.8033 21.0733 24.9403 20.7792 25.9989 20.1813C26.2243 20.0539 26.3419 20.0245 26.5673 20.2205C27.0182 20.6126 27.4299 21.0439 27.8513 21.4653C27.9886 21.6025 27.9984 21.681 27.8023 21.7888C27.5377 21.9358 27.3613 22.2004 27.1162 22.3867C26.7536 22.6709 26.4399 23.1512 26.4203 23.6413C26.3811 24.3862 26.0479 24.641 25.3422 24.8567C24.1562 25.2291 23.4995 26.1701 23.4211 27.4345C23.4015 27.7285 23.3132 27.8069 23.029 27.8461C21.7646 28.0323 20.8433 28.9243 20.5688 30.1887C20.5296 30.3651 20.5688 30.5807 20.2552 30.5709C18.7947 30.5513 17.844 31.2962 17.2657 32.6685C16.7266 32.1784 16.2365 31.6785 15.6876 31.2472C14.0998 29.9926 12.9138 28.444 11.9533 26.6601C10.6399 24.249 8.74816 22.3083 6.67024 20.5342C6.29778 20.2107 6.25857 20.0343 6.61143 19.6422C9.44407 16.5744 12.2571 13.4771 15.0702 10.3798C15.3152 10.1152 15.4524 10.0564 15.7465 10.3308C16.8932 11.4188 18.0792 12.4675 19.2456 13.5457C19.5298 13.8103 19.8337 13.9182 20.216 13.9182C21.9116 13.8986 23.6171 13.9084 25.3127 13.8691C26.9496 13.8397 28.3414 14.369 29.547 15.4668C31.1643 16.9664 32.8207 18.3975 34.389 19.9069Z" fill="#436400"/>
</svg>
