<svg width="58" height="61" viewBox="0 0 58 61" fill="none" xmlns="http://www.w3.org/2000/svg">
<rect x="17.0273" y="9" width="40" height="52" rx="6" fill="#E6F1D2"/>
<path d="M1.41676 24.8088C1.41676 29.2762 1.45812 33.7436 1.39607 38.2111C1.37539 40.2793 3.06102 41.8926 5.05689 41.8822C9.43126 41.8512 13.8056 41.8719 18.18 41.8719C18.7591 41.8719 18.7591 41.8719 18.7591 42.4407C18.7591 43.268 18.7591 43.268 17.9318 43.268C13.6298 43.268 9.33819 43.268 5.03621 43.268C2.49225 43.268 0.496382 41.6134 0.0620478 39.1211C0.0206826 38.8833 0.0103413 38.6351 0.0103413 38.3869C0.0103413 28.9039 0.0103413 19.4106 0 9.92764C0 9.66911 0.0827304 9.50365 0.258532 9.32785C3.29887 6.28751 6.31853 3.26785 9.33819 0.248191C9.50365 0.0723891 9.66911 0 9.90696 0C16.5771 0.0103413 23.2576 0 29.9277 0.0103413C32.6681 0.0103413 34.8398 2.17167 34.8502 4.92246C34.8708 10.8377 34.8502 16.7426 34.8605 22.6578C34.8605 22.9887 34.7571 23.0714 34.4365 23.0611C33.4541 23.0507 33.4541 23.0611 33.4541 22.0683C33.4541 16.3909 33.4541 10.7136 33.4541 5.02587C33.4541 3.18512 32.3786 1.85109 30.5999 1.44778C30.3103 1.38573 30.0104 1.38573 29.7105 1.38573C23.4334 1.38573 17.1665 1.38573 10.8894 1.38573C10.4033 1.38573 10.4137 1.38573 10.4964 1.86143C10.7963 3.49536 10.8377 5.11894 10.331 6.72184C9.71047 8.69703 8.27304 9.84491 6.4116 10.5378C4.90177 11.0962 3.35058 11.0962 1.80973 10.7032C1.4788 10.6205 1.40642 10.6619 1.40642 11.0135C1.41676 15.6154 1.41676 20.2069 1.41676 24.8088Z" fill="#436400"/>
<path d="M17.4133 21.4686C14.0317 21.4686 10.6501 21.4583 7.2685 21.479C6.87553 21.479 6.72041 21.3859 6.78246 20.9826C6.80314 20.8792 6.7928 20.7757 6.78246 20.6723C6.77212 20.4862 6.83417 20.3724 7.04099 20.4035C7.10304 20.4138 7.16509 20.4035 7.23748 20.4035C14.0214 20.4035 20.8156 20.4035 27.5995 20.3931C27.9821 20.3931 28.0752 20.4965 28.0545 20.8688C28.0235 21.4686 28.0442 21.4686 27.4961 21.4686C24.1558 21.4583 20.7846 21.4583 17.4133 21.4686Z" fill="#436400"/>
<path d="M17.4247 12.8235C14.0224 12.8235 10.6098 12.8235 7.20749 12.8235C7.07305 12.8235 6.84555 12.9165 6.81452 12.6994C6.77316 12.4098 6.72145 12.0996 6.85589 11.8307C6.88691 11.7687 7.09374 11.7893 7.21783 11.7893C11.0234 11.7893 14.829 11.7893 18.6346 11.7893C21.6336 11.7893 24.6222 11.7997 27.6212 11.779C27.9625 11.779 28.1279 11.8617 28.0659 12.2237C28.0555 12.2961 28.0555 12.3788 28.0659 12.4512C28.1176 12.7614 27.9728 12.8338 27.6833 12.8338C24.2603 12.8235 20.8477 12.8235 17.4247 12.8235Z" fill="#436400"/>
<path d="M17.4553 17.1356C14.0531 17.1356 10.6404 17.1356 7.23814 17.1459C6.89687 17.1459 6.72107 17.0839 6.79346 16.7116C6.81414 16.6082 6.8038 16.5048 6.79346 16.4013C6.77278 16.1945 6.85551 16.0808 7.08302 16.1014C7.2278 16.1118 7.36223 16.1014 7.50701 16.1014C14.1978 16.1014 20.899 16.1014 27.5898 16.1014C27.7449 16.1014 28.0035 16.0084 28.0345 16.1945C28.0965 16.4737 28.0758 16.784 28.0241 17.0735C28.0035 17.1976 27.7966 17.1356 27.6725 17.1356C24.2702 17.1356 20.868 17.1356 17.4553 17.1356Z" fill="#436400"/>
<path d="M20.87 24.7364C20.5908 25.0466 20.3012 25.3568 20.022 25.6671C19.9186 25.7808 19.7841 25.7498 19.6601 25.7498C15.5029 25.7498 11.3457 25.7498 7.18845 25.7601C6.86787 25.7601 6.76446 25.6774 6.7748 25.3568C6.79548 24.7364 6.7748 24.7364 7.49869 24.7364C11.842 24.7364 16.1957 24.726 20.5391 24.726C20.6735 24.726 20.7976 24.6846 20.87 24.7364Z" fill="#436400"/>
<path d="M11.9348 34.4051C10.3422 34.4051 8.75999 34.3947 7.16743 34.4154C6.84685 34.4154 6.77446 34.312 6.7848 34.0225C6.79514 33.3503 6.7848 33.3503 7.46733 33.3503C10.4973 33.3503 13.5377 33.3503 16.5677 33.3399C16.8779 33.3399 17.0227 33.3709 17.0227 33.7432C17.0123 34.4051 17.033 34.4051 16.3505 34.4051C14.882 34.4051 13.4032 34.4051 11.9348 34.4051Z" fill="#436400"/>
<path d="M40.1051 28.5254L40.1051 28.5254C40.3796 28.6199 40.6198 28.7958 40.7903 29.0316C40.9605 29.267 41.0521 29.5497 41.05 29.8407M40.1051 28.5254L40.55 29.8386M40.1051 28.5254L40.1 28.5237L31.2139 25.571M40.1051 28.5254L31.2139 25.571M41.05 29.8407C41.05 29.8415 41.05 29.8422 41.0499 29.843L40.55 29.8386M41.05 29.8407V29.8386H40.55M41.05 29.8407V36.2769V36.279C41.0418 38.1769 40.5757 40.0459 39.6897 41.7376C38.8039 43.4287 37.5232 44.8952 35.9507 46.0216L35.9519 46.0208L35.6584 45.616M40.55 29.8386V36.2769C40.5421 38.094 40.0959 39.8844 39.2467 41.5056C38.3976 43.1268 37.1689 44.5342 35.6584 45.616M35.6584 45.616L35.9495 46.0225L31.4546 49.2812L31.453 49.2824C31.2553 49.4245 31.0175 49.5 30.775 49.5C30.5325 49.5 30.2948 49.4245 30.097 49.2824L30.0955 49.2812L25.6005 46.0225L25.8916 45.616M35.6584 45.616L31.1611 48.8764C31.0495 48.9567 30.9141 49 30.775 49C30.6359 49 30.5005 48.9567 30.3889 48.8764L25.8916 45.616M31.2139 25.571C30.9294 25.4763 30.6209 25.4763 30.3363 25.571C30.3363 25.571 30.3362 25.571 30.3361 25.571L21.45 28.5237L21.45 28.5237L21.4449 28.5254C21.1704 28.6199 20.9302 28.7958 20.7597 29.0316C20.5896 29.2669 20.498 29.5496 20.5 29.8405M31.2139 25.571L20.5 29.8405M20.5 29.8405L20.5 36.2769L20.5 36.279C20.5082 38.1769 20.9743 40.0459 21.8603 41.7376C22.7461 43.4287 24.0268 44.8953 25.5994 46.0217L25.5981 46.0208L25.8916 45.616M20.5 29.8405L21 36.2769C21.0079 38.094 21.4541 39.8844 22.3033 41.5056C23.1524 43.1268 24.3811 44.5342 25.8916 45.616" stroke="#436400"/>
<path d="M37.1 33.0695L35.9392 31.75L30.2 38.311L27.9107 35.7086L26.75 37.0281L30.2 40.95L37.1 33.0695Z" fill="#436400"/>
</svg>
