<svg width="224" height="50" viewBox="0 0 224 50" fill="none" xmlns="http://www.w3.org/2000/svg">
<path d="M19.8271 0.526316V1.81955H18.1053C18.2105 2.88221 18.4286 4.44612 18.7594 6.51128C19.0952 8.57143 19.4987 10.7343 19.9699 13C20.4411 15.2657 20.8997 17.1253 21.3459 18.5789C21.797 20.0326 22.183 20.7594 22.5038 20.7594C22.614 20.7594 22.7669 20.6992 22.9624 20.5789C23.1579 20.4536 23.4787 20.391 23.9248 20.391C24.2155 20.391 24.4361 20.4987 24.5865 20.7143C24.7419 20.9298 24.8195 21.1704 24.8195 21.4361C24.8195 21.6266 24.6842 22.0576 24.4135 22.7293C24.1479 23.411 23.9323 24.1704 23.7669 25.0075C23.5915 26.0401 23.4486 26.7243 23.3383 27.0602C23.2331 27.396 22.9875 27.5639 22.6015 27.5639C22.2556 27.5639 22.0226 27.4361 21.9023 27.1805C21.782 26.9298 21.6967 26.6065 21.6466 26.2105C21.3759 24.401 20.792 23.2607 19.8947 22.7895C18.9975 22.3183 17.8346 22.0827 16.406 22.0827H13.2707C11.7669 22.0827 10.6391 22.1779 9.88722 22.3684C9.14035 22.5639 8.59148 22.8972 8.2406 23.3684C7.88972 23.8396 7.59398 24.5514 7.35338 25.5038C7.15288 26.2607 6.98747 26.792 6.85714 27.0977C6.72682 27.4085 6.4812 27.5639 6.1203 27.5639C5.79449 27.5639 5.58145 27.4336 5.4812 27.1729C5.38095 26.9123 5.29825 26.5614 5.23308 26.1203C5.05263 24.6115 4.74436 23.3784 4.30827 22.4211C4.10276 21.9248 4 21.5464 4 21.2857C4 20.9699 4.12531 20.7419 4.37594 20.6015C4.62657 20.4612 4.90226 20.391 5.20301 20.391C5.36341 20.391 5.5589 20.411 5.78947 20.4511C6.02005 20.4912 6.19298 20.5113 6.30827 20.5113C6.74436 20.5113 7.01504 20.3383 7.1203 19.9925C7.23058 19.6466 7.34085 19.0602 7.45113 18.2331C7.61153 16.9499 7.90226 15.6692 8.32331 14.391C8.74937 13.1128 9.23058 11.9198 9.76692 10.812C10.3033 9.70426 10.8647 8.65664 11.4511 7.66917C11.9825 6.77193 12.396 5.97995 12.6917 5.29323C12.9925 4.6015 13.1429 3.90476 13.1429 3.20301C13.1429 2.2807 12.5388 1.81955 11.3308 1.81955H9.66165V0.526316H19.8271ZM11.7594 20.7895H17.1203C16.9649 20.2231 16.8471 19.782 16.7669 19.4662C16.6867 19.1504 16.599 18.8221 16.5038 18.4812C15.6516 15.3584 14.9023 12.0526 14.2556 8.56391C14.1855 8.11779 14.0827 7.55388 13.9474 6.87218C13.2607 7.74436 12.6241 8.73684 12.0376 9.84962C11.4561 10.9624 10.9499 12.0927 10.5188 13.2406C10.0877 14.3835 9.75439 15.4486 9.5188 16.4361C9.28822 17.4236 9.17293 18.208 9.17293 18.7895C9.17293 19.3609 9.25564 19.7895 9.42105 20.0752C9.59148 20.3559 9.85464 20.5464 10.2105 20.6466C10.5714 20.7419 11.0877 20.7895 11.7594 20.7895Z" fill="#7AB900"/>
<path d="M34.8057 20.7895H36.8057C36.2794 19.1955 35.8107 17.5714 35.3997 15.9173C34.9937 14.2581 34.6603 12.787 34.3997 11.5038C34.139 10.2155 33.8959 8.95739 33.6704 7.72932C33.4749 6.6416 33.2994 5.78947 33.1441 5.17293C32.5927 5.81454 32.0087 6.73935 31.3922 7.94737C29.8082 10.8947 29.0162 13.3684 29.0162 15.3684C29.0162 16.3208 29.0488 17.015 29.114 17.4511C29.1842 17.8822 29.2719 18.1579 29.3771 18.2782C29.4874 18.3935 29.6253 18.4511 29.7907 18.4511H29.9711C30.2117 18.4511 30.3947 18.6516 30.52 19.0526C30.6453 19.4536 30.708 20.3208 30.708 21.6541C30.708 21.9499 30.5651 22.1654 30.2794 22.3008C30.0839 22.381 29.8583 22.4211 29.6027 22.4211C29.3571 22.4211 29.0087 22.381 28.5576 22.3008C28.3721 22.2807 28.0939 22.2707 27.723 22.2707C27.2919 22.2707 26.9636 22.2807 26.738 22.3008C26.1566 22.3008 25.738 22.2306 25.4824 22.0902C25.2318 21.9499 25.0864 21.6591 25.0463 21.218V20.1429C25.0864 19.391 25.1867 18.6441 25.3471 17.9023C25.5125 17.1604 25.7932 16.3008 26.1892 15.3233C26.5902 14.3409 27.1741 13.1028 27.9411 11.609C28.5025 10.5213 28.9761 9.60401 29.3621 8.85714C29.7481 8.10526 29.9511 7.70927 29.9711 7.66917C30.5927 6.53634 31.1115 5.53885 31.5275 4.67669C31.9486 3.81454 32.1591 3.11779 32.1591 2.58647C32.1591 2.25063 32.0714 2.0401 31.8959 1.95489C31.7205 1.86466 31.4598 1.81955 31.114 1.81955H28.9862V0.526316H39.1516V1.81955H37.2719C37.6077 4.33083 38.124 7.13283 38.8208 10.2256C39.5225 13.3133 40.2593 16.1253 41.0313 18.6617C41.2418 19.3333 41.4348 20.0426 41.6102 20.7895H43.8583V22.0827H34.8057V20.7895Z" fill="#7AB900"/>
<path d="M64.0325 0.526316V1.81955H61.4761V20.7895H64.0325V22.0827H55.1979V20.7895H56.7092V11.3684C55.5914 11.3684 54.5538 11.6416 53.5964 12.188C52.639 12.7343 51.8545 13.6617 51.243 14.9699C50.6365 16.2782 50.3332 18.0025 50.3332 20.1429V20.7895H51.5287V22.0827H43.5889V20.7895H45.0024C45.0676 19.1203 45.3783 17.6692 45.9347 16.4361C46.4911 15.203 47.2179 14.198 48.1152 13.4211C49.0174 12.6391 50.0275 12.0501 51.1453 11.6541C52.2631 11.2581 53.4184 11.0376 54.6114 10.9925V10.5338C51.4485 10.1178 49.1277 9.22556 47.649 7.85714C46.1703 6.48872 45.431 4.96742 45.431 3.29323C45.431 2.43108 45.6164 1.802 45.9874 1.40602C46.3633 1.00501 46.857 0.759398 47.4686 0.669173C48.0851 0.573935 48.9874 0.526316 50.1753 0.526316H64.0325ZM56.7092 9.08271V1.81955H53.1979C51.634 1.81955 50.852 2.44612 50.852 3.69925C50.852 4.57644 51.1001 5.42857 51.5964 6.25564C52.0926 7.07769 52.7869 7.74937 53.6791 8.27068C54.5713 8.79198 55.5813 9.06266 56.7092 9.08271Z" fill="#7AB900"/>
<path d="M65.0713 14.5038H74.0036V16.2932H65.0713V14.5038Z" fill="#7AB900"/>
<path d="M75.065 0.526316H86.0574C87.0349 0.526316 87.6665 0.503759 87.9522 0.458647C88.2379 0.413534 88.3933 0.348371 88.4183 0.263158C88.4434 0.172932 88.5687 0.107769 88.7943 0.0676692C89.0249 0.0225564 89.6213 0 90.5838 0C90.9046 0 91.1527 0.110276 91.3281 0.330827C91.5086 0.551378 91.5988 0.842105 91.5988 1.20301C91.5988 1.32832 91.5712 1.47619 91.5161 1.64662C91.466 1.81203 91.3858 2.02506 91.2755 2.28571C91.1652 2.54135 91.0775 2.76441 91.0123 2.95489C90.7366 3.69173 90.5637 4.43108 90.4935 5.17293C90.4234 5.89975 90.3406 6.41604 90.2454 6.7218C90.1502 7.02757 89.9146 7.18045 89.5386 7.18045C89.2279 7.18045 89.0173 7.08521 88.9071 6.89474C88.7968 6.70426 88.679 6.36842 88.5537 5.88722C88.2329 4.70426 87.8494 3.81704 87.4033 3.22556C86.9572 2.62907 86.491 2.24561 86.0048 2.07519C85.5236 1.90476 84.9672 1.81955 84.3356 1.81955H82.3958V9.54887C83.0725 10.1955 84.08 10.7644 85.4183 11.2556C86.7567 11.7419 87.9747 11.985 89.0725 11.985C89.273 11.985 89.694 11.9624 90.3356 11.9173C91.0725 11.9173 91.5863 12.0426 91.877 12.2932C92.1677 12.5439 92.3131 13.0877 92.3131 13.9248V19.9248C92.3131 20.4762 92.2755 20.8947 92.2003 21.1805C92.1301 21.4662 91.9572 21.6892 91.6815 21.8496C91.4058 22.005 90.9672 22.0827 90.3657 22.0827H75.065V20.7895H77.6213V1.81955H75.065V0.526316ZM82.3958 20.7895H86.1777C86.689 20.7895 87.0424 20.6591 87.2379 20.3985C87.4384 20.1378 87.5386 19.5815 87.5386 18.7293V15.2481C87.5386 14.787 87.4685 14.4511 87.3281 14.2406C87.1928 14.0301 86.8193 13.7594 86.2078 13.4286C85.1301 12.8371 84.3482 12.3784 83.8619 12.0526C83.3807 11.7268 82.892 11.2832 82.3958 10.7218V20.7895Z" fill="#7AB900"/>
<path d="M100.765 1.38346H98.397V0.0902256H107.976V1.38346H105.54L111.209 20.7895H113.337V22.0827H104.096V20.7895H106.435L104.126 12.812C103.916 13.8346 103.577 14.9223 103.111 16.0752C102.65 17.2231 102.096 18.2857 101.45 19.2632C100.803 20.2356 100.081 21.0201 99.2842 21.6165C98.4922 22.213 97.6727 22.5113 96.8256 22.5113C95.8732 22.5113 95.0586 22.2055 94.382 21.594C93.7103 20.9774 93.3744 20.0526 93.3744 18.8195C93.3744 17.7268 93.615 16.5263 94.0962 15.218C94.5774 13.9048 95.1965 12.584 95.9534 11.2556C96.7103 9.92732 97.5875 8.50627 98.585 6.99248C98.6451 6.89724 98.9534 6.43358 99.5098 5.6015C100.066 4.76441 100.43 4.13033 100.6 3.69925C100.775 3.26316 100.863 2.7995 100.863 2.30827C100.863 2.02256 100.831 1.71429 100.765 1.38346ZM103.232 9.88722L101.848 4.99248C100.695 6.58647 99.7103 8.13534 98.8932 9.6391C98.3068 10.6917 97.8231 11.6667 97.4421 12.5639C97.0611 13.4561 96.8155 14.411 96.7053 15.4286V16.2331C96.8606 17.2356 97.4446 17.7368 98.4571 17.7368C99.2341 17.7368 99.9659 17.2782 100.653 16.3609C101.339 15.4436 101.911 14.3659 102.367 13.1278C102.823 11.8847 103.111 10.8045 103.232 9.88722Z" fill="#7AB900"/>
<path d="M120.864 9.19599V20.7895H122.985V22.0827H113.534V20.7895H116.09V1.81955H113.534V0.526316H122.985V1.81955H120.864V7.13584L127.669 7.1359V1.81955H125.541V0.526316H135V1.81955H132.443V20.7895H135V22.0827H125.541V20.7895H127.669V9.1993L120.864 9.19599Z" fill="#7AB900"/>
<path d="M150.317 7.14286L143.512 15.4586V20.7895H145.632V22.0827H136.181V20.7895H138.738V1.81955H136.181V0.526316H145.632V1.81955H143.512V13.4286L150.317 5.08271V1.81955H148.189V0.526316H157.648V1.81955H155.091V20.7895H157.648V22.0827H148.189V20.7895H150.317V7.14286Z" fill="#7AB900"/>
<path d="M159.566 20.1429C159.566 19.5313 159.591 19.0952 159.641 18.8346C159.691 18.5739 159.761 18.4135 159.852 18.3534C159.947 18.2932 160.097 18.2632 160.303 18.2632C160.574 18.2832 160.924 18.2932 161.355 18.2932C161.636 18.2932 162.067 18.2732 162.649 18.2331H162.957C163.223 18.2732 163.355 18.4261 163.355 18.6917C163.355 18.8822 163.35 19.1378 163.34 19.4586C163.33 19.7794 163.325 20.0175 163.325 20.1729C163.325 20.3133 163.33 20.5414 163.34 20.8571C163.35 21.1729 163.355 21.4286 163.355 21.6241C163.355 21.8897 163.223 22.0426 162.957 22.0827H162.649C162.067 22.0426 161.636 22.0226 161.355 22.0226C160.924 22.0226 160.574 22.0326 160.303 22.0526C159.937 22.0526 159.744 21.99 159.724 21.8647C159.619 21.6792 159.566 21.1053 159.566 20.1429Z" fill="#7AB900"/>
<path d="M172.597 13.8571V20.7895H175.154V22.0827H165.266V20.7895H167.823V9.5188C167.823 7.91479 167.853 6.35338 167.913 4.83459C168.52 3.3609 169.495 2.20301 170.838 1.3609C172.186 0.513784 173.685 0.0902256 175.334 0.0902256C176.963 0.0902256 178.364 0.360902 179.537 0.902256C180.71 1.44361 181.6 2.18546 182.206 3.12782C182.818 4.07018 183.124 5.11278 183.124 6.25564C183.124 7.36842 182.898 8.38095 182.447 9.29323C181.996 10.2055 181.372 10.9223 180.575 11.4436C179.783 11.9649 178.898 12.2256 177.921 12.2256C177.419 12.2256 177.021 12.1704 176.725 12.0602C176.429 11.9449 175.986 11.7343 175.394 11.4286C175.078 11.2682 174.853 11.1554 174.718 11.0902L172.597 13.8571ZM172.597 12.015L174.567 9.5188C174.758 9.66917 174.966 9.79449 175.191 9.89474C175.422 9.98997 175.592 10.0376 175.703 10.0376C176.189 10.0376 176.645 9.76942 177.071 9.23308C177.497 8.69173 177.71 7.67669 177.71 6.18797C177.71 4.70426 177.527 3.53383 177.161 2.67669C176.8 1.81454 176.119 1.38346 175.116 1.38346C174.364 1.38346 173.803 1.65163 173.432 2.18797C173.066 2.72431 172.835 3.38346 172.74 4.16541C172.645 4.94737 172.597 5.92982 172.597 7.11278V12.015Z" fill="#7AB900"/>
<path d="M196.433 22.0827H194.832C194.756 23.0602 194.706 23.8496 194.681 24.4511V25.8421C194.701 26.8997 194.824 27.9574 195.05 29.015V29.782L192.185 30C192.185 28.1153 192.328 26.1429 192.614 24.0827C192.664 23.6366 192.746 22.9699 192.862 22.0827H190.057L185.162 1.81955H183.899V0.526316H192.185V1.81955H190.057L193.907 18.2331C195.295 11.792 196.446 7.1203 197.358 4.21804C197.619 3.42606 197.889 2.74687 198.17 2.18045C198.451 1.60902 198.849 1.11779 199.365 0.706767C199.887 0.295739 200.541 0.0902256 201.328 0.0902256C201.744 0.0902256 202.248 0.170426 202.839 0.330827C203.431 0.491228 203.812 0.699248 203.982 0.954887C203.937 1.23058 203.844 1.53885 203.704 1.8797C203.558 2.19048 203.461 2.54135 203.411 2.93233C203.36 3.32331 203.335 4.07018 203.335 5.17293H202.869C202.749 5.11278 202.666 5.07268 202.621 5.05263C202.576 5.03258 202.473 4.97995 202.313 4.89474C201.736 4.58897 201.315 4.43609 201.05 4.43609C200.313 4.43609 199.654 4.86466 199.072 5.7218C198.496 6.57895 198.01 7.63409 197.614 8.88722C197.218 10.1353 196.874 11.4612 196.583 12.8647C196.298 14.2682 196.072 15.381 195.907 16.203C195.461 18.3233 195.122 19.8521 194.892 20.7895H196.433V22.0827Z" fill="#7AB900"/>
<path d="M223.585 8.16541H215.517V6.87218H216.84C216.84 4.81203 216.517 3.38346 215.87 2.58647C215.229 1.78446 214.442 1.38346 213.509 1.38346C212.878 1.38346 212.284 1.58396 211.728 1.98496C211.171 2.38095 210.712 3.07018 210.352 4.05263C209.996 5.03509 209.818 6.35338 209.818 8.00752C209.818 9.22556 209.905 10.386 210.081 11.4887C210.256 12.5915 210.537 13.9574 210.923 15.5865C211.374 17.3759 211.6 18.8647 211.6 20.0526C211.6 20.188 211.587 20.3358 211.562 20.4962C211.537 20.6566 211.502 20.817 211.457 20.9774C211.417 21.1378 211.384 21.2607 211.359 21.3459C211.334 21.4461 211.309 21.5313 211.284 21.6015C211.264 21.6667 211.246 21.7243 211.231 21.7744C211.427 21.8997 211.675 21.9624 211.976 21.9624C212.717 21.9624 213.472 21.599 214.239 20.8722C215.006 20.1404 215.635 19.188 216.126 18.015C216.622 16.8371 216.87 15.6266 216.87 14.3835C216.87 14.0526 216.86 13.807 216.84 13.6466H215.517V12.3534H223.585V13.6466H222.322C222.261 14.9298 221.915 16.1278 221.284 17.2406C220.652 18.3484 219.823 19.3208 218.795 20.1579C217.768 20.99 216.645 21.6316 215.427 22.0827C214.214 22.5338 213.031 22.7594 211.878 22.7594C211.006 22.7594 210.256 22.6366 209.63 22.391V21.9624C209.63 21.4261 209.592 20.9599 209.517 20.5639C209.442 20.1679 209.236 19.6591 208.9 19.0376C208.57 18.411 208.043 17.619 207.322 16.6617C206.474 15.5789 205.835 14.6266 205.404 13.8045C204.973 12.9774 204.697 12.2607 204.577 11.6541C204.457 11.0476 204.397 10.3759 204.397 9.6391C204.397 7.70927 204.82 6.02005 205.667 4.57143C206.52 3.12281 207.665 2.01504 209.103 1.24812C210.547 0.47619 212.118 0.0902256 213.818 0.0902256C216.695 0.0902256 218.763 0.804511 220.021 2.23308C221.279 3.65664 222.046 5.20301 222.322 6.87218H223.585V8.16541Z" fill="#7AB900"/>
<path d="M0.54 42.54C0.44 42.55 0.39 42.5 0.39 42.39C0.39 42.09 0.415 41.865 0.465 41.715C0.525 41.555 0.61 41.465 0.72 41.445C1.26 41.365 1.825 41.285 2.415 41.205C3.015 41.125 3.585 41.065 4.125 41.025C4.215 41.015 4.275 41.035 4.305 41.085C4.335 41.125 4.35 41.18 4.35 41.25C4.35 41.55 4.33 41.76 4.29 41.88C4.25 42 4.17 42.07 4.05 42.09C3.52 42.17 2.94 42.255 2.31 42.345C1.68 42.425 1.09 42.49 0.54 42.54ZM5.90109 45.075C5.81109 45.075 5.73609 45.05 5.67609 45C5.62609 44.96 5.60109 44.91 5.60109 44.85C5.60109 44.7 5.71109 44.595 5.93109 44.535C6.27109 44.445 6.51109 44.34 6.65109 44.22C6.80109 44.1 6.87609 43.88 6.87609 43.56V36.735C6.87609 36.415 6.81109 36.185 6.68109 36.045C6.55109 35.895 6.31109 35.785 5.96109 35.715C5.83109 35.685 5.74109 35.645 5.69109 35.595C5.64109 35.535 5.61609 35.47 5.61609 35.4C5.61609 35.34 5.64609 35.29 5.70609 35.25C5.76609 35.2 5.84109 35.175 5.93109 35.175C6.25109 35.175 6.51609 35.185 6.72609 35.205C6.93609 35.225 7.13109 35.245 7.31109 35.265C7.50109 35.275 7.72109 35.28 7.97109 35.28C8.20109 35.28 8.41109 35.27 8.60109 35.25C8.79109 35.22 9.00109 35.195 9.23109 35.175C9.47109 35.155 9.76109 35.145 10.1011 35.145C11.2911 35.145 12.1911 35.315 12.8011 35.655C13.4211 35.985 13.7311 36.56 13.7311 37.38C13.7311 37.69 13.6611 37.985 13.5211 38.265C13.3811 38.535 13.2011 38.76 12.9811 38.94C12.8211 39.08 12.6511 39.195 12.4711 39.285C12.3011 39.375 12.1061 39.45 11.8861 39.51C11.8461 39.52 11.8261 39.545 11.8261 39.585C11.8261 39.625 11.8461 39.65 11.8861 39.66C12.1461 39.72 12.4161 39.8 12.6961 39.9C12.9761 39.99 13.2361 40.125 13.4761 40.305C13.7261 40.485 13.9211 40.72 14.0611 41.01C14.2111 41.29 14.2861 41.65 14.2861 42.09C14.2861 42.65 14.1961 43.095 14.0161 43.425C13.8461 43.745 13.6361 43.99 13.3861 44.16C13.1461 44.33 12.9211 44.47 12.7111 44.58C12.3811 44.74 12.0061 44.86 11.5861 44.94C11.1661 45.02 10.6661 45.06 10.0861 45.06C9.75609 45.06 9.42109 45.05 9.08109 45.03C8.75109 45.01 8.40109 45 8.03109 45C7.82109 45 7.59109 45.005 7.34109 45.015C7.09109 45.025 6.84109 45.035 6.59109 45.045C6.35109 45.065 6.12109 45.075 5.90109 45.075ZM10.1011 44.235C10.4011 44.235 10.6811 44.145 10.9411 43.965C11.2111 43.785 11.4211 43.545 11.5711 43.245C11.7311 42.935 11.8111 42.585 11.8111 42.195C11.8111 41.855 11.7661 41.57 11.6761 41.34C11.5961 41.11 11.4961 40.925 11.3761 40.785C11.2661 40.645 11.1611 40.54 11.0611 40.47C10.9811 40.4 10.8361 40.33 10.6261 40.26C10.4261 40.18 10.1761 40.14 9.87609 40.14C9.70609 40.14 9.54609 40.185 9.39609 40.275C9.25609 40.355 9.18609 40.475 9.18609 40.635V43.275C9.18609 43.605 9.26609 43.85 9.42609 44.01C9.58609 44.16 9.81109 44.235 10.1011 44.235ZM9.78609 39.465C10.0261 39.465 10.2461 39.44 10.4461 39.39C10.6461 39.33 10.8511 39.22 11.0611 39.06C11.1311 38.99 11.2261 38.85 11.3461 38.64C11.4761 38.42 11.5411 38.105 11.5411 37.695C11.5411 37.275 11.4861 36.925 11.3761 36.645C11.2661 36.365 11.0961 36.155 10.8661 36.015C10.6461 35.875 10.3511 35.805 9.98109 35.805C9.70109 35.805 9.49609 35.86 9.36609 35.97C9.24609 36.07 9.18609 36.225 9.18609 36.435V38.94C9.18609 39.14 9.25609 39.28 9.39609 39.36C9.53609 39.43 9.66609 39.465 9.78609 39.465ZM18.5007 45.21C17.9707 45.21 17.4907 45.07 17.0607 44.79C16.6407 44.5 16.3057 44.115 16.0557 43.635C15.8157 43.145 15.6957 42.595 15.6957 41.985C15.6957 41.335 15.8457 40.75 16.1457 40.23C16.4457 39.71 16.8457 39.295 17.3457 38.985C17.8557 38.675 18.4207 38.52 19.0407 38.52C19.8607 38.52 20.5407 38.79 21.0807 39.33C21.1707 39.43 21.2157 39.52 21.2157 39.6C21.2157 39.66 21.1707 39.75 21.0807 39.87C20.9907 39.98 20.8907 40.08 20.7807 40.17C20.6707 40.26 20.5757 40.305 20.4957 40.305C20.4057 40.305 20.3157 40.28 20.2257 40.23C20.1457 40.17 20.0657 40.105 19.9857 40.035C19.7257 39.815 19.4607 39.64 19.1907 39.51C18.9307 39.37 18.7057 39.3 18.5157 39.3C18.1357 39.3 17.8457 39.46 17.6457 39.78C17.4557 40.09 17.3607 40.6 17.3607 41.31C17.3607 41.8 17.4357 42.225 17.5857 42.585C17.7457 42.935 17.9707 43.205 18.2607 43.395C18.5507 43.585 18.9007 43.68 19.3107 43.68C19.6107 43.68 19.8707 43.635 20.0907 43.545C20.3107 43.445 20.5407 43.295 20.7807 43.095C20.8307 43.065 20.8707 43.035 20.9007 43.005C20.9407 42.975 20.9857 42.96 21.0357 42.96C21.1557 42.96 21.2157 43.04 21.2157 43.2C21.2157 43.24 21.2057 43.3 21.1857 43.38C21.1757 43.45 21.1457 43.53 21.0957 43.62C21.0057 43.82 20.8307 44.045 20.5707 44.295C20.3207 44.545 20.0207 44.76 19.6707 44.94C19.3207 45.12 18.9307 45.21 18.5007 45.21ZM25.2091 45.21C24.6691 45.21 24.1841 45.07 23.7541 44.79C23.3341 44.5 22.9991 44.11 22.7491 43.62C22.5091 43.12 22.3891 42.555 22.3891 41.925C22.3891 41.295 22.5341 40.725 22.8241 40.215C23.1141 39.695 23.5091 39.285 24.0091 38.985C24.5091 38.675 25.0591 38.52 25.6591 38.52C26.0891 38.52 26.4741 38.615 26.8141 38.805C27.1541 38.985 27.4241 39.23 27.6241 39.54C27.8341 39.85 27.9391 40.2 27.9391 40.59C27.9391 40.97 27.7841 41.16 27.4741 41.16H24.4741C24.3341 41.16 24.2291 41.2 24.1591 41.28C24.0991 41.36 24.0691 41.495 24.0691 41.685C24.0691 42.065 24.1541 42.415 24.3241 42.735C24.4941 43.045 24.7241 43.29 25.0141 43.47C25.3041 43.65 25.6391 43.74 26.0191 43.74C26.3091 43.74 26.5741 43.685 26.8141 43.575C27.0641 43.465 27.3091 43.315 27.5491 43.125C27.5891 43.095 27.6241 43.07 27.6541 43.05C27.6941 43.02 27.7291 43.005 27.7591 43.005C27.8591 43.005 27.9091 43.07 27.9091 43.2C27.9091 43.31 27.8691 43.46 27.7891 43.65C27.6891 43.9 27.5191 44.15 27.2791 44.4C27.0491 44.64 26.7591 44.835 26.4091 44.985C26.0591 45.135 25.6591 45.21 25.2091 45.21ZM24.4741 40.53H25.3741C25.6541 40.53 25.8491 40.525 25.9591 40.515C26.0691 40.505 26.1691 40.485 26.2591 40.455C26.3091 40.435 26.3491 40.385 26.3791 40.305C26.4091 40.225 26.4241 40.135 26.4241 40.035C26.4241 39.765 26.3291 39.545 26.1391 39.375C25.9591 39.205 25.7341 39.12 25.4641 39.12C25.2541 39.12 25.0541 39.18 24.8641 39.3C24.6841 39.41 24.5341 39.56 24.4141 39.75C24.3041 39.93 24.2541 40.12 24.2641 40.32C24.2641 40.46 24.3341 40.53 24.4741 40.53ZM34.5558 45.21C34.1558 45.21 33.8458 45.11 33.6258 44.91C33.4158 44.7 33.3108 44.46 33.3108 44.19C33.3108 43.98 33.3708 43.79 33.4908 43.62C33.6208 43.44 33.7958 43.35 34.0158 43.35C34.1358 43.35 34.2508 43.375 34.3608 43.425C34.4808 43.475 34.5808 43.54 34.6608 43.62C34.7408 43.7 34.8158 43.77 34.8858 43.83C34.9558 43.89 35.0258 43.92 35.0958 43.92C35.2258 43.92 35.3408 43.785 35.4408 43.515C35.5508 43.245 35.6408 42.9 35.7108 42.48C35.7908 42.06 35.8508 41.625 35.8908 41.175C35.9308 40.715 35.9508 40.295 35.9508 39.915C35.9508 39.655 35.8758 39.48 35.7258 39.39C35.5858 39.3 35.4108 39.23 35.2008 39.18C35.0908 39.15 35.0008 39.115 34.9308 39.075C34.8608 39.035 34.8258 38.965 34.8258 38.865C34.8258 38.805 34.8608 38.755 34.9308 38.715C35.0108 38.665 35.0758 38.64 35.1258 38.64C35.4058 38.64 35.6758 38.655 35.9358 38.685C36.1958 38.705 36.4458 38.715 36.6858 38.715H39.3558C39.6058 38.715 39.8558 38.705 40.1058 38.685C40.3558 38.655 40.6208 38.64 40.9008 38.64C40.9508 38.64 41.0058 38.665 41.0658 38.715C41.1258 38.755 41.1558 38.805 41.1558 38.865C41.1558 38.945 41.1258 39.01 41.0658 39.06C41.0058 39.11 40.9408 39.15 40.8708 39.18C40.7008 39.22 40.5608 39.28 40.4508 39.36C40.3408 39.43 40.2858 39.585 40.2858 39.825V43.965C40.2858 44.165 40.3408 44.3 40.4508 44.37C40.5608 44.43 40.6908 44.485 40.8408 44.535C40.9208 44.565 40.9908 44.605 41.0508 44.655C41.1208 44.695 41.1558 44.755 41.1558 44.835C41.1558 44.905 41.1258 44.96 41.0658 45C41.0058 45.03 40.9458 45.045 40.8858 45.045C40.6858 45.045 40.4958 45.035 40.3158 45.015C40.1458 45.005 39.9808 44.995 39.8208 44.985C39.6608 44.975 39.4908 44.97 39.3108 44.97C39.1408 44.97 38.9708 44.975 38.8008 44.985C38.6408 44.995 38.4708 45.005 38.2908 45.015C38.1208 45.035 37.9408 45.045 37.7508 45.045C37.6908 45.045 37.6308 45.03 37.5708 45C37.5208 44.96 37.4958 44.905 37.4958 44.835C37.4958 44.755 37.5258 44.695 37.5858 44.655C37.6458 44.605 37.7158 44.565 37.7958 44.535C37.9458 44.485 38.0708 44.43 38.1708 44.37C38.2708 44.3 38.3208 44.165 38.3208 43.965V39.885C38.3208 39.705 38.2808 39.58 38.2008 39.51C38.1208 39.43 38.0058 39.39 37.8558 39.39H37.0158C36.8558 39.39 36.7458 39.455 36.6858 39.585C36.6358 39.705 36.6108 39.815 36.6108 39.915C36.6108 40.315 36.5908 40.75 36.5508 41.22C36.5208 41.69 36.4608 42.16 36.3708 42.63C36.2808 43.1 36.1558 43.53 35.9958 43.92C35.8358 44.31 35.6358 44.625 35.3958 44.865C35.1658 45.095 34.8858 45.21 34.5558 45.21ZM43.3418 49.245C43.0818 49.245 42.8318 49.155 42.5918 48.975C42.3518 48.795 42.2318 48.57 42.2318 48.3C42.2318 48.11 42.2818 47.92 42.3818 47.73C42.4818 47.55 42.6368 47.46 42.8468 47.46C43.0068 47.46 43.1668 47.485 43.3268 47.535C43.4968 47.595 43.6568 47.62 43.8068 47.61C43.9568 47.59 44.0618 47.55 44.1218 47.49C44.1818 47.44 44.2518 47.34 44.3318 47.19C44.4018 47.07 44.4668 46.95 44.5268 46.83C44.5968 46.72 44.6718 46.575 44.7518 46.395C44.8418 46.225 44.9518 46 45.0818 45.72C45.2018 45.45 45.2618 45.21 45.2618 45C45.2618 44.85 45.2368 44.715 45.1868 44.595C45.1468 44.465 45.1018 44.34 45.0518 44.22L43.2068 40.035C43.1168 39.805 43.0168 39.615 42.9068 39.465C42.7968 39.315 42.6468 39.21 42.4568 39.15C42.3668 39.11 42.2968 39.07 42.2468 39.03C42.1968 38.98 42.1718 38.91 42.1718 38.82C42.1718 38.75 42.2168 38.705 42.3068 38.685C42.3968 38.665 42.4768 38.655 42.5468 38.655C42.7868 38.655 42.9868 38.66 43.1468 38.67C43.3168 38.68 43.4668 38.69 43.5968 38.7C43.7268 38.71 43.8568 38.715 43.9868 38.715C44.2068 38.715 44.3918 38.71 44.5418 38.7C44.6918 38.69 44.8518 38.68 45.0218 38.67C45.1918 38.66 45.3918 38.655 45.6218 38.655C45.6918 38.655 45.7668 38.67 45.8468 38.7C45.9268 38.73 45.9668 38.78 45.9668 38.85C45.9668 38.94 45.9268 39.005 45.8468 39.045C45.7768 39.075 45.7018 39.11 45.6218 39.15C45.5118 39.19 45.4268 39.25 45.3668 39.33C45.3068 39.41 45.2768 39.54 45.2768 39.72C45.2768 39.8 45.2868 39.895 45.3068 40.005C45.3368 40.115 45.3818 40.25 45.4418 40.41L46.3718 42.675C46.3818 42.705 46.3968 42.72 46.4168 42.72C46.4268 42.72 46.4418 42.705 46.4618 42.675L47.2268 40.38C47.2568 40.3 47.2818 40.205 47.3018 40.095C47.3318 39.975 47.3468 39.87 47.3468 39.78C47.3468 39.61 47.2968 39.475 47.1968 39.375C47.0968 39.265 46.9918 39.19 46.8818 39.15C46.8018 39.12 46.7218 39.085 46.6418 39.045C46.5718 39.005 46.5368 38.94 46.5368 38.85C46.5368 38.78 46.5768 38.73 46.6568 38.7C46.7368 38.67 46.8118 38.655 46.8818 38.655C47.1518 38.665 47.3618 38.68 47.5118 38.7C47.6618 38.71 47.8168 38.715 47.9768 38.715C48.0768 38.715 48.1668 38.715 48.2468 38.715C48.3368 38.705 48.4418 38.695 48.5618 38.685C48.6818 38.675 48.8268 38.665 48.9968 38.655C49.0668 38.655 49.1418 38.665 49.2218 38.685C49.3118 38.705 49.3568 38.75 49.3568 38.82C49.3568 38.91 49.3318 38.98 49.2818 39.03C49.2418 39.07 49.1768 39.11 49.0868 39.15C48.8968 39.21 48.7268 39.325 48.5768 39.495C48.4268 39.655 48.3018 39.85 48.2018 40.08L45.9668 45.45C45.8868 45.65 45.7968 45.865 45.6968 46.095C45.5968 46.335 45.4918 46.58 45.3818 46.83C45.2818 47.08 45.1768 47.335 45.0668 47.595C44.9568 47.855 44.8468 48.11 44.7368 48.36C44.6168 48.65 44.4318 48.87 44.1818 49.02C43.9318 49.17 43.6518 49.245 43.3418 49.245ZM54.3585 45.045C54.2985 45.045 54.2385 45.03 54.1785 45C54.1185 44.96 54.0885 44.91 54.0885 44.85C54.0885 44.77 54.1135 44.705 54.1635 44.655C54.2135 44.605 54.2785 44.57 54.3585 44.55C54.6085 44.49 54.7885 44.425 54.8985 44.355C55.0085 44.285 55.0635 44.165 55.0635 43.995V42.615C55.0635 42.525 55.0485 42.46 55.0185 42.42C54.9985 42.38 54.9635 42.375 54.9135 42.405C54.6635 42.525 54.3685 42.62 54.0285 42.69C53.6985 42.75 53.3535 42.78 52.9935 42.78C52.6535 42.78 52.3235 42.715 52.0035 42.585C51.6935 42.455 51.4385 42.26 51.2385 42C51.0485 41.73 50.9535 41.39 50.9535 40.98V39.705C50.9535 39.535 50.9135 39.415 50.8335 39.345C50.7635 39.275 50.6085 39.205 50.3685 39.135C50.2885 39.115 50.2235 39.08 50.1735 39.03C50.1235 38.98 50.0985 38.92 50.0985 38.85C50.0985 38.78 50.1235 38.73 50.1735 38.7C50.2335 38.66 50.2935 38.64 50.3535 38.64C50.5435 38.64 50.7235 38.645 50.8935 38.655C51.0635 38.665 51.2335 38.68 51.4035 38.7C51.5735 38.71 51.7435 38.715 51.9135 38.715C52.0935 38.715 52.2735 38.71 52.4535 38.7C52.6435 38.69 52.8285 38.68 53.0085 38.67C53.1985 38.66 53.3835 38.655 53.5635 38.655C53.6335 38.655 53.6935 38.67 53.7435 38.7C53.7935 38.73 53.8185 38.78 53.8185 38.85C53.8185 38.93 53.7885 38.99 53.7285 39.03C53.6785 39.07 53.6135 39.105 53.5335 39.135C53.2735 39.215 53.1035 39.295 53.0235 39.375C52.9535 39.455 52.9185 39.565 52.9185 39.705V40.905C52.9185 41.255 52.9935 41.525 53.1435 41.715C53.2935 41.905 53.5235 42 53.8335 42C54.0635 42 54.2535 41.985 54.4035 41.955C54.5635 41.925 54.7135 41.85 54.8535 41.73C54.9335 41.66 54.9885 41.6 55.0185 41.55C55.0485 41.5 55.0635 41.45 55.0635 41.4V39.705C55.0635 39.535 55.0235 39.415 54.9435 39.345C54.8735 39.275 54.7135 39.205 54.4635 39.135C54.3835 39.115 54.3185 39.08 54.2685 39.03C54.2185 38.98 54.1935 38.92 54.1935 38.85C54.1935 38.78 54.2185 38.73 54.2685 38.7C54.3285 38.66 54.3885 38.64 54.4485 38.64C54.6485 38.64 54.8335 38.645 55.0035 38.655C55.1835 38.665 55.3585 38.68 55.5285 38.7C55.6985 38.71 55.8685 38.715 56.0385 38.715C56.2185 38.715 56.4035 38.71 56.5935 38.7C56.7935 38.69 56.9935 38.68 57.1935 38.67C57.3935 38.66 57.5885 38.655 57.7785 38.655C57.8485 38.655 57.9085 38.67 57.9585 38.7C58.0085 38.73 58.0335 38.78 58.0335 38.85C58.0335 38.93 58.0035 38.99 57.9435 39.03C57.8935 39.07 57.8285 39.105 57.7485 39.135C57.4885 39.215 57.3035 39.295 57.1935 39.375C57.0935 39.455 57.0435 39.565 57.0435 39.705V43.98C57.0435 44.12 57.0985 44.23 57.2085 44.31C57.3185 44.39 57.4985 44.47 57.7485 44.55C57.8285 44.58 57.8935 44.615 57.9435 44.655C58.0035 44.695 58.0335 44.755 58.0335 44.835C58.0335 44.905 58.0085 44.955 57.9585 44.985C57.9085 45.015 57.8535 45.03 57.7935 45.03C57.6035 45.03 57.4035 45.025 57.1935 45.015C56.9935 45.005 56.7935 44.995 56.5935 44.985C56.4035 44.975 56.2185 44.97 56.0385 44.97C55.8685 44.97 55.6885 44.975 55.4985 44.985C55.3185 44.995 55.1335 45.005 54.9435 45.015C54.7535 45.035 54.5585 45.045 54.3585 45.045ZM59.5703 45.045C59.5103 45.045 59.4453 45.03 59.3753 45C59.3053 44.96 59.2703 44.905 59.2703 44.835C59.2703 44.755 59.3053 44.695 59.3753 44.655C59.4553 44.605 59.5353 44.565 59.6153 44.535C59.7653 44.485 59.8953 44.43 60.0053 44.37C60.1153 44.3 60.1703 44.165 60.1703 43.965V39.735C60.1703 39.535 60.1153 39.4 60.0053 39.33C59.8953 39.26 59.7653 39.205 59.6153 39.165C59.5353 39.135 59.4553 39.095 59.3753 39.045C59.3053 38.995 59.2703 38.93 59.2703 38.85C59.2703 38.78 59.3053 38.73 59.3753 38.7C59.4453 38.66 59.5103 38.64 59.5703 38.64C59.7703 38.64 59.9603 38.645 60.1403 38.655C60.3203 38.665 60.4953 38.68 60.6653 38.7C60.8453 38.71 61.0203 38.715 61.1903 38.715C61.3703 38.715 61.5353 38.71 61.6853 38.7C61.8353 38.68 61.9903 38.665 62.1503 38.655C62.3203 38.645 62.5053 38.64 62.7053 38.64C62.7653 38.64 62.8203 38.66 62.8703 38.7C62.9303 38.74 62.9603 38.79 62.9603 38.85C62.9603 38.92 62.9303 38.985 62.8703 39.045C62.8103 39.095 62.7403 39.135 62.6603 39.165C62.5203 39.215 62.3953 39.27 62.2853 39.33C62.1853 39.39 62.1353 39.52 62.1353 39.72V43.74C62.1353 43.92 62.1753 44.05 62.2553 44.13C62.3453 44.21 62.4603 44.25 62.6003 44.25H63.6053C63.7553 44.25 63.8703 44.21 63.9503 44.13C64.0303 44.05 64.0703 43.92 64.0703 43.74V39.72C64.0703 39.52 64.0203 39.39 63.9203 39.33C63.8203 39.26 63.6953 39.205 63.5453 39.165C63.4653 39.135 63.3953 39.095 63.3353 39.045C63.2753 38.995 63.2453 38.93 63.2453 38.85C63.2453 38.78 63.2703 38.73 63.3203 38.7C63.3803 38.66 63.4403 38.64 63.5003 38.64C63.7003 38.64 63.8853 38.645 64.0553 38.655C64.2253 38.665 64.3903 38.68 64.5503 38.7C64.7203 38.71 64.8903 38.715 65.0603 38.715C65.2403 38.715 65.4103 38.71 65.5703 38.7C65.7303 38.68 65.8953 38.665 66.0653 38.655C66.2453 38.645 66.4353 38.64 66.6353 38.64C66.6953 38.64 66.7553 38.66 66.8153 38.7C66.8753 38.73 66.9053 38.78 66.9053 38.85C66.9053 38.93 66.8703 38.995 66.8003 39.045C66.7403 39.095 66.6703 39.135 66.5903 39.165C66.4403 39.205 66.3103 39.26 66.2003 39.33C66.0903 39.39 66.0353 39.52 66.0353 39.72V43.74C66.0353 43.92 66.0803 44.05 66.1703 44.13C66.2603 44.21 66.3703 44.25 66.5003 44.25H67.4903C67.6403 44.25 67.7553 44.21 67.8353 44.13C67.9153 44.05 67.9553 43.92 67.9553 43.74V39.72C67.9553 39.52 67.9053 39.39 67.8053 39.33C67.7053 39.26 67.5803 39.205 67.4303 39.165C67.3503 39.135 67.2803 39.095 67.2203 39.045C67.1603 38.995 67.1303 38.93 67.1303 38.85C67.1303 38.78 67.1603 38.73 67.2203 38.7C67.2803 38.66 67.3403 38.64 67.4003 38.64C67.6003 38.64 67.7803 38.645 67.9403 38.655C68.1103 38.665 68.2753 38.68 68.4353 38.7C68.6053 38.71 68.7753 38.715 68.9453 38.715C69.1253 38.715 69.2953 38.71 69.4553 38.7C69.6253 38.68 69.7953 38.665 69.9653 38.655C70.1353 38.645 70.3203 38.64 70.5203 38.64C70.5803 38.64 70.6403 38.66 70.7003 38.7C70.7603 38.73 70.7903 38.78 70.7903 38.85C70.7903 38.93 70.7603 38.995 70.7003 39.045C70.6403 39.095 70.5703 39.135 70.4903 39.165C70.3403 39.205 70.2103 39.26 70.1003 39.33C69.9903 39.39 69.9353 39.52 69.9353 39.72V43.965C69.9353 44.165 69.9903 44.3 70.1003 44.37C70.2103 44.43 70.3403 44.485 70.4903 44.535C70.5703 44.565 70.6403 44.605 70.7003 44.655C70.7603 44.695 70.7903 44.755 70.7903 44.835C70.7903 44.905 70.7603 44.96 70.7003 45C70.6403 45.03 70.5803 45.045 70.5203 45.045C70.3203 45.045 70.1353 45.035 69.9653 45.015C69.8053 45.005 69.6453 44.995 69.4853 44.985C69.3353 44.975 69.1753 44.97 69.0053 44.97H61.1303C60.9703 44.97 60.8053 44.975 60.6353 44.985C60.4753 44.995 60.3053 45.005 60.1253 45.015C59.9553 45.035 59.7703 45.045 59.5703 45.045ZM74.8638 45.21C74.3238 45.21 73.8388 45.07 73.4088 44.79C72.9888 44.5 72.6538 44.11 72.4038 43.62C72.1638 43.12 72.0438 42.555 72.0438 41.925C72.0438 41.295 72.1888 40.725 72.4788 40.215C72.7688 39.695 73.1638 39.285 73.6638 38.985C74.1638 38.675 74.7138 38.52 75.3138 38.52C75.7438 38.52 76.1288 38.615 76.4688 38.805C76.8088 38.985 77.0788 39.23 77.2788 39.54C77.4888 39.85 77.5938 40.2 77.5938 40.59C77.5938 40.97 77.4388 41.16 77.1288 41.16H74.1288C73.9888 41.16 73.8838 41.2 73.8138 41.28C73.7538 41.36 73.7238 41.495 73.7238 41.685C73.7238 42.065 73.8088 42.415 73.9788 42.735C74.1488 43.045 74.3788 43.29 74.6688 43.47C74.9588 43.65 75.2938 43.74 75.6738 43.74C75.9638 43.74 76.2288 43.685 76.4688 43.575C76.7188 43.465 76.9638 43.315 77.2038 43.125C77.2438 43.095 77.2788 43.07 77.3088 43.05C77.3488 43.02 77.3838 43.005 77.4138 43.005C77.5138 43.005 77.5638 43.07 77.5638 43.2C77.5638 43.31 77.5238 43.46 77.4438 43.65C77.3438 43.9 77.1738 44.15 76.9338 44.4C76.7038 44.64 76.4138 44.835 76.0638 44.985C75.7138 45.135 75.3138 45.21 74.8638 45.21ZM74.1288 40.53H75.0288C75.3088 40.53 75.5038 40.525 75.6138 40.515C75.7238 40.505 75.8238 40.485 75.9138 40.455C75.9638 40.435 76.0038 40.385 76.0338 40.305C76.0638 40.225 76.0788 40.135 76.0788 40.035C76.0788 39.765 75.9838 39.545 75.7938 39.375C75.6138 39.205 75.3888 39.12 75.1188 39.12C74.9088 39.12 74.7088 39.18 74.5188 39.3C74.3388 39.41 74.1888 39.56 74.0688 39.75C73.9588 39.93 73.9088 40.12 73.9188 40.32C73.9188 40.46 73.9888 40.53 74.1288 40.53ZM81.6894 45.21C81.1494 45.21 80.6644 45.07 80.2344 44.79C79.8144 44.5 79.4794 44.11 79.2294 43.62C78.9894 43.12 78.8694 42.555 78.8694 41.925C78.8694 41.295 79.0144 40.725 79.3044 40.215C79.5944 39.695 79.9894 39.285 80.4894 38.985C80.9894 38.675 81.5394 38.52 82.1394 38.52C82.5694 38.52 82.9544 38.615 83.2944 38.805C83.6344 38.985 83.9044 39.23 84.1044 39.54C84.3144 39.85 84.4194 40.2 84.4194 40.59C84.4194 40.97 84.2644 41.16 83.9544 41.16H80.9544C80.8144 41.16 80.7094 41.2 80.6394 41.28C80.5794 41.36 80.5494 41.495 80.5494 41.685C80.5494 42.065 80.6344 42.415 80.8044 42.735C80.9744 43.045 81.2044 43.29 81.4944 43.47C81.7844 43.65 82.1194 43.74 82.4994 43.74C82.7894 43.74 83.0544 43.685 83.2944 43.575C83.5444 43.465 83.7894 43.315 84.0294 43.125C84.0694 43.095 84.1044 43.07 84.1344 43.05C84.1744 43.02 84.2094 43.005 84.2394 43.005C84.3394 43.005 84.3894 43.07 84.3894 43.2C84.3894 43.31 84.3494 43.46 84.2694 43.65C84.1694 43.9 83.9994 44.15 83.7594 44.4C83.5294 44.64 83.2394 44.835 82.8894 44.985C82.5394 45.135 82.1394 45.21 81.6894 45.21ZM80.9544 40.53H81.8544C82.1344 40.53 82.3294 40.525 82.4394 40.515C82.5494 40.505 82.6494 40.485 82.7394 40.455C82.7894 40.435 82.8294 40.385 82.8594 40.305C82.8894 40.225 82.9044 40.135 82.9044 40.035C82.9044 39.765 82.8094 39.545 82.6194 39.375C82.4394 39.205 82.2144 39.12 81.9444 39.12C81.7344 39.12 81.5344 39.18 81.3444 39.3C81.1644 39.41 81.0144 39.56 80.8944 39.75C80.7844 39.93 80.7344 40.12 80.7444 40.32C80.7444 40.46 80.8144 40.53 80.9544 40.53ZM90.4961 47.295C90.3961 47.295 90.3111 47.25 90.2411 47.16C90.1711 47.08 90.1261 46.95 90.1061 46.77C90.0961 46.44 90.0611 46.125 90.0011 45.825C89.9511 45.535 89.9011 45.28 89.8511 45.06C89.8111 44.85 89.7911 44.695 89.7911 44.595C89.7911 44.535 89.8061 44.48 89.8361 44.43C89.8761 44.38 89.9261 44.355 89.9861 44.355C90.0361 44.355 90.1011 44.365 90.1811 44.385C90.2711 44.395 90.3561 44.4 90.4361 44.4C90.6661 44.4 90.8611 44.28 91.0211 44.04C91.1811 43.8 91.3161 43.47 91.4261 43.05C91.5361 42.63 91.6161 42.15 91.6661 41.61C91.7261 41.06 91.7561 40.475 91.7561 39.855C91.7561 39.595 91.6961 39.43 91.5761 39.36C91.4661 39.28 91.3111 39.215 91.1111 39.165C91.0011 39.135 90.9111 39.105 90.8411 39.075C90.7711 39.035 90.7361 38.965 90.7361 38.865C90.7361 38.795 90.7711 38.74 90.8411 38.7C90.9211 38.66 90.9861 38.64 91.0361 38.64C91.3161 38.64 91.5861 38.655 91.8461 38.685C92.1061 38.705 92.3561 38.715 92.5961 38.715H95.2661C95.5161 38.715 95.7661 38.705 96.0161 38.685C96.2661 38.655 96.5311 38.64 96.8111 38.64C96.8611 38.64 96.9161 38.66 96.9761 38.7C97.0361 38.74 97.0661 38.795 97.0661 38.865C97.0661 38.945 97.0361 39.01 96.9761 39.06C96.9161 39.1 96.8511 39.135 96.7811 39.165C96.6111 39.205 96.4711 39.265 96.3611 39.345C96.2511 39.425 96.1961 39.585 96.1961 39.825V43.71C96.1961 43.93 96.2211 44.1 96.2711 44.22C96.3311 44.34 96.4461 44.4 96.6161 44.4C96.6661 44.4 96.7311 44.395 96.8111 44.385C96.8911 44.375 96.9661 44.37 97.0361 44.37C97.1061 44.37 97.1661 44.38 97.2161 44.4C97.2661 44.42 97.2911 44.455 97.2911 44.505C97.2911 44.535 97.2861 44.56 97.2761 44.58C97.2361 44.69 97.1861 44.82 97.1261 44.97C97.0761 45.11 97.0261 45.315 96.9761 45.585C96.9361 45.865 96.9061 46.26 96.8861 46.77C96.8761 46.95 96.8361 47.08 96.7661 47.16C96.6961 47.25 96.6111 47.295 96.5111 47.295C96.4111 47.295 96.3261 47.245 96.2561 47.145C96.1961 47.045 96.1661 46.925 96.1661 46.785C96.1661 46.685 96.1611 46.58 96.1511 46.47C96.1511 46.37 96.1411 46.235 96.1211 46.065C96.0911 45.735 96.0011 45.475 95.8511 45.285C95.7111 45.095 95.4711 45 95.1311 45H91.9061C91.5661 45 91.3211 45.1 91.1711 45.3C91.0211 45.51 90.9261 45.815 90.8861 46.215C90.8761 46.305 90.8661 46.395 90.8561 46.485C90.8461 46.585 90.8411 46.685 90.8411 46.785C90.8411 46.925 90.8061 47.045 90.7361 47.145C90.6761 47.245 90.5961 47.295 90.4961 47.295ZM92.1911 44.325H93.9011C94.0411 44.325 94.1311 44.295 94.1711 44.235C94.2111 44.175 94.2311 44.085 94.2311 43.965V39.9C94.2311 39.77 94.2111 39.67 94.1711 39.6C94.1311 39.53 94.0761 39.48 94.0061 39.45C93.9461 39.41 93.8661 39.39 93.7661 39.39H92.9561C92.8561 39.39 92.7761 39.42 92.7161 39.48C92.6561 39.54 92.6111 39.61 92.5811 39.69C92.5611 39.77 92.5511 39.845 92.5511 39.915C92.5511 40.315 92.5261 40.755 92.4761 41.235C92.4361 41.705 92.3711 42.175 92.2811 42.645C92.1911 43.105 92.0761 43.52 91.9361 43.89C91.9161 43.94 91.8961 43.985 91.8761 44.025C91.8661 44.065 91.8611 44.11 91.8611 44.16C91.8611 44.24 91.8911 44.29 91.9511 44.31C92.0211 44.32 92.1011 44.325 92.1911 44.325ZM99.5609 45.21C99.1609 45.21 98.8509 45.11 98.6309 44.91C98.4209 44.7 98.3159 44.46 98.3159 44.19C98.3159 43.98 98.3759 43.79 98.4959 43.62C98.6259 43.44 98.8009 43.35 99.0209 43.35C99.1409 43.35 99.2559 43.375 99.3659 43.425C99.4859 43.475 99.5859 43.54 99.6659 43.62C99.7459 43.7 99.8209 43.77 99.8909 43.83C99.9609 43.89 100.031 43.92 100.101 43.92C100.231 43.92 100.346 43.785 100.446 43.515C100.556 43.245 100.646 42.9 100.716 42.48C100.796 42.06 100.856 41.625 100.896 41.175C100.936 40.715 100.956 40.295 100.956 39.915C100.956 39.655 100.881 39.48 100.731 39.39C100.591 39.3 100.416 39.23 100.206 39.18C100.096 39.15 100.006 39.115 99.9359 39.075C99.8659 39.035 99.8309 38.965 99.8309 38.865C99.8309 38.805 99.8659 38.755 99.9359 38.715C100.016 38.665 100.081 38.64 100.131 38.64C100.411 38.64 100.681 38.655 100.941 38.685C101.201 38.705 101.451 38.715 101.691 38.715H104.361C104.611 38.715 104.861 38.705 105.111 38.685C105.361 38.655 105.626 38.64 105.906 38.64C105.956 38.64 106.011 38.665 106.071 38.715C106.131 38.755 106.161 38.805 106.161 38.865C106.161 38.945 106.131 39.01 106.071 39.06C106.011 39.11 105.946 39.15 105.876 39.18C105.706 39.22 105.566 39.28 105.456 39.36C105.346 39.43 105.291 39.585 105.291 39.825V43.965C105.291 44.165 105.346 44.3 105.456 44.37C105.566 44.43 105.696 44.485 105.846 44.535C105.926 44.565 105.996 44.605 106.056 44.655C106.126 44.695 106.161 44.755 106.161 44.835C106.161 44.905 106.131 44.96 106.071 45C106.011 45.03 105.951 45.045 105.891 45.045C105.691 45.045 105.501 45.035 105.321 45.015C105.151 45.005 104.986 44.995 104.826 44.985C104.666 44.975 104.496 44.97 104.316 44.97C104.146 44.97 103.976 44.975 103.806 44.985C103.646 44.995 103.476 45.005 103.296 45.015C103.126 45.035 102.946 45.045 102.756 45.045C102.696 45.045 102.636 45.03 102.576 45C102.526 44.96 102.501 44.905 102.501 44.835C102.501 44.755 102.531 44.695 102.591 44.655C102.651 44.605 102.721 44.565 102.801 44.535C102.951 44.485 103.076 44.43 103.176 44.37C103.276 44.3 103.326 44.165 103.326 43.965V39.885C103.326 39.705 103.286 39.58 103.206 39.51C103.126 39.43 103.011 39.39 102.861 39.39H102.021C101.861 39.39 101.751 39.455 101.691 39.585C101.641 39.705 101.616 39.815 101.616 39.915C101.616 40.315 101.596 40.75 101.556 41.22C101.526 41.69 101.466 42.16 101.376 42.63C101.286 43.1 101.161 43.53 101.001 43.92C100.841 44.31 100.641 44.625 100.401 44.865C100.171 45.095 99.8909 45.21 99.5609 45.21ZM108.287 45.195C107.907 45.195 107.577 45.15 107.297 45.06C107.017 44.97 106.877 44.875 106.877 44.775C106.877 44.605 106.982 44.52 107.192 44.52C107.412 44.52 107.617 44.44 107.807 44.28C108.007 44.11 108.197 43.905 108.377 43.665C108.567 43.425 108.752 43.18 108.932 42.93C109.112 42.68 109.272 42.465 109.412 42.285C109.562 42.095 109.702 41.965 109.832 41.895C109.942 41.845 109.947 41.8 109.847 41.76C109.437 41.63 109.102 41.465 108.842 41.265C108.592 41.065 108.467 40.745 108.467 40.305C108.467 39.945 108.602 39.645 108.872 39.405C109.142 39.165 109.492 38.98 109.922 38.85C110.352 38.72 110.802 38.655 111.272 38.655C111.532 38.655 111.752 38.665 111.932 38.685C112.112 38.705 112.277 38.725 112.427 38.745C112.577 38.755 112.747 38.76 112.937 38.76C113.147 38.76 113.322 38.755 113.462 38.745C113.602 38.725 113.757 38.71 113.927 38.7C114.097 38.68 114.302 38.67 114.542 38.67C114.602 38.67 114.652 38.69 114.692 38.73C114.742 38.76 114.767 38.8 114.767 38.85C114.767 38.88 114.747 38.915 114.707 38.955C114.667 38.995 114.607 39.03 114.527 39.06C114.287 39.12 114.122 39.19 114.032 39.27C113.942 39.35 113.897 39.49 113.897 39.69V44.085C113.897 44.285 113.947 44.41 114.047 44.46C114.147 44.51 114.307 44.575 114.527 44.655C114.587 44.665 114.637 44.695 114.677 44.745C114.717 44.785 114.737 44.83 114.737 44.88C114.737 44.92 114.717 44.96 114.677 45C114.637 45.03 114.587 45.045 114.527 45.045C114.387 45.045 114.222 45.04 114.032 45.03C113.842 45.02 113.652 45.01 113.462 45C113.272 45 113.102 45 112.952 45C112.752 45 112.557 45 112.367 45C112.177 45.01 111.987 45.02 111.797 45.03C111.617 45.04 111.417 45.045 111.197 45.045C111.137 45.045 111.077 45.03 111.017 45C110.957 44.96 110.927 44.91 110.927 44.85C110.927 44.77 110.952 44.705 111.002 44.655C111.052 44.605 111.117 44.57 111.197 44.55C111.447 44.49 111.627 44.425 111.737 44.355C111.857 44.285 111.917 44.165 111.917 43.995V42.165C111.917 42.075 111.877 42.03 111.797 42.03C111.767 42.03 111.727 42.035 111.677 42.045C111.637 42.045 111.602 42.045 111.572 42.045C111.482 42.055 111.392 42.13 111.302 42.27C111.222 42.41 111.067 42.7 110.837 43.14C110.587 43.63 110.337 44.03 110.087 44.34C109.837 44.64 109.567 44.86 109.277 45C108.997 45.13 108.667 45.195 108.287 45.195ZM111.497 41.505C111.637 41.505 111.742 41.475 111.812 41.415C111.882 41.355 111.917 41.28 111.917 41.19V39.6C111.917 39.45 111.877 39.345 111.797 39.285C111.717 39.215 111.582 39.18 111.392 39.18C111.142 39.18 110.927 39.26 110.747 39.42C110.567 39.57 110.477 39.885 110.477 40.365C110.477 40.675 110.557 40.945 110.717 41.175C110.887 41.395 111.147 41.505 111.497 41.505ZM123.744 45.21C123.054 45.21 122.464 45.035 121.974 44.685C121.484 44.335 121.109 43.84 120.849 43.2C120.589 42.55 120.459 41.8 120.459 40.95C120.459 39.84 120.609 38.88 120.909 38.07C121.209 37.25 121.639 36.595 122.199 36.105C122.759 35.605 123.439 35.29 124.239 35.16L125.169 34.995C125.539 34.935 125.814 34.88 125.994 34.83C126.174 34.77 126.314 34.71 126.414 34.65C126.514 34.58 126.619 34.495 126.729 34.395C126.739 34.385 126.759 34.38 126.789 34.38C126.829 34.38 126.854 34.41 126.864 34.47C126.884 34.52 126.894 34.565 126.894 34.605C126.894 34.935 126.819 35.265 126.669 35.595C126.529 35.915 126.299 36.2 125.979 36.45C125.659 36.69 125.229 36.855 124.689 36.945L123.249 37.185C122.879 37.255 122.569 37.36 122.319 37.5C122.079 37.64 121.909 37.85 121.809 38.13C121.719 38.4 121.719 38.77 121.809 39.24C121.819 39.31 121.849 39.36 121.899 39.39C121.959 39.42 122.024 39.4 122.094 39.33C122.294 39.16 122.544 39 122.844 38.85C123.144 38.69 123.539 38.61 124.029 38.61C124.729 38.61 125.294 38.765 125.724 39.075C126.164 39.375 126.484 39.76 126.684 40.23C126.894 40.69 126.999 41.17 126.999 41.67C126.999 42.29 126.869 42.87 126.609 43.41C126.359 43.95 125.994 44.385 125.514 44.715C125.034 45.045 124.444 45.21 123.744 45.21ZM123.774 44.505C124.064 44.505 124.289 44.405 124.449 44.205C124.609 44.005 124.724 43.725 124.794 43.365C124.864 42.995 124.899 42.56 124.899 42.06C124.899 41.58 124.849 41.13 124.749 40.71C124.649 40.28 124.504 39.935 124.314 39.675C124.124 39.405 123.899 39.27 123.639 39.27C123.459 39.27 123.289 39.32 123.129 39.42C122.969 39.51 122.839 39.645 122.739 39.825C122.609 40.045 122.534 40.32 122.514 40.65C122.504 40.97 122.499 41.335 122.499 41.745C122.499 42.225 122.554 42.675 122.664 43.095C122.774 43.505 122.924 43.845 123.114 44.115C123.314 44.375 123.534 44.505 123.774 44.505ZM129.85 45.21C129.58 45.21 129.33 45.145 129.1 45.015C128.87 44.885 128.685 44.715 128.545 44.505C128.415 44.295 128.35 44.065 128.35 43.815C128.35 43.475 128.455 43.19 128.665 42.96C128.885 42.73 129.205 42.525 129.625 42.345L130.96 41.76C131.16 41.67 131.28 41.59 131.32 41.52C131.37 41.45 131.395 41.32 131.395 41.13L131.41 40.275C131.42 39.995 131.37 39.775 131.26 39.615C131.15 39.445 130.985 39.36 130.765 39.36C130.635 39.36 130.505 39.39 130.375 39.45C130.245 39.5 130.145 39.56 130.075 39.63C130.045 39.67 130.02 39.72 130 39.78C129.99 39.83 129.985 39.885 129.985 39.945C129.985 40.005 129.99 40.08 130 40.17C130.01 40.25 130.015 40.32 130.015 40.38C130.015 40.44 129.935 40.52 129.775 40.62C129.615 40.71 129.43 40.795 129.22 40.875C129.01 40.945 128.83 40.98 128.68 40.98C128.61 40.98 128.545 40.95 128.485 40.89C128.435 40.83 128.41 40.755 128.41 40.665C128.41 40.505 128.465 40.35 128.575 40.2C128.685 40.04 128.865 39.86 129.115 39.66C129.375 39.44 129.66 39.245 129.97 39.075C130.28 38.905 130.585 38.77 130.885 38.67C131.195 38.57 131.455 38.52 131.665 38.52C132.205 38.52 132.635 38.695 132.955 39.045C133.275 39.385 133.425 39.84 133.405 40.41L133.33 43.44C133.32 43.67 133.36 43.865 133.45 44.025C133.54 44.185 133.65 44.265 133.78 44.265C133.97 44.265 134.135 44.2 134.275 44.07C134.305 44.04 134.335 44.025 134.365 44.025C134.415 44.025 134.455 44.04 134.485 44.07C134.525 44.1 134.545 44.14 134.545 44.19C134.545 44.31 134.455 44.465 134.275 44.655C134.085 44.835 133.885 44.97 133.675 45.06C133.465 45.16 133.245 45.21 133.015 45.21C132.455 45.21 131.99 44.925 131.62 44.355H131.59C131.26 44.655 130.96 44.87 130.69 45C130.43 45.14 130.15 45.21 129.85 45.21ZM130.75 44.235C130.86 44.235 130.95 44.22 131.02 44.19C131.09 44.15 131.16 44.09 131.23 44.01C131.26 43.97 131.285 43.92 131.305 43.86C131.325 43.79 131.335 43.71 131.335 43.62L131.38 42.54C131.38 42.44 131.365 42.375 131.335 42.345C131.305 42.315 131.27 42.3 131.23 42.3C131.21 42.3 131.185 42.305 131.155 42.315C131.125 42.325 131.09 42.34 131.05 42.36C130.76 42.5 130.545 42.645 130.405 42.795C130.265 42.935 130.195 43.165 130.195 43.485C130.195 43.775 130.255 43.975 130.375 44.085C130.495 44.185 130.62 44.235 130.75 44.235ZM135.707 45.045C135.647 45.045 135.582 45.03 135.512 45C135.442 44.96 135.407 44.905 135.407 44.835C135.407 44.755 135.442 44.695 135.512 44.655C135.592 44.605 135.672 44.565 135.752 44.535C135.902 44.485 136.032 44.43 136.142 44.37C136.262 44.3 136.322 44.16 136.322 43.95V39.735C136.322 39.535 136.262 39.4 136.142 39.33C136.032 39.26 135.902 39.205 135.752 39.165C135.672 39.135 135.592 39.095 135.512 39.045C135.442 38.995 135.407 38.93 135.407 38.85C135.407 38.78 135.442 38.73 135.512 38.7C135.592 38.66 135.662 38.64 135.722 38.64C135.922 38.64 136.112 38.645 136.292 38.655C136.472 38.665 136.647 38.68 136.817 38.7C136.997 38.71 137.172 38.715 137.342 38.715C137.522 38.715 137.687 38.71 137.837 38.7C137.987 38.68 138.142 38.665 138.302 38.655C138.462 38.645 138.642 38.64 138.842 38.64C138.902 38.64 138.962 38.66 139.022 38.7C139.082 38.74 139.112 38.79 139.112 38.85C139.112 38.92 139.082 38.985 139.022 39.045C138.962 39.095 138.892 39.135 138.812 39.165C138.672 39.215 138.547 39.27 138.437 39.33C138.337 39.39 138.287 39.52 138.287 39.72V41.04C138.287 41.21 138.332 41.32 138.422 41.37C138.512 41.42 138.617 41.445 138.737 41.445H140.177C140.297 41.445 140.397 41.42 140.477 41.37C140.557 41.32 140.597 41.21 140.597 41.04V39.72C140.597 39.52 140.547 39.39 140.447 39.33C140.357 39.27 140.237 39.215 140.087 39.165C140.007 39.135 139.937 39.095 139.877 39.045C139.817 38.995 139.787 38.93 139.787 38.85C139.787 38.78 139.817 38.73 139.877 38.7C139.937 38.66 139.997 38.64 140.057 38.64C140.257 38.64 140.437 38.645 140.597 38.655C140.767 38.665 140.932 38.68 141.092 38.7C141.262 38.71 141.432 38.715 141.602 38.715C141.782 38.715 141.952 38.71 142.112 38.7C142.272 38.68 142.437 38.665 142.607 38.655C142.787 38.645 142.977 38.64 143.177 38.64C143.237 38.64 143.297 38.66 143.357 38.7C143.417 38.73 143.447 38.78 143.447 38.85C143.447 38.93 143.417 39 143.357 39.06C143.297 39.11 143.227 39.145 143.147 39.165C142.997 39.205 142.862 39.26 142.742 39.33C142.632 39.39 142.577 39.52 142.577 39.72V43.965C142.577 44.165 142.632 44.3 142.742 44.37C142.862 44.43 142.997 44.485 143.147 44.535C143.227 44.565 143.297 44.605 143.357 44.655C143.427 44.695 143.462 44.755 143.462 44.835C143.462 44.905 143.432 44.96 143.372 45C143.312 45.03 143.252 45.045 143.192 45.045C142.992 45.045 142.802 45.035 142.622 45.015C142.452 45.005 142.282 44.995 142.112 44.985C141.952 44.975 141.782 44.97 141.602 44.97C141.432 44.97 141.262 44.975 141.092 44.985C140.932 44.995 140.762 45.005 140.582 45.015C140.412 45.035 140.227 45.045 140.027 45.045C139.967 45.045 139.907 45.03 139.847 45C139.797 44.96 139.772 44.905 139.772 44.835C139.772 44.755 139.802 44.69 139.862 44.64C139.922 44.59 139.992 44.555 140.072 44.535C140.222 44.485 140.347 44.43 140.447 44.37C140.547 44.3 140.597 44.165 140.597 43.965V42.555C140.597 42.375 140.557 42.26 140.477 42.21C140.397 42.16 140.297 42.135 140.177 42.135H138.722C138.602 42.135 138.497 42.165 138.407 42.225C138.327 42.275 138.287 42.385 138.287 42.555V43.965C138.287 44.165 138.342 44.3 138.452 44.37C138.562 44.43 138.687 44.485 138.827 44.535C138.907 44.565 138.977 44.605 139.037 44.655C139.097 44.695 139.127 44.755 139.127 44.835C139.127 44.895 139.097 44.945 139.037 44.985C138.977 45.025 138.917 45.045 138.857 45.045C138.667 45.045 138.487 45.035 138.317 45.015C138.147 45.005 137.987 44.995 137.837 44.985C137.687 44.975 137.522 44.97 137.342 44.97C137.172 44.97 136.997 44.975 136.817 44.985C136.647 44.995 136.467 45.005 136.277 45.015C136.097 45.035 135.907 45.045 135.707 45.045ZM144.979 45.045C144.919 45.045 144.854 45.03 144.784 45C144.714 44.96 144.679 44.905 144.679 44.835C144.679 44.755 144.714 44.695 144.784 44.655C144.864 44.605 144.944 44.565 145.024 44.535C145.174 44.485 145.304 44.43 145.414 44.37C145.534 44.3 145.594 44.16 145.594 43.95V39.735C145.594 39.535 145.539 39.4 145.429 39.33C145.319 39.26 145.189 39.205 145.039 39.165C144.959 39.135 144.879 39.095 144.799 39.045C144.729 38.995 144.694 38.93 144.694 38.85C144.694 38.79 144.729 38.74 144.799 38.7C144.869 38.66 144.934 38.64 144.994 38.64C145.194 38.64 145.384 38.645 145.564 38.655C145.744 38.665 145.919 38.68 146.089 38.7C146.269 38.71 146.444 38.715 146.614 38.715C146.794 38.715 146.959 38.71 147.109 38.7C147.259 38.68 147.414 38.665 147.574 38.655C147.744 38.645 147.929 38.64 148.129 38.64C148.189 38.64 148.244 38.66 148.294 38.7C148.354 38.74 148.384 38.79 148.384 38.85C148.384 38.92 148.354 38.985 148.294 39.045C148.234 39.095 148.164 39.135 148.084 39.165C147.944 39.215 147.819 39.27 147.709 39.33C147.609 39.39 147.559 39.52 147.559 39.72V42.27C147.559 42.37 147.579 42.435 147.619 42.465C147.659 42.495 147.709 42.47 147.769 42.39L149.884 39.93C149.904 39.89 149.929 39.855 149.959 39.825C149.989 39.795 150.004 39.76 150.004 39.72C150.004 39.52 149.954 39.39 149.854 39.33C149.764 39.26 149.644 39.205 149.494 39.165C149.414 39.135 149.344 39.095 149.284 39.045C149.224 38.995 149.194 38.93 149.194 38.85C149.194 38.79 149.219 38.74 149.269 38.7C149.329 38.66 149.389 38.64 149.449 38.64C149.649 38.64 149.834 38.645 150.004 38.655C150.174 38.665 150.339 38.68 150.499 38.7C150.659 38.71 150.824 38.715 150.994 38.715C151.174 38.715 151.344 38.71 151.504 38.7C151.674 38.68 151.844 38.665 152.014 38.655C152.194 38.645 152.384 38.64 152.584 38.64C152.644 38.64 152.704 38.66 152.764 38.7C152.824 38.74 152.854 38.79 152.854 38.85C152.854 38.93 152.819 38.995 152.749 39.045C152.689 39.095 152.619 39.135 152.539 39.165C152.389 39.205 152.254 39.26 152.134 39.33C152.024 39.39 151.969 39.52 151.969 39.72V43.965C151.969 44.165 152.029 44.3 152.149 44.37C152.269 44.43 152.404 44.485 152.554 44.535C152.634 44.565 152.704 44.605 152.764 44.655C152.824 44.695 152.854 44.755 152.854 44.835C152.854 44.905 152.824 44.96 152.764 45C152.704 45.03 152.649 45.045 152.599 45.045C152.399 45.045 152.209 45.035 152.029 45.015C151.849 45.005 151.674 44.995 151.504 44.985C151.344 44.975 151.174 44.97 150.994 44.97C150.824 44.97 150.654 44.975 150.484 44.985C150.324 44.995 150.154 45.005 149.974 45.015C149.804 45.035 149.619 45.045 149.419 45.045C149.369 45.045 149.314 45.03 149.254 45C149.204 44.96 149.179 44.905 149.179 44.835C149.179 44.755 149.204 44.695 149.254 44.655C149.314 44.605 149.384 44.565 149.464 44.535C149.614 44.485 149.739 44.43 149.839 44.37C149.949 44.3 150.004 44.165 150.004 43.965V41.07C150.004 41 149.989 40.96 149.959 40.95C149.939 40.94 149.914 40.95 149.884 40.98L147.739 43.53C147.619 43.66 147.559 43.805 147.559 43.965C147.559 44.165 147.614 44.3 147.724 44.37C147.834 44.43 147.959 44.485 148.099 44.535C148.179 44.565 148.249 44.605 148.309 44.655C148.369 44.695 148.399 44.755 148.399 44.835C148.399 44.895 148.369 44.945 148.309 44.985C148.259 45.025 148.204 45.045 148.144 45.045C147.944 45.045 147.759 45.035 147.589 45.015C147.419 45.005 147.259 44.995 147.109 44.985C146.959 44.975 146.794 44.97 146.614 44.97C146.444 44.97 146.269 44.975 146.089 44.985C145.919 44.995 145.739 45.005 145.549 45.015C145.369 45.035 145.179 45.045 144.979 45.045ZM158.542 45.045C158.482 45.045 158.417 45.03 158.347 45C158.277 44.96 158.242 44.905 158.242 44.835C158.242 44.755 158.277 44.695 158.347 44.655C158.427 44.605 158.507 44.565 158.587 44.535C158.737 44.485 158.867 44.43 158.977 44.37C159.097 44.3 159.157 44.16 159.157 43.95V39.735C159.157 39.535 159.102 39.4 158.992 39.33C158.882 39.26 158.752 39.205 158.602 39.165C158.522 39.135 158.442 39.095 158.362 39.045C158.292 38.995 158.257 38.93 158.257 38.85C158.257 38.79 158.292 38.74 158.362 38.7C158.432 38.66 158.497 38.64 158.557 38.64C158.757 38.64 158.947 38.645 159.127 38.655C159.307 38.665 159.482 38.68 159.652 38.7C159.832 38.71 160.007 38.715 160.177 38.715C160.357 38.715 160.522 38.71 160.672 38.7C160.822 38.68 160.977 38.665 161.137 38.655C161.307 38.645 161.492 38.64 161.692 38.64C161.752 38.64 161.807 38.66 161.857 38.7C161.917 38.74 161.947 38.79 161.947 38.85C161.947 38.92 161.917 38.985 161.857 39.045C161.797 39.095 161.727 39.135 161.647 39.165C161.507 39.215 161.382 39.27 161.272 39.33C161.172 39.39 161.122 39.52 161.122 39.72V42.27C161.122 42.37 161.142 42.435 161.182 42.465C161.222 42.495 161.272 42.47 161.332 42.39L163.447 39.93C163.467 39.89 163.492 39.855 163.522 39.825C163.552 39.795 163.567 39.76 163.567 39.72C163.567 39.52 163.517 39.39 163.417 39.33C163.327 39.26 163.207 39.205 163.057 39.165C162.977 39.135 162.907 39.095 162.847 39.045C162.787 38.995 162.757 38.93 162.757 38.85C162.757 38.79 162.782 38.74 162.832 38.7C162.892 38.66 162.952 38.64 163.012 38.64C163.212 38.64 163.397 38.645 163.567 38.655C163.737 38.665 163.902 38.68 164.062 38.7C164.222 38.71 164.387 38.715 164.557 38.715C164.737 38.715 164.907 38.71 165.067 38.7C165.237 38.68 165.407 38.665 165.577 38.655C165.757 38.645 165.947 38.64 166.147 38.64C166.207 38.64 166.267 38.66 166.327 38.7C166.387 38.74 166.417 38.79 166.417 38.85C166.417 38.93 166.382 38.995 166.312 39.045C166.252 39.095 166.182 39.135 166.102 39.165C165.952 39.205 165.817 39.26 165.697 39.33C165.587 39.39 165.532 39.52 165.532 39.72V43.965C165.532 44.165 165.592 44.3 165.712 44.37C165.832 44.43 165.967 44.485 166.117 44.535C166.197 44.565 166.267 44.605 166.327 44.655C166.387 44.695 166.417 44.755 166.417 44.835C166.417 44.905 166.387 44.96 166.327 45C166.267 45.03 166.212 45.045 166.162 45.045C165.962 45.045 165.772 45.035 165.592 45.015C165.412 45.005 165.237 44.995 165.067 44.985C164.907 44.975 164.737 44.97 164.557 44.97C164.387 44.97 164.217 44.975 164.047 44.985C163.887 44.995 163.717 45.005 163.537 45.015C163.367 45.035 163.182 45.045 162.982 45.045C162.932 45.045 162.877 45.03 162.817 45C162.767 44.96 162.742 44.905 162.742 44.835C162.742 44.755 162.767 44.695 162.817 44.655C162.877 44.605 162.947 44.565 163.027 44.535C163.177 44.485 163.302 44.43 163.402 44.37C163.512 44.3 163.567 44.165 163.567 43.965V41.07C163.567 41 163.552 40.96 163.522 40.95C163.502 40.94 163.477 40.95 163.447 40.98L161.302 43.53C161.182 43.66 161.122 43.805 161.122 43.965C161.122 44.165 161.177 44.3 161.287 44.37C161.397 44.43 161.522 44.485 161.662 44.535C161.742 44.565 161.812 44.605 161.872 44.655C161.932 44.695 161.962 44.755 161.962 44.835C161.962 44.895 161.932 44.945 161.872 44.985C161.822 45.025 161.767 45.045 161.707 45.045C161.507 45.045 161.322 45.035 161.152 45.015C160.982 45.005 160.822 44.995 160.672 44.985C160.522 44.975 160.357 44.97 160.177 44.97C160.007 44.97 159.832 44.975 159.652 44.985C159.482 44.995 159.302 45.005 159.112 45.015C158.932 45.035 158.742 45.045 158.542 45.045ZM174.655 45.21C174.125 45.21 173.645 45.07 173.215 44.79C172.795 44.5 172.46 44.115 172.21 43.635C171.97 43.145 171.85 42.595 171.85 41.985C171.85 41.335 172 40.75 172.3 40.23C172.6 39.71 173 39.295 173.5 38.985C174.01 38.675 174.575 38.52 175.195 38.52C176.015 38.52 176.695 38.79 177.235 39.33C177.325 39.43 177.37 39.52 177.37 39.6C177.37 39.66 177.325 39.75 177.235 39.87C177.145 39.98 177.045 40.08 176.935 40.17C176.825 40.26 176.73 40.305 176.65 40.305C176.56 40.305 176.47 40.28 176.38 40.23C176.3 40.17 176.22 40.105 176.14 40.035C175.88 39.815 175.615 39.64 175.345 39.51C175.085 39.37 174.86 39.3 174.67 39.3C174.29 39.3 174 39.46 173.8 39.78C173.61 40.09 173.515 40.6 173.515 41.31C173.515 41.8 173.59 42.225 173.74 42.585C173.9 42.935 174.125 43.205 174.415 43.395C174.705 43.585 175.055 43.68 175.465 43.68C175.765 43.68 176.025 43.635 176.245 43.545C176.465 43.445 176.695 43.295 176.935 43.095C176.985 43.065 177.025 43.035 177.055 43.005C177.095 42.975 177.14 42.96 177.19 42.96C177.31 42.96 177.37 43.04 177.37 43.2C177.37 43.24 177.36 43.3 177.34 43.38C177.33 43.45 177.3 43.53 177.25 43.62C177.16 43.82 176.985 44.045 176.725 44.295C176.475 44.545 176.175 44.76 175.825 44.94C175.475 45.12 175.085 45.21 174.655 45.21ZM179.973 45.21C179.703 45.21 179.453 45.145 179.223 45.015C178.993 44.885 178.808 44.715 178.668 44.505C178.538 44.295 178.473 44.065 178.473 43.815C178.473 43.475 178.578 43.19 178.788 42.96C179.008 42.73 179.328 42.525 179.748 42.345L181.083 41.76C181.283 41.67 181.403 41.59 181.443 41.52C181.493 41.45 181.518 41.32 181.518 41.13L181.533 40.275C181.543 39.995 181.493 39.775 181.383 39.615C181.273 39.445 181.108 39.36 180.888 39.36C180.758 39.36 180.628 39.39 180.498 39.45C180.368 39.5 180.268 39.56 180.198 39.63C180.168 39.67 180.143 39.72 180.123 39.78C180.113 39.83 180.108 39.885 180.108 39.945C180.108 40.005 180.113 40.08 180.123 40.17C180.133 40.25 180.138 40.32 180.138 40.38C180.138 40.44 180.058 40.52 179.898 40.62C179.738 40.71 179.553 40.795 179.343 40.875C179.133 40.945 178.953 40.98 178.803 40.98C178.733 40.98 178.668 40.95 178.608 40.89C178.558 40.83 178.533 40.755 178.533 40.665C178.533 40.505 178.588 40.35 178.698 40.2C178.808 40.04 178.988 39.86 179.238 39.66C179.498 39.44 179.783 39.245 180.093 39.075C180.403 38.905 180.708 38.77 181.008 38.67C181.318 38.57 181.578 38.52 181.788 38.52C182.328 38.52 182.758 38.695 183.078 39.045C183.398 39.385 183.548 39.84 183.528 40.41L183.453 43.44C183.443 43.67 183.483 43.865 183.573 44.025C183.663 44.185 183.773 44.265 183.903 44.265C184.093 44.265 184.258 44.2 184.398 44.07C184.428 44.04 184.458 44.025 184.488 44.025C184.538 44.025 184.578 44.04 184.608 44.07C184.648 44.1 184.668 44.14 184.668 44.19C184.668 44.31 184.578 44.465 184.398 44.655C184.208 44.835 184.008 44.97 183.798 45.06C183.588 45.16 183.368 45.21 183.138 45.21C182.578 45.21 182.113 44.925 181.743 44.355H181.713C181.383 44.655 181.083 44.87 180.813 45C180.553 45.14 180.273 45.21 179.973 45.21ZM180.873 44.235C180.983 44.235 181.073 44.22 181.143 44.19C181.213 44.15 181.283 44.09 181.353 44.01C181.383 43.97 181.408 43.92 181.428 43.86C181.448 43.79 181.458 43.71 181.458 43.62L181.503 42.54C181.503 42.44 181.488 42.375 181.458 42.345C181.428 42.315 181.393 42.3 181.353 42.3C181.333 42.3 181.308 42.305 181.278 42.315C181.248 42.325 181.213 42.34 181.173 42.36C180.883 42.5 180.668 42.645 180.528 42.795C180.388 42.935 180.318 43.165 180.318 43.485C180.318 43.775 180.378 43.975 180.498 44.085C180.618 44.185 180.743 44.235 180.873 44.235ZM186.094 49.245C185.834 49.245 185.584 49.155 185.344 48.975C185.104 48.795 184.984 48.57 184.984 48.3C184.984 48.11 185.034 47.92 185.134 47.73C185.234 47.55 185.389 47.46 185.599 47.46C185.759 47.46 185.919 47.485 186.079 47.535C186.249 47.595 186.409 47.62 186.559 47.61C186.709 47.59 186.814 47.55 186.874 47.49C186.934 47.44 187.004 47.34 187.084 47.19C187.154 47.07 187.219 46.95 187.279 46.83C187.349 46.72 187.424 46.575 187.504 46.395C187.594 46.225 187.704 46 187.834 45.72C187.954 45.45 188.014 45.21 188.014 45C188.014 44.85 187.989 44.715 187.939 44.595C187.899 44.465 187.854 44.34 187.804 44.22L185.959 40.035C185.869 39.805 185.769 39.615 185.659 39.465C185.549 39.315 185.399 39.21 185.209 39.15C185.119 39.11 185.049 39.07 184.999 39.03C184.949 38.98 184.924 38.91 184.924 38.82C184.924 38.75 184.969 38.705 185.059 38.685C185.149 38.665 185.229 38.655 185.299 38.655C185.539 38.655 185.739 38.66 185.899 38.67C186.069 38.68 186.219 38.69 186.349 38.7C186.479 38.71 186.609 38.715 186.739 38.715C186.959 38.715 187.144 38.71 187.294 38.7C187.444 38.69 187.604 38.68 187.774 38.67C187.944 38.66 188.144 38.655 188.374 38.655C188.444 38.655 188.519 38.67 188.599 38.7C188.679 38.73 188.719 38.78 188.719 38.85C188.719 38.94 188.679 39.005 188.599 39.045C188.529 39.075 188.454 39.11 188.374 39.15C188.264 39.19 188.179 39.25 188.119 39.33C188.059 39.41 188.029 39.54 188.029 39.72C188.029 39.8 188.039 39.895 188.059 40.005C188.089 40.115 188.134 40.25 188.194 40.41L189.124 42.675C189.134 42.705 189.149 42.72 189.169 42.72C189.179 42.72 189.194 42.705 189.214 42.675L189.979 40.38C190.009 40.3 190.034 40.205 190.054 40.095C190.084 39.975 190.099 39.87 190.099 39.78C190.099 39.61 190.049 39.475 189.949 39.375C189.849 39.265 189.744 39.19 189.634 39.15C189.554 39.12 189.474 39.085 189.394 39.045C189.324 39.005 189.289 38.94 189.289 38.85C189.289 38.78 189.329 38.73 189.409 38.7C189.489 38.67 189.564 38.655 189.634 38.655C189.904 38.665 190.114 38.68 190.264 38.7C190.414 38.71 190.569 38.715 190.729 38.715C190.829 38.715 190.919 38.715 190.999 38.715C191.089 38.705 191.194 38.695 191.314 38.685C191.434 38.675 191.579 38.665 191.749 38.655C191.819 38.655 191.894 38.665 191.974 38.685C192.064 38.705 192.109 38.75 192.109 38.82C192.109 38.91 192.084 38.98 192.034 39.03C191.994 39.07 191.929 39.11 191.839 39.15C191.649 39.21 191.479 39.325 191.329 39.495C191.179 39.655 191.054 39.85 190.954 40.08L188.719 45.45C188.639 45.65 188.549 45.865 188.449 46.095C188.349 46.335 188.244 46.58 188.134 46.83C188.034 47.08 187.929 47.335 187.819 47.595C187.709 47.855 187.599 48.11 187.489 48.36C187.369 48.65 187.184 48.87 186.934 49.02C186.684 49.17 186.404 49.245 186.094 49.245ZM193.256 45.045C193.196 45.045 193.131 45.03 193.061 45C192.991 44.96 192.956 44.905 192.956 44.835C192.956 44.755 192.991 44.695 193.061 44.655C193.141 44.605 193.221 44.565 193.301 44.535C193.451 44.485 193.581 44.43 193.691 44.37C193.811 44.3 193.871 44.16 193.871 43.95V39.735C193.871 39.535 193.811 39.4 193.691 39.33C193.581 39.26 193.451 39.205 193.301 39.165C193.221 39.135 193.141 39.095 193.061 39.045C192.991 38.995 192.956 38.93 192.956 38.85C192.956 38.78 192.991 38.73 193.061 38.7C193.141 38.66 193.211 38.64 193.271 38.64C193.471 38.64 193.661 38.645 193.841 38.655C194.021 38.665 194.196 38.68 194.366 38.7C194.546 38.71 194.721 38.715 194.891 38.715C195.071 38.715 195.236 38.71 195.386 38.7C195.536 38.68 195.691 38.665 195.851 38.655C196.011 38.645 196.191 38.64 196.391 38.64C196.451 38.64 196.511 38.66 196.571 38.7C196.631 38.74 196.661 38.79 196.661 38.85C196.661 38.92 196.631 38.985 196.571 39.045C196.511 39.095 196.441 39.135 196.361 39.165C196.221 39.215 196.096 39.27 195.986 39.33C195.886 39.39 195.836 39.52 195.836 39.72V41.04C195.836 41.21 195.881 41.32 195.971 41.37C196.061 41.42 196.166 41.445 196.286 41.445H197.726C197.846 41.445 197.946 41.42 198.026 41.37C198.106 41.32 198.146 41.21 198.146 41.04V39.72C198.146 39.52 198.096 39.39 197.996 39.33C197.906 39.27 197.786 39.215 197.636 39.165C197.556 39.135 197.486 39.095 197.426 39.045C197.366 38.995 197.336 38.93 197.336 38.85C197.336 38.78 197.366 38.73 197.426 38.7C197.486 38.66 197.546 38.64 197.606 38.64C197.806 38.64 197.986 38.645 198.146 38.655C198.316 38.665 198.481 38.68 198.641 38.7C198.811 38.71 198.981 38.715 199.151 38.715C199.331 38.715 199.501 38.71 199.661 38.7C199.821 38.68 199.986 38.665 200.156 38.655C200.336 38.645 200.526 38.64 200.726 38.64C200.786 38.64 200.846 38.66 200.906 38.7C200.966 38.73 200.996 38.78 200.996 38.85C200.996 38.93 200.966 39 200.906 39.06C200.846 39.11 200.776 39.145 200.696 39.165C200.546 39.205 200.411 39.26 200.291 39.33C200.181 39.39 200.126 39.52 200.126 39.72V43.965C200.126 44.165 200.181 44.3 200.291 44.37C200.411 44.43 200.546 44.485 200.696 44.535C200.776 44.565 200.846 44.605 200.906 44.655C200.976 44.695 201.011 44.755 201.011 44.835C201.011 44.905 200.981 44.96 200.921 45C200.861 45.03 200.801 45.045 200.741 45.045C200.541 45.045 200.351 45.035 200.171 45.015C200.001 45.005 199.831 44.995 199.661 44.985C199.501 44.975 199.331 44.97 199.151 44.97C198.981 44.97 198.811 44.975 198.641 44.985C198.481 44.995 198.311 45.005 198.131 45.015C197.961 45.035 197.776 45.045 197.576 45.045C197.516 45.045 197.456 45.03 197.396 45C197.346 44.96 197.321 44.905 197.321 44.835C197.321 44.755 197.351 44.69 197.411 44.64C197.471 44.59 197.541 44.555 197.621 44.535C197.771 44.485 197.896 44.43 197.996 44.37C198.096 44.3 198.146 44.165 198.146 43.965V42.555C198.146 42.375 198.106 42.26 198.026 42.21C197.946 42.16 197.846 42.135 197.726 42.135H196.271C196.151 42.135 196.046 42.165 195.956 42.225C195.876 42.275 195.836 42.385 195.836 42.555V43.965C195.836 44.165 195.891 44.3 196.001 44.37C196.111 44.43 196.236 44.485 196.376 44.535C196.456 44.565 196.526 44.605 196.586 44.655C196.646 44.695 196.676 44.755 196.676 44.835C196.676 44.895 196.646 44.945 196.586 44.985C196.526 45.025 196.466 45.045 196.406 45.045C196.216 45.045 196.036 45.035 195.866 45.015C195.696 45.005 195.536 44.995 195.386 44.985C195.236 44.975 195.071 44.97 194.891 44.97C194.721 44.97 194.546 44.975 194.366 44.985C194.196 44.995 194.016 45.005 193.826 45.015C193.646 45.035 193.456 45.045 193.256 45.045ZM202.468 45.045C202.418 45.045 202.368 45.03 202.318 45C202.278 44.96 202.258 44.92 202.258 44.88C202.258 44.83 202.278 44.785 202.318 44.745C202.368 44.695 202.423 44.665 202.483 44.655C202.703 44.575 202.858 44.51 202.948 44.46C203.048 44.4 203.098 44.275 203.098 44.085V39.675C203.098 39.475 203.053 39.34 202.963 39.27C202.883 39.19 202.723 39.115 202.483 39.045C202.403 39.025 202.343 38.995 202.303 38.955C202.263 38.915 202.243 38.88 202.243 38.85C202.243 38.79 202.263 38.745 202.303 38.715C202.353 38.685 202.408 38.67 202.468 38.67C202.718 38.67 202.923 38.68 203.083 38.7C203.243 38.71 203.398 38.725 203.548 38.745C203.698 38.765 203.873 38.775 204.073 38.775C204.273 38.775 204.448 38.765 204.598 38.745C204.758 38.725 204.923 38.71 205.093 38.7C205.273 38.68 205.483 38.67 205.723 38.67C205.783 38.67 205.833 38.685 205.873 38.715C205.923 38.745 205.948 38.79 205.948 38.85C205.948 38.88 205.928 38.915 205.888 38.955C205.858 38.995 205.803 39.025 205.723 39.045C205.483 39.115 205.313 39.19 205.213 39.27C205.123 39.34 205.078 39.475 205.078 39.675V41.22C205.078 41.28 205.098 41.32 205.138 41.34C205.178 41.36 205.218 41.365 205.258 41.355C205.368 41.305 205.528 41.265 205.738 41.235C205.948 41.205 206.143 41.19 206.323 41.19C206.573 41.19 206.823 41.22 207.073 41.28C207.333 41.34 207.573 41.44 207.793 41.58C208.023 41.72 208.203 41.9 208.333 42.12C208.463 42.34 208.528 42.61 208.528 42.93C208.528 43.46 208.398 43.88 208.138 44.19C207.878 44.5 207.533 44.72 207.103 44.85C206.683 44.98 206.228 45.045 205.738 45.045C205.528 45.045 205.333 45.04 205.153 45.03C204.973 45.02 204.793 45.01 204.613 45C204.443 45 204.253 45 204.043 45C203.903 45 203.738 45 203.548 45C203.358 45.01 203.163 45.02 202.963 45.03C202.773 45.04 202.608 45.045 202.468 45.045ZM205.558 44.445C205.798 44.445 206.003 44.335 206.173 44.115C206.353 43.885 206.443 43.55 206.443 43.11C206.443 42.7 206.358 42.39 206.188 42.18C206.018 41.96 205.783 41.85 205.483 41.85C205.343 41.85 205.243 41.875 205.183 41.925C205.143 41.945 205.113 41.98 205.093 42.03C205.083 42.08 205.078 42.13 205.078 42.18V43.815C205.078 43.995 205.118 44.145 205.198 44.265C205.288 44.385 205.408 44.445 205.558 44.445ZM208.693 45.045C208.643 45.045 208.588 45.03 208.528 45C208.478 44.96 208.453 44.91 208.453 44.85C208.453 44.77 208.478 44.705 208.528 44.655C208.578 44.605 208.643 44.57 208.723 44.55C208.973 44.49 209.153 44.425 209.263 44.355C209.373 44.285 209.428 44.165 209.428 43.995V39.72C209.428 39.55 209.373 39.425 209.263 39.345C209.163 39.265 208.988 39.195 208.738 39.135C208.658 39.115 208.593 39.08 208.543 39.03C208.493 38.97 208.468 38.905 208.468 38.835C208.468 38.775 208.493 38.73 208.543 38.7C208.603 38.66 208.663 38.64 208.723 38.64C208.923 38.64 209.113 38.645 209.293 38.655C209.483 38.665 209.668 38.68 209.848 38.7C210.038 38.71 210.218 38.715 210.388 38.715C210.568 38.715 210.753 38.71 210.943 38.7C211.143 38.69 211.343 38.68 211.543 38.67C211.753 38.66 211.953 38.655 212.143 38.655C212.213 38.655 212.268 38.67 212.308 38.7C212.358 38.73 212.383 38.78 212.383 38.85C212.383 38.93 212.353 38.99 212.293 39.03C212.243 39.07 212.178 39.105 212.098 39.135C211.828 39.215 211.643 39.3 211.543 39.39C211.443 39.47 211.393 39.58 211.393 39.72V43.98C211.393 44.13 211.448 44.245 211.558 44.325C211.668 44.395 211.853 44.47 212.113 44.55C212.193 44.58 212.258 44.615 212.308 44.655C212.358 44.695 212.383 44.755 212.383 44.835C212.383 44.905 212.358 44.955 212.308 44.985C212.268 45.015 212.218 45.03 212.158 45.03C211.958 45.03 211.753 45.025 211.543 45.015C211.343 45.005 211.143 44.995 210.943 44.985C210.753 44.975 210.568 44.97 210.388 44.97C210.218 44.97 210.038 44.975 209.848 44.985C209.668 44.995 209.478 45.005 209.278 45.015C209.088 45.035 208.893 45.045 208.693 45.045ZM213.834 42.54C213.734 42.55 213.684 42.5 213.684 42.39C213.684 42.09 213.709 41.865 213.759 41.715C213.819 41.555 213.904 41.465 214.014 41.445C214.554 41.365 215.119 41.285 215.709 41.205C216.309 41.125 216.879 41.065 217.419 41.025C217.509 41.015 217.569 41.035 217.599 41.085C217.629 41.125 217.644 41.18 217.644 41.25C217.644 41.55 217.624 41.76 217.584 41.88C217.544 42 217.464 42.07 217.344 42.09C216.814 42.17 216.234 42.255 215.604 42.345C214.974 42.425 214.384 42.49 213.834 42.54Z" fill="#A7AAAF"/>
</svg>
