<svg width="220" height="51" viewBox="0 0 220 51" fill="none" xmlns="http://www.w3.org/2000/svg">
<path d="M16.0688 1.01509V2.30832H14.347C14.4522 3.37098 14.6703 4.93488 15.0011 7.00005C15.3369 9.0602 15.7404 11.2231 16.2116 13.4888C16.6828 15.7544 17.1414 17.6141 17.5876 19.0677C18.0387 20.5214 18.4247 21.2482 18.7455 21.2482C18.8557 21.2482 19.0086 21.188 19.2041 21.0677C19.3996 20.9424 19.7204 20.8797 20.1665 20.8797C20.4572 20.8797 20.6778 20.9875 20.8282 21.2031C20.9836 21.4186 21.0612 21.6592 21.0612 21.9249C21.0612 22.1153 20.9259 22.5464 20.6552 23.2181C20.3896 23.8998 20.174 24.6592 20.0086 25.4963C19.8332 26.5289 19.6903 27.2131 19.58 27.5489C19.4748 27.8848 19.2292 28.0527 18.8432 28.0527C18.4973 28.0527 18.2643 27.9249 18.144 27.6692C18.0237 27.4186 17.9384 27.0953 17.8883 26.6993C17.6176 24.8898 17.0337 23.7494 16.1364 23.2782C15.2392 22.8071 14.0763 22.5715 12.6477 22.5715H9.51238C8.00862 22.5715 6.8808 22.6667 6.12892 22.8572C5.38205 23.0527 4.83318 23.386 4.4823 23.8572C4.13142 24.3284 3.83568 25.0401 3.59508 25.9925C3.39458 26.7494 3.22917 27.2807 3.09884 27.5865C2.96852 27.8973 2.7229 28.0527 2.362 28.0527C2.03619 28.0527 1.82315 27.9224 1.7229 27.6617C1.62265 27.401 1.53994 27.0502 1.47478 26.6091C1.29433 25.1003 0.98606 23.8672 0.54997 22.9098C0.344456 22.4136 0.241699 22.0351 0.241699 21.7745C0.241699 21.4587 0.367013 21.2306 0.617639 21.0903C0.868266 20.9499 1.14395 20.8797 1.44471 20.8797C1.60511 20.8797 1.8006 20.8998 2.03117 20.9399C2.26175 20.98 2.43468 21 2.54997 21C2.98606 21 3.25674 20.8271 3.362 20.4813C3.47228 20.1354 3.58255 19.5489 3.69283 18.7219C3.85323 17.4386 4.14395 16.1579 4.56501 14.8797C4.99107 13.6016 5.47228 12.4086 6.00862 11.3008C6.54496 10.193 7.10636 9.14541 7.69283 8.15794C8.22415 7.2607 8.63769 6.46872 8.93343 5.782C9.23418 5.09027 9.38456 4.39353 9.38456 3.69178C9.38456 2.76947 8.78055 2.30832 7.57253 2.30832H5.90335V1.01509H16.0688ZM8.0011 21.2782H13.362C13.2066 20.7118 13.0888 20.2707 13.0086 19.9549C12.9284 19.6391 12.8407 19.3108 12.7455 18.97C11.8933 15.8472 11.144 12.5414 10.4973 9.05268C10.4272 8.60656 10.3244 8.04265 10.1891 7.36095C9.50235 8.23313 8.86576 9.22561 8.27929 10.3384C7.69784 11.4512 7.19157 12.5815 6.7605 13.7294C6.32942 14.8722 5.99609 15.9374 5.7605 16.9249C5.52992 17.9123 5.41463 18.6968 5.41463 19.2782C5.41463 19.8497 5.49734 20.2782 5.66275 20.564C5.83318 20.8447 6.09634 21.0351 6.45223 21.1354C6.81313 21.2306 7.32942 21.2782 8.0011 21.2782Z" fill="#7AB900"/>
<path d="M31.0474 21.2782H33.0474C32.5211 19.6843 32.0524 18.0602 31.6414 16.4061C31.2354 14.7469 30.902 13.2757 30.6414 11.9925C30.3807 10.7043 30.1376 9.44616 29.9121 8.21809C29.7166 7.13037 29.5411 6.27824 29.3858 5.6617C28.8344 6.30331 28.2504 7.22812 27.6339 8.43614C26.0499 11.3835 25.2579 13.8572 25.2579 15.8572C25.2579 16.8096 25.2905 17.5038 25.3557 17.9399C25.4259 18.371 25.5136 18.6467 25.6188 18.767C25.7291 18.8823 25.867 18.9399 26.0324 18.9399H26.2128C26.4534 18.9399 26.6364 19.1404 26.7617 19.5414C26.887 19.9424 26.9497 20.8096 26.9497 22.1429C26.9497 22.4386 26.8068 22.6542 26.5211 22.7895C26.3256 22.8697 26.1 22.9098 25.8444 22.9098C25.5988 22.9098 25.2504 22.8697 24.7993 22.7895C24.6138 22.7695 24.3356 22.7594 23.9647 22.7594C23.5336 22.7594 23.2053 22.7695 22.9797 22.7895C22.3983 22.7895 21.9797 22.7193 21.7241 22.579C21.4735 22.4386 21.3281 22.1479 21.288 21.7068V20.6316C21.3281 19.8797 21.4284 19.1329 21.5888 18.391C21.7542 17.6492 22.0349 16.7895 22.4309 15.8121C22.8319 14.8296 23.4158 13.5915 24.1828 12.0978C24.7442 11.0101 25.2178 10.0928 25.6038 9.34591C25.9898 8.59403 26.1928 8.19804 26.2128 8.15794C26.8344 7.02511 27.3532 6.02762 27.7692 5.16546C28.1903 4.30331 28.4008 3.60656 28.4008 3.07524C28.4008 2.7394 28.3131 2.52887 28.1376 2.44366C27.9622 2.35343 27.7015 2.30832 27.3557 2.30832H25.2279V1.01509H35.3933V2.30832H33.5136C33.8494 4.8196 34.3657 7.6216 35.0625 10.7143C35.7642 13.8021 36.501 16.6141 37.273 19.1504C37.4835 19.8221 37.6765 20.5314 37.8519 21.2782H40.1V22.5715H31.0474V21.2782Z" fill="#7AB900"/>
<path d="M60.2742 1.01509V2.30832H57.7178V21.2782H60.2742V22.5715H51.4396V21.2782H52.9509V11.8572C51.8331 11.8572 50.7955 12.1304 49.8381 12.6767C48.8807 13.2231 48.0962 14.1504 47.4847 15.4587C46.8782 16.767 46.5749 18.4913 46.5749 20.6316V21.2782H47.7704V22.5715H39.8306V21.2782H41.2441C41.3093 19.6091 41.62 18.1579 42.1764 16.9249C42.7328 15.6918 43.4596 14.6868 44.3569 13.9098C45.2591 13.1279 46.2692 12.5389 47.387 12.1429C48.5048 11.7469 49.6601 11.5264 50.8531 11.4813V11.0226C47.6902 10.6066 45.3694 9.71433 43.8907 8.34591C42.412 6.97749 41.6727 5.45619 41.6727 3.782C41.6727 2.91985 41.8581 2.29077 42.2291 1.89478C42.605 1.49378 43.0987 1.24817 43.7103 1.15794C44.3268 1.0627 45.2291 1.01509 46.417 1.01509H60.2742ZM52.9509 9.57148V2.30832H49.4396C47.8757 2.30832 47.0937 2.93488 47.0937 4.18802C47.0937 5.06521 47.3418 5.91734 47.8381 6.74441C48.3343 7.56646 49.0286 8.23814 49.9208 8.75945C50.813 9.28075 51.823 9.55143 52.9509 9.57148Z" fill="#7AB900"/>
<path d="M61.313 14.9925H70.2453V16.782H61.313V14.9925Z" fill="#7AB900"/>
<path d="M71.3067 1.01509H82.2991C83.2766 1.01509 83.9082 0.992529 84.1939 0.947416C84.4796 0.902303 84.635 0.83714 84.66 0.751927C84.6851 0.661702 84.8104 0.596539 85.036 0.556439C85.2666 0.511326 85.863 0.48877 86.8255 0.48877C87.1463 0.48877 87.3944 0.599045 87.5698 0.819597C87.7503 1.04015 87.8405 1.33087 87.8405 1.69178C87.8405 1.81709 87.8129 1.96496 87.7578 2.13539C87.7077 2.3008 87.6275 2.51383 87.5172 2.77448C87.4069 3.03012 87.3192 3.25318 87.254 3.44366C86.9783 4.1805 86.8054 4.91985 86.7352 5.6617C86.6651 6.38852 86.5823 6.90481 86.4871 7.21057C86.3919 7.51634 86.1563 7.66922 85.7803 7.66922C85.4696 7.66922 85.259 7.57398 85.1488 7.38351C85.0385 7.19303 84.9207 6.85719 84.7954 6.37599C84.4746 5.19303 84.0911 4.30581 83.645 3.71433C83.1989 3.11784 82.7327 2.73438 82.2465 2.56396C81.7653 2.39353 81.2089 2.30832 80.5773 2.30832H78.6375V10.0376C79.3142 10.6843 80.3217 11.2532 81.66 11.7444C82.9984 12.2306 84.2164 12.4737 85.3142 12.4737C85.5147 12.4737 85.9357 12.4512 86.5773 12.4061C87.3142 12.4061 87.828 12.5314 88.1187 12.782C88.4094 13.0326 88.5548 13.5765 88.5548 14.4136V20.4136C88.5548 20.965 88.5172 21.3835 88.442 21.6692C88.3718 21.9549 88.1989 22.178 87.9232 22.3384C87.6475 22.4938 87.2089 22.5715 86.6074 22.5715H71.3067V21.2782H73.863V2.30832H71.3067V1.01509ZM78.6375 21.2782H82.4194C82.9307 21.2782 83.2841 21.1479 83.4796 20.8873C83.6801 20.6266 83.7803 20.0702 83.7803 19.2181V15.7369C83.7803 15.2757 83.7102 14.9399 83.5698 14.7294C83.4345 14.5188 83.061 14.2482 82.4495 13.9173C81.3718 13.3259 80.5899 12.8672 80.1036 12.5414C79.6224 12.2156 79.1337 11.772 78.6375 11.2106V21.2782Z" fill="#7AB900"/>
<path d="M97.0071 1.87223H94.6387V0.578995H104.218V1.87223H101.782L107.451 21.2782H109.579V22.5715H100.338V21.2782H102.676L100.368 13.3008C100.157 14.3234 99.8191 15.4111 99.353 16.564C98.8918 17.7118 98.3379 18.7745 97.6913 19.7519C97.0447 20.7244 96.3229 21.5088 95.5259 22.1053C94.7339 22.7018 93.9144 23 93.0673 23C92.1149 23 91.3003 22.6943 90.6236 22.0828C89.952 21.4662 89.6161 20.5414 89.6161 19.3083C89.6161 18.2156 89.8567 17.0151 90.3379 15.7068C90.8191 14.3935 91.4382 13.0727 92.1951 11.7444C92.952 10.4161 93.8292 8.99504 94.8267 7.48125C94.8868 7.38601 95.1951 6.92235 95.7515 6.09027C96.3079 5.25318 96.6713 4.6191 96.8417 4.18802C97.0171 3.75193 97.1049 3.28827 97.1049 2.79704C97.1049 2.51133 97.0723 2.20306 97.0071 1.87223ZM99.4733 10.376L98.0898 5.48125C96.9369 7.07524 95.952 8.62411 95.1349 10.1279C94.5485 11.1805 94.0648 12.1554 93.6838 13.0527C93.3028 13.9449 93.0572 14.8998 92.947 15.9173V16.7219C93.1023 17.7244 93.6863 18.2256 94.6988 18.2256C95.4758 18.2256 96.2076 17.767 96.8943 16.8497C97.581 15.9324 98.1525 14.8547 98.6086 13.6166C99.0648 12.3735 99.353 11.2933 99.4733 10.376Z" fill="#7AB900"/>
<path d="M117.106 9.68476V21.2782H119.226V22.5715H109.775V21.2782H112.332V2.30832H109.775V1.01509H119.226V2.30832H117.106V7.62461L123.911 7.62467V2.30832H121.783V1.01509H131.241V2.30832H128.685V21.2782H131.241V22.5715H121.783V21.2782H123.911V9.68807L117.106 9.68476Z" fill="#7AB900"/>
<path d="M146.558 7.63163L139.754 15.9474V21.2782H141.874V22.5715H132.423V21.2782H134.979V2.30832H132.423V1.01509H141.874V2.30832H139.754V13.9173L146.558 5.57148V2.30832H144.431V1.01509H153.889V2.30832H151.333V21.2782H153.889V22.5715H144.431V21.2782H146.558V7.63163Z" fill="#7AB900"/>
<path d="M155.808 20.6316C155.808 20.0201 155.833 19.584 155.883 19.3234C155.933 19.0627 156.003 18.9023 156.093 18.8422C156.189 18.782 156.339 18.7519 156.545 18.7519C156.815 18.772 157.166 18.782 157.597 18.782C157.878 18.782 158.309 18.762 158.89 18.7219H159.199C159.464 18.762 159.597 18.9148 159.597 19.1805C159.597 19.371 159.592 19.6266 159.582 19.9474C159.572 20.2682 159.567 20.5063 159.567 20.6617C159.567 20.8021 159.572 21.0301 159.582 21.3459C159.592 21.6617 159.597 21.9173 159.597 22.1128C159.597 22.3785 159.464 22.5314 159.199 22.5715H158.89C158.309 22.5314 157.878 22.5113 157.597 22.5113C157.166 22.5113 156.815 22.5214 156.545 22.5414C156.179 22.5414 155.986 22.4787 155.966 22.3534C155.86 22.168 155.808 21.594 155.808 20.6316Z" fill="#7AB900"/>
<path d="M168.839 14.3459V21.2782H171.395V22.5715H161.508V21.2782H164.065V10.0076C164.065 8.40356 164.095 6.84215 164.155 5.32336C164.761 3.84967 165.736 2.69178 167.08 1.84967C168.428 1.00255 169.927 0.578995 171.576 0.578995C173.205 0.578995 174.606 0.849672 175.779 1.39103C176.952 1.93238 177.841 2.67423 178.448 3.61659C179.06 4.55894 179.365 5.60155 179.365 6.74441C179.365 7.85719 179.14 8.86972 178.689 9.782C178.237 10.6943 177.613 11.4111 176.816 11.9324C176.024 12.4537 175.14 12.7143 174.162 12.7143C173.661 12.7143 173.263 12.6592 172.967 12.5489C172.671 12.4336 172.227 12.2231 171.636 11.9173C171.32 11.7569 171.095 11.6442 170.959 11.579L168.839 14.3459ZM168.839 12.5038L170.809 10.0076C170.999 10.1579 171.207 10.2833 171.433 10.3835C171.664 10.4787 171.834 10.5264 171.944 10.5264C172.43 10.5264 172.887 10.2582 173.313 9.72185C173.739 9.1805 173.952 8.16546 173.952 6.67674C173.952 5.19303 173.769 4.0226 173.403 3.16546C173.042 2.30331 172.36 1.87223 171.358 1.87223C170.606 1.87223 170.044 2.1404 169.674 2.67674C169.308 3.21308 169.077 3.87223 168.982 4.65418C168.887 5.43614 168.839 6.41859 168.839 7.60155V12.5038Z" fill="#7AB900"/>
<path d="M192.675 22.5715H191.073C190.998 23.5489 190.948 24.3384 190.923 24.9399V26.3309C190.943 27.3885 191.066 28.4462 191.291 29.5038V30.2707L188.427 30.4888C188.427 28.6041 188.57 26.6316 188.855 24.5715C188.905 24.1254 188.988 23.4587 189.103 22.5715H186.299L181.404 2.30832H180.141V1.01509H188.427V2.30832H186.299L190.148 18.7219C191.537 12.2807 192.687 7.60907 193.6 4.70681C193.86 3.91483 194.131 3.23564 194.412 2.66922C194.692 2.09779 195.091 1.60656 195.607 1.19554C196.128 0.784509 196.783 0.578995 197.57 0.578995C197.986 0.578995 198.489 0.659196 199.081 0.819597C199.672 0.979998 200.053 1.18802 200.224 1.44366C200.179 1.71935 200.086 2.02762 199.945 2.36847C199.8 2.67925 199.702 3.03012 199.652 3.4211C199.602 3.81208 199.577 4.55894 199.577 5.6617H199.111C198.991 5.60155 198.908 5.56145 198.863 5.5414C198.818 5.52135 198.715 5.46872 198.554 5.38351C197.978 5.07774 197.557 4.92486 197.291 4.92486C196.554 4.92486 195.895 5.35343 195.314 6.21057C194.737 7.06772 194.251 8.12285 193.855 9.37599C193.459 10.6241 193.116 11.9499 192.825 13.3534C192.539 14.7569 192.314 15.8697 192.148 16.6918C191.702 18.8121 191.364 20.3409 191.133 21.2782H192.675V22.5715Z" fill="#7AB900"/>
<path d="M219.826 8.65418H211.759V7.36095H213.082C213.082 5.3008 212.759 3.87223 212.112 3.07524C211.47 2.27323 210.684 1.87223 209.751 1.87223C209.12 1.87223 208.526 2.07273 207.969 2.47373C207.413 2.86972 206.954 3.55894 206.593 4.5414C206.237 5.52386 206.059 6.84215 206.059 8.49629C206.059 9.71433 206.147 10.8747 206.323 11.9775C206.498 13.0802 206.779 14.4462 207.165 16.0752C207.616 17.8647 207.841 19.3534 207.841 20.5414C207.841 20.6767 207.829 20.8246 207.804 20.985C207.779 21.1454 207.744 21.3058 207.699 21.4662C207.658 21.6266 207.626 21.7494 207.601 21.8346C207.576 21.9349 207.551 22.0201 207.526 22.0903C207.506 22.1554 207.488 22.2131 207.473 22.2632C207.668 22.3885 207.917 22.4512 208.217 22.4512C208.959 22.4512 209.714 22.0878 210.48 21.3609C211.247 20.6291 211.876 19.6767 212.368 18.5038C212.864 17.3259 213.112 16.1153 213.112 14.8722C213.112 14.5414 213.102 14.2958 213.082 14.1354H211.759V12.8422H219.826V14.1354H218.563C218.503 15.4186 218.157 16.6166 217.526 17.7294C216.894 18.8371 216.064 19.8096 215.037 20.6467C214.009 21.4787 212.887 22.1203 211.668 22.5715C210.455 23.0226 209.272 23.2482 208.12 23.2482C207.247 23.2482 206.498 23.1254 205.871 22.8797V22.4512C205.871 21.9148 205.834 21.4487 205.759 21.0527C205.684 20.6567 205.478 20.1479 205.142 19.5264C204.811 18.8998 204.285 18.1078 203.563 17.1504C202.716 16.0677 202.077 15.1153 201.646 14.2933C201.215 13.4662 200.939 12.7494 200.819 12.1429C200.699 11.5364 200.638 10.8647 200.638 10.1279C200.638 8.19804 201.062 6.50882 201.909 5.0602C202.761 3.61158 203.907 2.50381 205.345 1.73689C206.789 0.96496 208.36 0.578995 210.059 0.578995C212.937 0.578995 215.004 1.29328 216.262 2.72185C217.521 4.14541 218.288 5.69178 218.563 7.36095H219.826V8.65418Z" fill="#7AB900"/>
<path d="M0.54 43.0288C0.44 43.0388 0.39 42.9888 0.39 42.8788C0.39 42.5788 0.415 42.3538 0.465 42.2038C0.525 42.0438 0.61 41.9538 0.72 41.9338C1.26 41.8538 1.825 41.7738 2.415 41.6938C3.015 41.6138 3.585 41.5538 4.125 41.5138C4.215 41.5038 4.275 41.5238 4.305 41.5738C4.335 41.6138 4.35 41.6688 4.35 41.7388C4.35 42.0388 4.33 42.2488 4.29 42.3688C4.25 42.4888 4.17 42.5588 4.05 42.5788C3.52 42.6588 2.94 42.7438 2.31 42.8338C1.68 42.9138 1.09 42.9788 0.54 43.0288ZM5.90109 45.5638C5.81109 45.5638 5.73609 45.5388 5.67609 45.4888C5.62609 45.4488 5.60109 45.3988 5.60109 45.3388C5.60109 45.1888 5.71109 45.0838 5.93109 45.0238C6.27109 44.9338 6.51109 44.8288 6.65109 44.7088C6.80109 44.5888 6.87609 44.3688 6.87609 44.0488V37.2238C6.87609 36.9038 6.81109 36.6738 6.68109 36.5338C6.55109 36.3838 6.31109 36.2738 5.96109 36.2038C5.83109 36.1738 5.74109 36.1338 5.69109 36.0838C5.64109 36.0238 5.61609 35.9588 5.61609 35.8888C5.61609 35.8288 5.64609 35.7788 5.70609 35.7388C5.76609 35.6888 5.84109 35.6638 5.93109 35.6638C6.25109 35.6638 6.51609 35.6738 6.72609 35.6938C6.93609 35.7138 7.13109 35.7338 7.31109 35.7538C7.50109 35.7638 7.72109 35.7688 7.97109 35.7688C8.20109 35.7688 8.41109 35.7588 8.60109 35.7388C8.79109 35.7088 9.00109 35.6838 9.23109 35.6638C9.47109 35.6438 9.76109 35.6338 10.1011 35.6338C11.2911 35.6338 12.1911 35.8038 12.8011 36.1438C13.4211 36.4738 13.7311 37.0488 13.7311 37.8688C13.7311 38.1788 13.6611 38.4738 13.5211 38.7538C13.3811 39.0238 13.2011 39.2488 12.9811 39.4288C12.8211 39.5688 12.6511 39.6838 12.4711 39.7738C12.3011 39.8638 12.1061 39.9388 11.8861 39.9988C11.8461 40.0088 11.8261 40.0338 11.8261 40.0738C11.8261 40.1138 11.8461 40.1388 11.8861 40.1488C12.1461 40.2088 12.4161 40.2888 12.6961 40.3888C12.9761 40.4788 13.2361 40.6138 13.4761 40.7938C13.7261 40.9738 13.9211 41.2088 14.0611 41.4988C14.2111 41.7788 14.2861 42.1388 14.2861 42.5788C14.2861 43.1388 14.1961 43.5838 14.0161 43.9138C13.8461 44.2338 13.6361 44.4788 13.3861 44.6488C13.1461 44.8188 12.9211 44.9588 12.7111 45.0688C12.3811 45.2288 12.0061 45.3488 11.5861 45.4288C11.1661 45.5088 10.6661 45.5488 10.0861 45.5488C9.75609 45.5488 9.42109 45.5388 9.08109 45.5188C8.75109 45.4988 8.40109 45.4888 8.03109 45.4888C7.82109 45.4888 7.59109 45.4938 7.34109 45.5038C7.09109 45.5138 6.84109 45.5238 6.59109 45.5338C6.35109 45.5538 6.12109 45.5638 5.90109 45.5638ZM10.1011 44.7238C10.4011 44.7238 10.6811 44.6338 10.9411 44.4538C11.2111 44.2738 11.4211 44.0338 11.5711 43.7338C11.7311 43.4238 11.8111 43.0738 11.8111 42.6838C11.8111 42.3438 11.7661 42.0588 11.6761 41.8288C11.5961 41.5988 11.4961 41.4138 11.3761 41.2738C11.2661 41.1338 11.1611 41.0288 11.0611 40.9588C10.9811 40.8888 10.8361 40.8188 10.6261 40.7488C10.4261 40.6688 10.1761 40.6288 9.87609 40.6288C9.70609 40.6288 9.54609 40.6738 9.39609 40.7638C9.25609 40.8438 9.18609 40.9638 9.18609 41.1238V43.7638C9.18609 44.0938 9.26609 44.3388 9.42609 44.4988C9.58609 44.6488 9.81109 44.7238 10.1011 44.7238ZM9.78609 39.9538C10.0261 39.9538 10.2461 39.9288 10.4461 39.8788C10.6461 39.8188 10.8511 39.7088 11.0611 39.5488C11.1311 39.4788 11.2261 39.3388 11.3461 39.1288C11.4761 38.9088 11.5411 38.5938 11.5411 38.1838C11.5411 37.7638 11.4861 37.4138 11.3761 37.1338C11.2661 36.8538 11.0961 36.6438 10.8661 36.5038C10.6461 36.3638 10.3511 36.2938 9.98109 36.2938C9.70109 36.2938 9.49609 36.3488 9.36609 36.4588C9.24609 36.5588 9.18609 36.7138 9.18609 36.9238V39.4288C9.18609 39.6288 9.25609 39.7688 9.39609 39.8488C9.53609 39.9188 9.66609 39.9538 9.78609 39.9538ZM18.5007 45.6988C17.9707 45.6988 17.4907 45.5588 17.0607 45.2788C16.6407 44.9888 16.3057 44.6038 16.0557 44.1238C15.8157 43.6338 15.6957 43.0838 15.6957 42.4738C15.6957 41.8238 15.8457 41.2388 16.1457 40.7188C16.4457 40.1988 16.8457 39.7838 17.3457 39.4738C17.8557 39.1638 18.4207 39.0088 19.0407 39.0088C19.8607 39.0088 20.5407 39.2788 21.0807 39.8188C21.1707 39.9188 21.2157 40.0088 21.2157 40.0888C21.2157 40.1488 21.1707 40.2388 21.0807 40.3588C20.9907 40.4688 20.8907 40.5688 20.7807 40.6588C20.6707 40.7488 20.5757 40.7938 20.4957 40.7938C20.4057 40.7938 20.3157 40.7688 20.2257 40.7188C20.1457 40.6588 20.0657 40.5938 19.9857 40.5238C19.7257 40.3038 19.4607 40.1288 19.1907 39.9988C18.9307 39.8588 18.7057 39.7888 18.5157 39.7888C18.1357 39.7888 17.8457 39.9488 17.6457 40.2688C17.4557 40.5788 17.3607 41.0888 17.3607 41.7988C17.3607 42.2888 17.4357 42.7138 17.5857 43.0738C17.7457 43.4238 17.9707 43.6938 18.2607 43.8838C18.5507 44.0738 18.9007 44.1688 19.3107 44.1688C19.6107 44.1688 19.8707 44.1238 20.0907 44.0338C20.3107 43.9338 20.5407 43.7838 20.7807 43.5838C20.8307 43.5538 20.8707 43.5238 20.9007 43.4938C20.9407 43.4638 20.9857 43.4488 21.0357 43.4488C21.1557 43.4488 21.2157 43.5288 21.2157 43.6888C21.2157 43.7288 21.2057 43.7888 21.1857 43.8688C21.1757 43.9388 21.1457 44.0188 21.0957 44.1088C21.0057 44.3088 20.8307 44.5338 20.5707 44.7838C20.3207 45.0338 20.0207 45.2488 19.6707 45.4288C19.3207 45.6088 18.9307 45.6988 18.5007 45.6988ZM25.2091 45.6988C24.6691 45.6988 24.1841 45.5588 23.7541 45.2788C23.3341 44.9888 22.9991 44.5988 22.7491 44.1088C22.5091 43.6088 22.3891 43.0438 22.3891 42.4138C22.3891 41.7838 22.5341 41.2138 22.8241 40.7038C23.1141 40.1838 23.5091 39.7738 24.0091 39.4738C24.5091 39.1638 25.0591 39.0088 25.6591 39.0088C26.0891 39.0088 26.4741 39.1038 26.8141 39.2938C27.1541 39.4738 27.4241 39.7188 27.6241 40.0288C27.8341 40.3388 27.9391 40.6888 27.9391 41.0788C27.9391 41.4588 27.7841 41.6488 27.4741 41.6488H24.4741C24.3341 41.6488 24.2291 41.6888 24.1591 41.7688C24.0991 41.8488 24.0691 41.9838 24.0691 42.1738C24.0691 42.5538 24.1541 42.9038 24.3241 43.2238C24.4941 43.5338 24.7241 43.7788 25.0141 43.9588C25.3041 44.1388 25.6391 44.2288 26.0191 44.2288C26.3091 44.2288 26.5741 44.1738 26.8141 44.0638C27.0641 43.9538 27.3091 43.8038 27.5491 43.6138C27.5891 43.5838 27.6241 43.5588 27.6541 43.5388C27.6941 43.5088 27.7291 43.4938 27.7591 43.4938C27.8591 43.4938 27.9091 43.5588 27.9091 43.6888C27.9091 43.7988 27.8691 43.9488 27.7891 44.1388C27.6891 44.3888 27.5191 44.6388 27.2791 44.8888C27.0491 45.1288 26.7591 45.3238 26.4091 45.4738C26.0591 45.6238 25.6591 45.6988 25.2091 45.6988ZM24.4741 41.0188H25.3741C25.6541 41.0188 25.8491 41.0138 25.9591 41.0038C26.0691 40.9938 26.1691 40.9738 26.2591 40.9438C26.3091 40.9238 26.3491 40.8738 26.3791 40.7938C26.4091 40.7138 26.4241 40.6238 26.4241 40.5238C26.4241 40.2538 26.3291 40.0338 26.1391 39.8638C25.9591 39.6938 25.7341 39.6088 25.4641 39.6088C25.2541 39.6088 25.0541 39.6688 24.8641 39.7888C24.6841 39.8988 24.5341 40.0488 24.4141 40.2388C24.3041 40.4188 24.2541 40.6088 24.2641 40.8088C24.2641 40.9488 24.3341 41.0188 24.4741 41.0188ZM34.5558 45.6988C34.1558 45.6988 33.8458 45.5988 33.6258 45.3988C33.4158 45.1888 33.3108 44.9488 33.3108 44.6788C33.3108 44.4688 33.3708 44.2788 33.4908 44.1088C33.6208 43.9288 33.7958 43.8388 34.0158 43.8388C34.1358 43.8388 34.2508 43.8638 34.3608 43.9138C34.4808 43.9638 34.5808 44.0288 34.6608 44.1088C34.7408 44.1888 34.8158 44.2588 34.8858 44.3188C34.9558 44.3788 35.0258 44.4088 35.0958 44.4088C35.2258 44.4088 35.3408 44.2738 35.4408 44.0038C35.5508 43.7338 35.6408 43.3888 35.7108 42.9688C35.7908 42.5488 35.8508 42.1138 35.8908 41.6638C35.9308 41.2038 35.9508 40.7838 35.9508 40.4038C35.9508 40.1438 35.8758 39.9688 35.7258 39.8788C35.5858 39.7888 35.4108 39.7188 35.2008 39.6688C35.0908 39.6388 35.0008 39.6038 34.9308 39.5638C34.8608 39.5238 34.8258 39.4538 34.8258 39.3538C34.8258 39.2938 34.8608 39.2438 34.9308 39.2038C35.0108 39.1538 35.0758 39.1288 35.1258 39.1288C35.4058 39.1288 35.6758 39.1438 35.9358 39.1738C36.1958 39.1938 36.4458 39.2038 36.6858 39.2038H39.3558C39.6058 39.2038 39.8558 39.1938 40.1058 39.1738C40.3558 39.1438 40.6208 39.1288 40.9008 39.1288C40.9508 39.1288 41.0058 39.1538 41.0658 39.2038C41.1258 39.2438 41.1558 39.2938 41.1558 39.3538C41.1558 39.4338 41.1258 39.4988 41.0658 39.5488C41.0058 39.5988 40.9408 39.6388 40.8708 39.6688C40.7008 39.7088 40.5608 39.7688 40.4508 39.8488C40.3408 39.9188 40.2858 40.0738 40.2858 40.3138V44.4538C40.2858 44.6538 40.3408 44.7888 40.4508 44.8588C40.5608 44.9188 40.6908 44.9738 40.8408 45.0238C40.9208 45.0538 40.9908 45.0938 41.0508 45.1438C41.1208 45.1838 41.1558 45.2438 41.1558 45.3238C41.1558 45.3938 41.1258 45.4488 41.0658 45.4888C41.0058 45.5188 40.9458 45.5338 40.8858 45.5338C40.6858 45.5338 40.4958 45.5238 40.3158 45.5038C40.1458 45.4938 39.9808 45.4838 39.8208 45.4738C39.6608 45.4638 39.4908 45.4588 39.3108 45.4588C39.1408 45.4588 38.9708 45.4638 38.8008 45.4738C38.6408 45.4838 38.4708 45.4938 38.2908 45.5038C38.1208 45.5238 37.9408 45.5338 37.7508 45.5338C37.6908 45.5338 37.6308 45.5188 37.5708 45.4888C37.5208 45.4488 37.4958 45.3938 37.4958 45.3238C37.4958 45.2438 37.5258 45.1838 37.5858 45.1438C37.6458 45.0938 37.7158 45.0538 37.7958 45.0238C37.9458 44.9738 38.0708 44.9188 38.1708 44.8588C38.2708 44.7888 38.3208 44.6538 38.3208 44.4538V40.3738C38.3208 40.1938 38.2808 40.0688 38.2008 39.9988C38.1208 39.9188 38.0058 39.8788 37.8558 39.8788H37.0158C36.8558 39.8788 36.7458 39.9438 36.6858 40.0738C36.6358 40.1938 36.6108 40.3038 36.6108 40.4038C36.6108 40.8038 36.5908 41.2388 36.5508 41.7088C36.5208 42.1788 36.4608 42.6488 36.3708 43.1188C36.2808 43.5888 36.1558 44.0188 35.9958 44.4088C35.8358 44.7988 35.6358 45.1138 35.3958 45.3538C35.1658 45.5838 34.8858 45.6988 34.5558 45.6988ZM43.3418 49.7338C43.0818 49.7338 42.8318 49.6438 42.5918 49.4638C42.3518 49.2838 42.2318 49.0588 42.2318 48.7888C42.2318 48.5988 42.2818 48.4088 42.3818 48.2188C42.4818 48.0388 42.6368 47.9488 42.8468 47.9488C43.0068 47.9488 43.1668 47.9738 43.3268 48.0238C43.4968 48.0838 43.6568 48.1088 43.8068 48.0988C43.9568 48.0788 44.0618 48.0388 44.1218 47.9788C44.1818 47.9288 44.2518 47.8288 44.3318 47.6788C44.4018 47.5588 44.4668 47.4388 44.5268 47.3188C44.5968 47.2088 44.6718 47.0638 44.7518 46.8838C44.8418 46.7138 44.9518 46.4888 45.0818 46.2088C45.2018 45.9388 45.2618 45.6988 45.2618 45.4888C45.2618 45.3388 45.2368 45.2038 45.1868 45.0838C45.1468 44.9538 45.1018 44.8288 45.0518 44.7088L43.2068 40.5238C43.1168 40.2938 43.0168 40.1038 42.9068 39.9538C42.7968 39.8038 42.6468 39.6988 42.4568 39.6388C42.3668 39.5988 42.2968 39.5588 42.2468 39.5188C42.1968 39.4688 42.1718 39.3988 42.1718 39.3088C42.1718 39.2388 42.2168 39.1938 42.3068 39.1738C42.3968 39.1538 42.4768 39.1438 42.5468 39.1438C42.7868 39.1438 42.9868 39.1488 43.1468 39.1588C43.3168 39.1688 43.4668 39.1788 43.5968 39.1888C43.7268 39.1988 43.8568 39.2038 43.9868 39.2038C44.2068 39.2038 44.3918 39.1988 44.5418 39.1888C44.6918 39.1788 44.8518 39.1688 45.0218 39.1588C45.1918 39.1488 45.3918 39.1438 45.6218 39.1438C45.6918 39.1438 45.7668 39.1588 45.8468 39.1888C45.9268 39.2188 45.9668 39.2688 45.9668 39.3388C45.9668 39.4288 45.9268 39.4938 45.8468 39.5338C45.7768 39.5638 45.7018 39.5988 45.6218 39.6388C45.5118 39.6788 45.4268 39.7388 45.3668 39.8188C45.3068 39.8988 45.2768 40.0288 45.2768 40.2088C45.2768 40.2888 45.2868 40.3838 45.3068 40.4938C45.3368 40.6038 45.3818 40.7388 45.4418 40.8988L46.3718 43.1638C46.3818 43.1938 46.3968 43.2088 46.4168 43.2088C46.4268 43.2088 46.4418 43.1938 46.4618 43.1638L47.2268 40.8688C47.2568 40.7888 47.2818 40.6938 47.3018 40.5838C47.3318 40.4638 47.3468 40.3588 47.3468 40.2688C47.3468 40.0988 47.2968 39.9638 47.1968 39.8638C47.0968 39.7538 46.9918 39.6788 46.8818 39.6388C46.8018 39.6088 46.7218 39.5738 46.6418 39.5338C46.5718 39.4938 46.5368 39.4288 46.5368 39.3388C46.5368 39.2688 46.5768 39.2188 46.6568 39.1888C46.7368 39.1588 46.8118 39.1438 46.8818 39.1438C47.1518 39.1538 47.3618 39.1688 47.5118 39.1888C47.6618 39.1988 47.8168 39.2038 47.9768 39.2038C48.0768 39.2038 48.1668 39.2038 48.2468 39.2038C48.3368 39.1938 48.4418 39.1838 48.5618 39.1738C48.6818 39.1638 48.8268 39.1538 48.9968 39.1438C49.0668 39.1438 49.1418 39.1538 49.2218 39.1738C49.3118 39.1938 49.3568 39.2388 49.3568 39.3088C49.3568 39.3988 49.3318 39.4688 49.2818 39.5188C49.2418 39.5588 49.1768 39.5988 49.0868 39.6388C48.8968 39.6988 48.7268 39.8138 48.5768 39.9838C48.4268 40.1438 48.3018 40.3388 48.2018 40.5688L45.9668 45.9388C45.8868 46.1388 45.7968 46.3538 45.6968 46.5838C45.5968 46.8238 45.4918 47.0688 45.3818 47.3188C45.2818 47.5688 45.1768 47.8238 45.0668 48.0838C44.9568 48.3438 44.8468 48.5988 44.7368 48.8488C44.6168 49.1388 44.4318 49.3588 44.1818 49.5088C43.9318 49.6588 43.6518 49.7338 43.3418 49.7338ZM54.3585 45.5338C54.2985 45.5338 54.2385 45.5188 54.1785 45.4888C54.1185 45.4488 54.0885 45.3988 54.0885 45.3388C54.0885 45.2588 54.1135 45.1938 54.1635 45.1438C54.2135 45.0938 54.2785 45.0588 54.3585 45.0388C54.6085 44.9788 54.7885 44.9138 54.8985 44.8438C55.0085 44.7738 55.0635 44.6538 55.0635 44.4838V43.1038C55.0635 43.0138 55.0485 42.9488 55.0185 42.9088C54.9985 42.8688 54.9635 42.8638 54.9135 42.8938C54.6635 43.0138 54.3685 43.1088 54.0285 43.1788C53.6985 43.2388 53.3535 43.2688 52.9935 43.2688C52.6535 43.2688 52.3235 43.2038 52.0035 43.0738C51.6935 42.9438 51.4385 42.7488 51.2385 42.4888C51.0485 42.2188 50.9535 41.8788 50.9535 41.4688V40.1938C50.9535 40.0238 50.9135 39.9038 50.8335 39.8338C50.7635 39.7638 50.6085 39.6938 50.3685 39.6238C50.2885 39.6038 50.2235 39.5688 50.1735 39.5188C50.1235 39.4688 50.0985 39.4088 50.0985 39.3388C50.0985 39.2688 50.1235 39.2188 50.1735 39.1888C50.2335 39.1488 50.2935 39.1288 50.3535 39.1288C50.5435 39.1288 50.7235 39.1338 50.8935 39.1438C51.0635 39.1538 51.2335 39.1688 51.4035 39.1888C51.5735 39.1988 51.7435 39.2038 51.9135 39.2038C52.0935 39.2038 52.2735 39.1988 52.4535 39.1888C52.6435 39.1788 52.8285 39.1688 53.0085 39.1588C53.1985 39.1488 53.3835 39.1438 53.5635 39.1438C53.6335 39.1438 53.6935 39.1588 53.7435 39.1888C53.7935 39.2188 53.8185 39.2688 53.8185 39.3388C53.8185 39.4188 53.7885 39.4788 53.7285 39.5188C53.6785 39.5588 53.6135 39.5938 53.5335 39.6238C53.2735 39.7038 53.1035 39.7838 53.0235 39.8638C52.9535 39.9438 52.9185 40.0538 52.9185 40.1938V41.3938C52.9185 41.7438 52.9935 42.0138 53.1435 42.2038C53.2935 42.3938 53.5235 42.4888 53.8335 42.4888C54.0635 42.4888 54.2535 42.4738 54.4035 42.4438C54.5635 42.4138 54.7135 42.3388 54.8535 42.2188C54.9335 42.1488 54.9885 42.0888 55.0185 42.0388C55.0485 41.9888 55.0635 41.9388 55.0635 41.8888V40.1938C55.0635 40.0238 55.0235 39.9038 54.9435 39.8338C54.8735 39.7638 54.7135 39.6938 54.4635 39.6238C54.3835 39.6038 54.3185 39.5688 54.2685 39.5188C54.2185 39.4688 54.1935 39.4088 54.1935 39.3388C54.1935 39.2688 54.2185 39.2188 54.2685 39.1888C54.3285 39.1488 54.3885 39.1288 54.4485 39.1288C54.6485 39.1288 54.8335 39.1338 55.0035 39.1438C55.1835 39.1538 55.3585 39.1688 55.5285 39.1888C55.6985 39.1988 55.8685 39.2038 56.0385 39.2038C56.2185 39.2038 56.4035 39.1988 56.5935 39.1888C56.7935 39.1788 56.9935 39.1688 57.1935 39.1588C57.3935 39.1488 57.5885 39.1438 57.7785 39.1438C57.8485 39.1438 57.9085 39.1588 57.9585 39.1888C58.0085 39.2188 58.0335 39.2688 58.0335 39.3388C58.0335 39.4188 58.0035 39.4788 57.9435 39.5188C57.8935 39.5588 57.8285 39.5938 57.7485 39.6238C57.4885 39.7038 57.3035 39.7838 57.1935 39.8638C57.0935 39.9438 57.0435 40.0538 57.0435 40.1938V44.4688C57.0435 44.6088 57.0985 44.7188 57.2085 44.7988C57.3185 44.8788 57.4985 44.9588 57.7485 45.0388C57.8285 45.0688 57.8935 45.1038 57.9435 45.1438C58.0035 45.1838 58.0335 45.2438 58.0335 45.3238C58.0335 45.3938 58.0085 45.4438 57.9585 45.4738C57.9085 45.5038 57.8535 45.5188 57.7935 45.5188C57.6035 45.5188 57.4035 45.5138 57.1935 45.5038C56.9935 45.4938 56.7935 45.4838 56.5935 45.4738C56.4035 45.4638 56.2185 45.4588 56.0385 45.4588C55.8685 45.4588 55.6885 45.4638 55.4985 45.4738C55.3185 45.4838 55.1335 45.4938 54.9435 45.5038C54.7535 45.5238 54.5585 45.5338 54.3585 45.5338ZM59.5703 45.5338C59.5103 45.5338 59.4453 45.5188 59.3753 45.4888C59.3053 45.4488 59.2703 45.3938 59.2703 45.3238C59.2703 45.2438 59.3053 45.1838 59.3753 45.1438C59.4553 45.0938 59.5353 45.0538 59.6153 45.0238C59.7653 44.9738 59.8953 44.9188 60.0053 44.8588C60.1153 44.7888 60.1703 44.6538 60.1703 44.4538V40.2238C60.1703 40.0238 60.1153 39.8888 60.0053 39.8188C59.8953 39.7488 59.7653 39.6938 59.6153 39.6538C59.5353 39.6238 59.4553 39.5838 59.3753 39.5338C59.3053 39.4838 59.2703 39.4188 59.2703 39.3388C59.2703 39.2688 59.3053 39.2188 59.3753 39.1888C59.4453 39.1488 59.5103 39.1288 59.5703 39.1288C59.7703 39.1288 59.9603 39.1338 60.1403 39.1438C60.3203 39.1538 60.4953 39.1688 60.6653 39.1888C60.8453 39.1988 61.0203 39.2038 61.1903 39.2038C61.3703 39.2038 61.5353 39.1988 61.6853 39.1888C61.8353 39.1688 61.9903 39.1538 62.1503 39.1438C62.3203 39.1338 62.5053 39.1288 62.7053 39.1288C62.7653 39.1288 62.8203 39.1488 62.8703 39.1888C62.9303 39.2288 62.9603 39.2788 62.9603 39.3388C62.9603 39.4088 62.9303 39.4738 62.8703 39.5338C62.8103 39.5838 62.7403 39.6238 62.6603 39.6538C62.5203 39.7038 62.3953 39.7588 62.2853 39.8188C62.1853 39.8788 62.1353 40.0088 62.1353 40.2088V44.2288C62.1353 44.4088 62.1753 44.5388 62.2553 44.6188C62.3453 44.6988 62.4603 44.7388 62.6003 44.7388H63.6053C63.7553 44.7388 63.8703 44.6988 63.9503 44.6188C64.0303 44.5388 64.0703 44.4088 64.0703 44.2288V40.2088C64.0703 40.0088 64.0203 39.8788 63.9203 39.8188C63.8203 39.7488 63.6953 39.6938 63.5453 39.6538C63.4653 39.6238 63.3953 39.5838 63.3353 39.5338C63.2753 39.4838 63.2453 39.4188 63.2453 39.3388C63.2453 39.2688 63.2703 39.2188 63.3203 39.1888C63.3803 39.1488 63.4403 39.1288 63.5003 39.1288C63.7003 39.1288 63.8853 39.1338 64.0553 39.1438C64.2253 39.1538 64.3903 39.1688 64.5503 39.1888C64.7203 39.1988 64.8903 39.2038 65.0603 39.2038C65.2403 39.2038 65.4103 39.1988 65.5703 39.1888C65.7303 39.1688 65.8953 39.1538 66.0653 39.1438C66.2453 39.1338 66.4353 39.1288 66.6353 39.1288C66.6953 39.1288 66.7553 39.1488 66.8153 39.1888C66.8753 39.2188 66.9053 39.2688 66.9053 39.3388C66.9053 39.4188 66.8703 39.4838 66.8003 39.5338C66.7403 39.5838 66.6703 39.6238 66.5903 39.6538C66.4403 39.6938 66.3103 39.7488 66.2003 39.8188C66.0903 39.8788 66.0353 40.0088 66.0353 40.2088V44.2288C66.0353 44.4088 66.0803 44.5388 66.1703 44.6188C66.2603 44.6988 66.3703 44.7388 66.5003 44.7388H67.4903C67.6403 44.7388 67.7553 44.6988 67.8353 44.6188C67.9153 44.5388 67.9553 44.4088 67.9553 44.2288V40.2088C67.9553 40.0088 67.9053 39.8788 67.8053 39.8188C67.7053 39.7488 67.5803 39.6938 67.4303 39.6538C67.3503 39.6238 67.2803 39.5838 67.2203 39.5338C67.1603 39.4838 67.1303 39.4188 67.1303 39.3388C67.1303 39.2688 67.1603 39.2188 67.2203 39.1888C67.2803 39.1488 67.3403 39.1288 67.4003 39.1288C67.6003 39.1288 67.7803 39.1338 67.9403 39.1438C68.1103 39.1538 68.2753 39.1688 68.4353 39.1888C68.6053 39.1988 68.7753 39.2038 68.9453 39.2038C69.1253 39.2038 69.2953 39.1988 69.4553 39.1888C69.6253 39.1688 69.7953 39.1538 69.9653 39.1438C70.1353 39.1338 70.3203 39.1288 70.5203 39.1288C70.5803 39.1288 70.6403 39.1488 70.7003 39.1888C70.7603 39.2188 70.7903 39.2688 70.7903 39.3388C70.7903 39.4188 70.7603 39.4838 70.7003 39.5338C70.6403 39.5838 70.5703 39.6238 70.4903 39.6538C70.3403 39.6938 70.2103 39.7488 70.1003 39.8188C69.9903 39.8788 69.9353 40.0088 69.9353 40.2088V44.4538C69.9353 44.6538 69.9903 44.7888 70.1003 44.8588C70.2103 44.9188 70.3403 44.9738 70.4903 45.0238C70.5703 45.0538 70.6403 45.0938 70.7003 45.1438C70.7603 45.1838 70.7903 45.2438 70.7903 45.3238C70.7903 45.3938 70.7603 45.4488 70.7003 45.4888C70.6403 45.5188 70.5803 45.5338 70.5203 45.5338C70.3203 45.5338 70.1353 45.5238 69.9653 45.5038C69.8053 45.4938 69.6453 45.4838 69.4853 45.4738C69.3353 45.4638 69.1753 45.4588 69.0053 45.4588H61.1303C60.9703 45.4588 60.8053 45.4638 60.6353 45.4738C60.4753 45.4838 60.3053 45.4938 60.1253 45.5038C59.9553 45.5238 59.7703 45.5338 59.5703 45.5338ZM74.8638 45.6988C74.3238 45.6988 73.8388 45.5588 73.4088 45.2788C72.9888 44.9888 72.6538 44.5988 72.4038 44.1088C72.1638 43.6088 72.0438 43.0438 72.0438 42.4138C72.0438 41.7838 72.1888 41.2138 72.4788 40.7038C72.7688 40.1838 73.1638 39.7738 73.6638 39.4738C74.1638 39.1638 74.7138 39.0088 75.3138 39.0088C75.7438 39.0088 76.1288 39.1038 76.4688 39.2938C76.8088 39.4738 77.0788 39.7188 77.2788 40.0288C77.4888 40.3388 77.5938 40.6888 77.5938 41.0788C77.5938 41.4588 77.4388 41.6488 77.1288 41.6488H74.1288C73.9888 41.6488 73.8838 41.6888 73.8138 41.7688C73.7538 41.8488 73.7238 41.9838 73.7238 42.1738C73.7238 42.5538 73.8088 42.9038 73.9788 43.2238C74.1488 43.5338 74.3788 43.7788 74.6688 43.9588C74.9588 44.1388 75.2938 44.2288 75.6738 44.2288C75.9638 44.2288 76.2288 44.1738 76.4688 44.0638C76.7188 43.9538 76.9638 43.8038 77.2038 43.6138C77.2438 43.5838 77.2788 43.5588 77.3088 43.5388C77.3488 43.5088 77.3838 43.4938 77.4138 43.4938C77.5138 43.4938 77.5638 43.5588 77.5638 43.6888C77.5638 43.7988 77.5238 43.9488 77.4438 44.1388C77.3438 44.3888 77.1738 44.6388 76.9338 44.8888C76.7038 45.1288 76.4138 45.3238 76.0638 45.4738C75.7138 45.6238 75.3138 45.6988 74.8638 45.6988ZM74.1288 41.0188H75.0288C75.3088 41.0188 75.5038 41.0138 75.6138 41.0038C75.7238 40.9938 75.8238 40.9738 75.9138 40.9438C75.9638 40.9238 76.0038 40.8738 76.0338 40.7938C76.0638 40.7138 76.0788 40.6238 76.0788 40.5238C76.0788 40.2538 75.9838 40.0338 75.7938 39.8638C75.6138 39.6938 75.3888 39.6088 75.1188 39.6088C74.9088 39.6088 74.7088 39.6688 74.5188 39.7888C74.3388 39.8988 74.1888 40.0488 74.0688 40.2388C73.9588 40.4188 73.9088 40.6088 73.9188 40.8088C73.9188 40.9488 73.9888 41.0188 74.1288 41.0188ZM81.6894 45.6988C81.1494 45.6988 80.6644 45.5588 80.2344 45.2788C79.8144 44.9888 79.4794 44.5988 79.2294 44.1088C78.9894 43.6088 78.8694 43.0438 78.8694 42.4138C78.8694 41.7838 79.0144 41.2138 79.3044 40.7038C79.5944 40.1838 79.9894 39.7738 80.4894 39.4738C80.9894 39.1638 81.5394 39.0088 82.1394 39.0088C82.5694 39.0088 82.9544 39.1038 83.2944 39.2938C83.6344 39.4738 83.9044 39.7188 84.1044 40.0288C84.3144 40.3388 84.4194 40.6888 84.4194 41.0788C84.4194 41.4588 84.2644 41.6488 83.9544 41.6488H80.9544C80.8144 41.6488 80.7094 41.6888 80.6394 41.7688C80.5794 41.8488 80.5494 41.9838 80.5494 42.1738C80.5494 42.5538 80.6344 42.9038 80.8044 43.2238C80.9744 43.5338 81.2044 43.7788 81.4944 43.9588C81.7844 44.1388 82.1194 44.2288 82.4994 44.2288C82.7894 44.2288 83.0544 44.1738 83.2944 44.0638C83.5444 43.9538 83.7894 43.8038 84.0294 43.6138C84.0694 43.5838 84.1044 43.5588 84.1344 43.5388C84.1744 43.5088 84.2094 43.4938 84.2394 43.4938C84.3394 43.4938 84.3894 43.5588 84.3894 43.6888C84.3894 43.7988 84.3494 43.9488 84.2694 44.1388C84.1694 44.3888 83.9994 44.6388 83.7594 44.8888C83.5294 45.1288 83.2394 45.3238 82.8894 45.4738C82.5394 45.6238 82.1394 45.6988 81.6894 45.6988ZM80.9544 41.0188H81.8544C82.1344 41.0188 82.3294 41.0138 82.4394 41.0038C82.5494 40.9938 82.6494 40.9738 82.7394 40.9438C82.7894 40.9238 82.8294 40.8738 82.8594 40.7938C82.8894 40.7138 82.9044 40.6238 82.9044 40.5238C82.9044 40.2538 82.8094 40.0338 82.6194 39.8638C82.4394 39.6938 82.2144 39.6088 81.9444 39.6088C81.7344 39.6088 81.5344 39.6688 81.3444 39.7888C81.1644 39.8988 81.0144 40.0488 80.8944 40.2388C80.7844 40.4188 80.7344 40.6088 80.7444 40.8088C80.7444 40.9488 80.8144 41.0188 80.9544 41.0188ZM90.4961 47.7838C90.3961 47.7838 90.3111 47.7388 90.2411 47.6488C90.1711 47.5688 90.1261 47.4388 90.1061 47.2588C90.0961 46.9288 90.0611 46.6138 90.0011 46.3138C89.9511 46.0238 89.9011 45.7688 89.8511 45.5488C89.8111 45.3388 89.7911 45.1838 89.7911 45.0838C89.7911 45.0238 89.8061 44.9688 89.8361 44.9188C89.8761 44.8688 89.9261 44.8438 89.9861 44.8438C90.0361 44.8438 90.1011 44.8538 90.1811 44.8738C90.2711 44.8838 90.3561 44.8888 90.4361 44.8888C90.6661 44.8888 90.8611 44.7688 91.0211 44.5288C91.1811 44.2888 91.3161 43.9588 91.4261 43.5388C91.5361 43.1188 91.6161 42.6388 91.6661 42.0988C91.7261 41.5488 91.7561 40.9638 91.7561 40.3438C91.7561 40.0838 91.6961 39.9188 91.5761 39.8488C91.4661 39.7688 91.3111 39.7038 91.1111 39.6538C91.0011 39.6238 90.9111 39.5938 90.8411 39.5638C90.7711 39.5238 90.7361 39.4538 90.7361 39.3538C90.7361 39.2838 90.7711 39.2288 90.8411 39.1888C90.9211 39.1488 90.9861 39.1288 91.0361 39.1288C91.3161 39.1288 91.5861 39.1438 91.8461 39.1738C92.1061 39.1938 92.3561 39.2038 92.5961 39.2038H95.2661C95.5161 39.2038 95.7661 39.1938 96.0161 39.1738C96.2661 39.1438 96.5311 39.1288 96.8111 39.1288C96.8611 39.1288 96.9161 39.1488 96.9761 39.1888C97.0361 39.2288 97.0661 39.2838 97.0661 39.3538C97.0661 39.4338 97.0361 39.4988 96.9761 39.5488C96.9161 39.5888 96.8511 39.6238 96.7811 39.6538C96.6111 39.6938 96.4711 39.7538 96.3611 39.8338C96.2511 39.9138 96.1961 40.0738 96.1961 40.3138V44.1988C96.1961 44.4188 96.2211 44.5888 96.2711 44.7088C96.3311 44.8288 96.4461 44.8888 96.6161 44.8888C96.6661 44.8888 96.7311 44.8838 96.8111 44.8738C96.8911 44.8638 96.9661 44.8588 97.0361 44.8588C97.1061 44.8588 97.1661 44.8688 97.2161 44.8888C97.2661 44.9088 97.2911 44.9438 97.2911 44.9938C97.2911 45.0238 97.2861 45.0488 97.2761 45.0688C97.2361 45.1788 97.1861 45.3088 97.1261 45.4588C97.0761 45.5988 97.0261 45.8038 96.9761 46.0738C96.9361 46.3538 96.9061 46.7488 96.8861 47.2588C96.8761 47.4388 96.8361 47.5688 96.7661 47.6488C96.6961 47.7388 96.6111 47.7838 96.5111 47.7838C96.4111 47.7838 96.3261 47.7338 96.2561 47.6338C96.1961 47.5338 96.1661 47.4138 96.1661 47.2738C96.1661 47.1738 96.1611 47.0688 96.1511 46.9588C96.1511 46.8588 96.1411 46.7238 96.1211 46.5538C96.0911 46.2238 96.0011 45.9638 95.8511 45.7738C95.7111 45.5838 95.4711 45.4888 95.1311 45.4888H91.9061C91.5661 45.4888 91.3211 45.5888 91.1711 45.7888C91.0211 45.9988 90.9261 46.3038 90.8861 46.7038C90.8761 46.7938 90.8661 46.8838 90.8561 46.9738C90.8461 47.0738 90.8411 47.1738 90.8411 47.2738C90.8411 47.4138 90.8061 47.5338 90.7361 47.6338C90.6761 47.7338 90.5961 47.7838 90.4961 47.7838ZM92.1911 44.8138H93.9011C94.0411 44.8138 94.1311 44.7838 94.1711 44.7238C94.2111 44.6638 94.2311 44.5738 94.2311 44.4538V40.3888C94.2311 40.2588 94.2111 40.1588 94.1711 40.0888C94.1311 40.0188 94.0761 39.9688 94.0061 39.9388C93.9461 39.8988 93.8661 39.8788 93.7661 39.8788H92.9561C92.8561 39.8788 92.7761 39.9088 92.7161 39.9688C92.6561 40.0288 92.6111 40.0988 92.5811 40.1788C92.5611 40.2588 92.5511 40.3338 92.5511 40.4038C92.5511 40.8038 92.5261 41.2438 92.4761 41.7238C92.4361 42.1938 92.3711 42.6638 92.2811 43.1338C92.1911 43.5938 92.0761 44.0088 91.9361 44.3788C91.9161 44.4288 91.8961 44.4738 91.8761 44.5138C91.8661 44.5538 91.8611 44.5988 91.8611 44.6488C91.8611 44.7288 91.8911 44.7788 91.9511 44.7988C92.0211 44.8088 92.1011 44.8138 92.1911 44.8138ZM99.5609 45.6988C99.1609 45.6988 98.8509 45.5988 98.6309 45.3988C98.4209 45.1888 98.3159 44.9488 98.3159 44.6788C98.3159 44.4688 98.3759 44.2788 98.4959 44.1088C98.6259 43.9288 98.8009 43.8388 99.0209 43.8388C99.1409 43.8388 99.2559 43.8638 99.3659 43.9138C99.4859 43.9638 99.5859 44.0288 99.6659 44.1088C99.7459 44.1888 99.8209 44.2588 99.8909 44.3188C99.9609 44.3788 100.031 44.4088 100.101 44.4088C100.231 44.4088 100.346 44.2738 100.446 44.0038C100.556 43.7338 100.646 43.3888 100.716 42.9688C100.796 42.5488 100.856 42.1138 100.896 41.6638C100.936 41.2038 100.956 40.7838 100.956 40.4038C100.956 40.1438 100.881 39.9688 100.731 39.8788C100.591 39.7888 100.416 39.7188 100.206 39.6688C100.096 39.6388 100.006 39.6038 99.9359 39.5638C99.8659 39.5238 99.8309 39.4538 99.8309 39.3538C99.8309 39.2938 99.8659 39.2438 99.9359 39.2038C100.016 39.1538 100.081 39.1288 100.131 39.1288C100.411 39.1288 100.681 39.1438 100.941 39.1738C101.201 39.1938 101.451 39.2038 101.691 39.2038H104.361C104.611 39.2038 104.861 39.1938 105.111 39.1738C105.361 39.1438 105.626 39.1288 105.906 39.1288C105.956 39.1288 106.011 39.1538 106.071 39.2038C106.131 39.2438 106.161 39.2938 106.161 39.3538C106.161 39.4338 106.131 39.4988 106.071 39.5488C106.011 39.5988 105.946 39.6388 105.876 39.6688C105.706 39.7088 105.566 39.7688 105.456 39.8488C105.346 39.9188 105.291 40.0738 105.291 40.3138V44.4538C105.291 44.6538 105.346 44.7888 105.456 44.8588C105.566 44.9188 105.696 44.9738 105.846 45.0238C105.926 45.0538 105.996 45.0938 106.056 45.1438C106.126 45.1838 106.161 45.2438 106.161 45.3238C106.161 45.3938 106.131 45.4488 106.071 45.4888C106.011 45.5188 105.951 45.5338 105.891 45.5338C105.691 45.5338 105.501 45.5238 105.321 45.5038C105.151 45.4938 104.986 45.4838 104.826 45.4738C104.666 45.4638 104.496 45.4588 104.316 45.4588C104.146 45.4588 103.976 45.4638 103.806 45.4738C103.646 45.4838 103.476 45.4938 103.296 45.5038C103.126 45.5238 102.946 45.5338 102.756 45.5338C102.696 45.5338 102.636 45.5188 102.576 45.4888C102.526 45.4488 102.501 45.3938 102.501 45.3238C102.501 45.2438 102.531 45.1838 102.591 45.1438C102.651 45.0938 102.721 45.0538 102.801 45.0238C102.951 44.9738 103.076 44.9188 103.176 44.8588C103.276 44.7888 103.326 44.6538 103.326 44.4538V40.3738C103.326 40.1938 103.286 40.0688 103.206 39.9988C103.126 39.9188 103.011 39.8788 102.861 39.8788H102.021C101.861 39.8788 101.751 39.9438 101.691 40.0738C101.641 40.1938 101.616 40.3038 101.616 40.4038C101.616 40.8038 101.596 41.2388 101.556 41.7088C101.526 42.1788 101.466 42.6488 101.376 43.1188C101.286 43.5888 101.161 44.0188 101.001 44.4088C100.841 44.7988 100.641 45.1138 100.401 45.3538C100.171 45.5838 99.8909 45.6988 99.5609 45.6988ZM108.287 45.6838C107.907 45.6838 107.577 45.6388 107.297 45.5488C107.017 45.4588 106.877 45.3638 106.877 45.2638C106.877 45.0938 106.982 45.0088 107.192 45.0088C107.412 45.0088 107.617 44.9288 107.807 44.7688C108.007 44.5988 108.197 44.3938 108.377 44.1538C108.567 43.9138 108.752 43.6688 108.932 43.4188C109.112 43.1688 109.272 42.9538 109.412 42.7738C109.562 42.5838 109.702 42.4538 109.832 42.3838C109.942 42.3338 109.947 42.2888 109.847 42.2488C109.437 42.1188 109.102 41.9538 108.842 41.7538C108.592 41.5538 108.467 41.2338 108.467 40.7938C108.467 40.4338 108.602 40.1338 108.872 39.8938C109.142 39.6538 109.492 39.4688 109.922 39.3388C110.352 39.2088 110.802 39.1438 111.272 39.1438C111.532 39.1438 111.752 39.1538 111.932 39.1738C112.112 39.1938 112.277 39.2138 112.427 39.2338C112.577 39.2438 112.747 39.2488 112.937 39.2488C113.147 39.2488 113.322 39.2438 113.462 39.2338C113.602 39.2138 113.757 39.1988 113.927 39.1888C114.097 39.1688 114.302 39.1588 114.542 39.1588C114.602 39.1588 114.652 39.1788 114.692 39.2188C114.742 39.2488 114.767 39.2888 114.767 39.3388C114.767 39.3688 114.747 39.4038 114.707 39.4438C114.667 39.4838 114.607 39.5188 114.527 39.5488C114.287 39.6088 114.122 39.6788 114.032 39.7588C113.942 39.8388 113.897 39.9788 113.897 40.1788V44.5738C113.897 44.7738 113.947 44.8988 114.047 44.9488C114.147 44.9988 114.307 45.0638 114.527 45.1438C114.587 45.1538 114.637 45.1838 114.677 45.2338C114.717 45.2738 114.737 45.3188 114.737 45.3688C114.737 45.4088 114.717 45.4488 114.677 45.4888C114.637 45.5188 114.587 45.5338 114.527 45.5338C114.387 45.5338 114.222 45.5288 114.032 45.5188C113.842 45.5088 113.652 45.4988 113.462 45.4888C113.272 45.4888 113.102 45.4888 112.952 45.4888C112.752 45.4888 112.557 45.4888 112.367 45.4888C112.177 45.4988 111.987 45.5088 111.797 45.5188C111.617 45.5288 111.417 45.5338 111.197 45.5338C111.137 45.5338 111.077 45.5188 111.017 45.4888C110.957 45.4488 110.927 45.3988 110.927 45.3388C110.927 45.2588 110.952 45.1938 111.002 45.1438C111.052 45.0938 111.117 45.0588 111.197 45.0388C111.447 44.9788 111.627 44.9138 111.737 44.8438C111.857 44.7738 111.917 44.6538 111.917 44.4838V42.6538C111.917 42.5638 111.877 42.5188 111.797 42.5188C111.767 42.5188 111.727 42.5238 111.677 42.5338C111.637 42.5338 111.602 42.5338 111.572 42.5338C111.482 42.5438 111.392 42.6188 111.302 42.7588C111.222 42.8988 111.067 43.1888 110.837 43.6288C110.587 44.1188 110.337 44.5188 110.087 44.8288C109.837 45.1288 109.567 45.3488 109.277 45.4888C108.997 45.6188 108.667 45.6838 108.287 45.6838ZM111.497 41.9938C111.637 41.9938 111.742 41.9638 111.812 41.9038C111.882 41.8438 111.917 41.7688 111.917 41.6788V40.0888C111.917 39.9388 111.877 39.8338 111.797 39.7738C111.717 39.7038 111.582 39.6688 111.392 39.6688C111.142 39.6688 110.927 39.7488 110.747 39.9088C110.567 40.0588 110.477 40.3738 110.477 40.8538C110.477 41.1638 110.557 41.4338 110.717 41.6638C110.887 41.8838 111.147 41.9938 111.497 41.9938ZM123.744 45.6988C123.054 45.6988 122.464 45.5238 121.974 45.1738C121.484 44.8238 121.109 44.3288 120.849 43.6888C120.589 43.0388 120.459 42.2888 120.459 41.4388C120.459 40.3288 120.609 39.3688 120.909 38.5588C121.209 37.7388 121.639 37.0838 122.199 36.5938C122.759 36.0938 123.439 35.7788 124.239 35.6488L125.169 35.4838C125.539 35.4238 125.814 35.3688 125.994 35.3188C126.174 35.2588 126.314 35.1988 126.414 35.1388C126.514 35.0688 126.619 34.9838 126.729 34.8838C126.739 34.8738 126.759 34.8688 126.789 34.8688C126.829 34.8688 126.854 34.8988 126.864 34.9588C126.884 35.0088 126.894 35.0538 126.894 35.0938C126.894 35.4238 126.819 35.7538 126.669 36.0838C126.529 36.4038 126.299 36.6888 125.979 36.9388C125.659 37.1788 125.229 37.3438 124.689 37.4338L123.249 37.6738C122.879 37.7438 122.569 37.8488 122.319 37.9888C122.079 38.1288 121.909 38.3388 121.809 38.6188C121.719 38.8888 121.719 39.2588 121.809 39.7288C121.819 39.7988 121.849 39.8488 121.899 39.8788C121.959 39.9088 122.024 39.8888 122.094 39.8188C122.294 39.6488 122.544 39.4888 122.844 39.3388C123.144 39.1788 123.539 39.0988 124.029 39.0988C124.729 39.0988 125.294 39.2538 125.724 39.5638C126.164 39.8638 126.484 40.2488 126.684 40.7188C126.894 41.1788 126.999 41.6588 126.999 42.1588C126.999 42.7788 126.869 43.3588 126.609 43.8988C126.359 44.4388 125.994 44.8738 125.514 45.2038C125.034 45.5338 124.444 45.6988 123.744 45.6988ZM123.774 44.9938C124.064 44.9938 124.289 44.8938 124.449 44.6938C124.609 44.4938 124.724 44.2138 124.794 43.8538C124.864 43.4838 124.899 43.0488 124.899 42.5488C124.899 42.0688 124.849 41.6188 124.749 41.1988C124.649 40.7688 124.504 40.4238 124.314 40.1638C124.124 39.8938 123.899 39.7588 123.639 39.7588C123.459 39.7588 123.289 39.8088 123.129 39.9088C122.969 39.9988 122.839 40.1338 122.739 40.3138C122.609 40.5338 122.534 40.8088 122.514 41.1388C122.504 41.4588 122.499 41.8238 122.499 42.2338C122.499 42.7138 122.554 43.1638 122.664 43.5838C122.774 43.9938 122.924 44.3338 123.114 44.6038C123.314 44.8638 123.534 44.9938 123.774 44.9938ZM129.85 45.6988C129.58 45.6988 129.33 45.6338 129.1 45.5038C128.87 45.3738 128.685 45.2038 128.545 44.9938C128.415 44.7838 128.35 44.5538 128.35 44.3038C128.35 43.9638 128.455 43.6788 128.665 43.4488C128.885 43.2188 129.205 43.0138 129.625 42.8338L130.96 42.2488C131.16 42.1588 131.28 42.0788 131.32 42.0088C131.37 41.9388 131.395 41.8088 131.395 41.6188L131.41 40.7638C131.42 40.4838 131.37 40.2638 131.26 40.1038C131.15 39.9338 130.985 39.8488 130.765 39.8488C130.635 39.8488 130.505 39.8788 130.375 39.9388C130.245 39.9888 130.145 40.0488 130.075 40.1188C130.045 40.1588 130.02 40.2088 130 40.2688C129.99 40.3188 129.985 40.3738 129.985 40.4338C129.985 40.4938 129.99 40.5688 130 40.6588C130.01 40.7388 130.015 40.8088 130.015 40.8688C130.015 40.9288 129.935 41.0088 129.775 41.1088C129.615 41.1988 129.43 41.2838 129.22 41.3638C129.01 41.4338 128.83 41.4688 128.68 41.4688C128.61 41.4688 128.545 41.4388 128.485 41.3788C128.435 41.3188 128.41 41.2438 128.41 41.1538C128.41 40.9938 128.465 40.8388 128.575 40.6888C128.685 40.5288 128.865 40.3488 129.115 40.1488C129.375 39.9288 129.66 39.7338 129.97 39.5638C130.28 39.3938 130.585 39.2588 130.885 39.1588C131.195 39.0588 131.455 39.0088 131.665 39.0088C132.205 39.0088 132.635 39.1838 132.955 39.5338C133.275 39.8738 133.425 40.3288 133.405 40.8988L133.33 43.9288C133.32 44.1588 133.36 44.3538 133.45 44.5138C133.54 44.6738 133.65 44.7538 133.78 44.7538C133.97 44.7538 134.135 44.6888 134.275 44.5588C134.305 44.5288 134.335 44.5138 134.365 44.5138C134.415 44.5138 134.455 44.5288 134.485 44.5588C134.525 44.5888 134.545 44.6288 134.545 44.6788C134.545 44.7988 134.455 44.9538 134.275 45.1438C134.085 45.3238 133.885 45.4588 133.675 45.5488C133.465 45.6488 133.245 45.6988 133.015 45.6988C132.455 45.6988 131.99 45.4138 131.62 44.8438H131.59C131.26 45.1438 130.96 45.3588 130.69 45.4888C130.43 45.6288 130.15 45.6988 129.85 45.6988ZM130.75 44.7238C130.86 44.7238 130.95 44.7088 131.02 44.6788C131.09 44.6388 131.16 44.5788 131.23 44.4988C131.26 44.4588 131.285 44.4088 131.305 44.3488C131.325 44.2788 131.335 44.1988 131.335 44.1088L131.38 43.0288C131.38 42.9288 131.365 42.8638 131.335 42.8338C131.305 42.8038 131.27 42.7888 131.23 42.7888C131.21 42.7888 131.185 42.7938 131.155 42.8038C131.125 42.8138 131.09 42.8288 131.05 42.8488C130.76 42.9888 130.545 43.1338 130.405 43.2838C130.265 43.4238 130.195 43.6538 130.195 43.9738C130.195 44.2638 130.255 44.4638 130.375 44.5738C130.495 44.6738 130.62 44.7238 130.75 44.7238ZM135.707 45.5338C135.647 45.5338 135.582 45.5188 135.512 45.4888C135.442 45.4488 135.407 45.3938 135.407 45.3238C135.407 45.2438 135.442 45.1838 135.512 45.1438C135.592 45.0938 135.672 45.0538 135.752 45.0238C135.902 44.9738 136.032 44.9188 136.142 44.8588C136.262 44.7888 136.322 44.6488 136.322 44.4388V40.2238C136.322 40.0238 136.262 39.8888 136.142 39.8188C136.032 39.7488 135.902 39.6938 135.752 39.6538C135.672 39.6238 135.592 39.5838 135.512 39.5338C135.442 39.4838 135.407 39.4188 135.407 39.3388C135.407 39.2688 135.442 39.2188 135.512 39.1888C135.592 39.1488 135.662 39.1288 135.722 39.1288C135.922 39.1288 136.112 39.1338 136.292 39.1438C136.472 39.1538 136.647 39.1688 136.817 39.1888C136.997 39.1988 137.172 39.2038 137.342 39.2038C137.522 39.2038 137.687 39.1988 137.837 39.1888C137.987 39.1688 138.142 39.1538 138.302 39.1438C138.462 39.1338 138.642 39.1288 138.842 39.1288C138.902 39.1288 138.962 39.1488 139.022 39.1888C139.082 39.2288 139.112 39.2788 139.112 39.3388C139.112 39.4088 139.082 39.4738 139.022 39.5338C138.962 39.5838 138.892 39.6238 138.812 39.6538C138.672 39.7038 138.547 39.7588 138.437 39.8188C138.337 39.8788 138.287 40.0088 138.287 40.2088V41.5288C138.287 41.6988 138.332 41.8088 138.422 41.8588C138.512 41.9088 138.617 41.9338 138.737 41.9338H140.177C140.297 41.9338 140.397 41.9088 140.477 41.8588C140.557 41.8088 140.597 41.6988 140.597 41.5288V40.2088C140.597 40.0088 140.547 39.8788 140.447 39.8188C140.357 39.7588 140.237 39.7038 140.087 39.6538C140.007 39.6238 139.937 39.5838 139.877 39.5338C139.817 39.4838 139.787 39.4188 139.787 39.3388C139.787 39.2688 139.817 39.2188 139.877 39.1888C139.937 39.1488 139.997 39.1288 140.057 39.1288C140.257 39.1288 140.437 39.1338 140.597 39.1438C140.767 39.1538 140.932 39.1688 141.092 39.1888C141.262 39.1988 141.432 39.2038 141.602 39.2038C141.782 39.2038 141.952 39.1988 142.112 39.1888C142.272 39.1688 142.437 39.1538 142.607 39.1438C142.787 39.1338 142.977 39.1288 143.177 39.1288C143.237 39.1288 143.297 39.1488 143.357 39.1888C143.417 39.2188 143.447 39.2688 143.447 39.3388C143.447 39.4188 143.417 39.4888 143.357 39.5488C143.297 39.5988 143.227 39.6338 143.147 39.6538C142.997 39.6938 142.862 39.7488 142.742 39.8188C142.632 39.8788 142.577 40.0088 142.577 40.2088V44.4538C142.577 44.6538 142.632 44.7888 142.742 44.8588C142.862 44.9188 142.997 44.9738 143.147 45.0238C143.227 45.0538 143.297 45.0938 143.357 45.1438C143.427 45.1838 143.462 45.2438 143.462 45.3238C143.462 45.3938 143.432 45.4488 143.372 45.4888C143.312 45.5188 143.252 45.5338 143.192 45.5338C142.992 45.5338 142.802 45.5238 142.622 45.5038C142.452 45.4938 142.282 45.4838 142.112 45.4738C141.952 45.4638 141.782 45.4588 141.602 45.4588C141.432 45.4588 141.262 45.4638 141.092 45.4738C140.932 45.4838 140.762 45.4938 140.582 45.5038C140.412 45.5238 140.227 45.5338 140.027 45.5338C139.967 45.5338 139.907 45.5188 139.847 45.4888C139.797 45.4488 139.772 45.3938 139.772 45.3238C139.772 45.2438 139.802 45.1788 139.862 45.1288C139.922 45.0788 139.992 45.0438 140.072 45.0238C140.222 44.9738 140.347 44.9188 140.447 44.8588C140.547 44.7888 140.597 44.6538 140.597 44.4538V43.0438C140.597 42.8638 140.557 42.7488 140.477 42.6988C140.397 42.6488 140.297 42.6238 140.177 42.6238H138.722C138.602 42.6238 138.497 42.6538 138.407 42.7138C138.327 42.7638 138.287 42.8738 138.287 43.0438V44.4538C138.287 44.6538 138.342 44.7888 138.452 44.8588C138.562 44.9188 138.687 44.9738 138.827 45.0238C138.907 45.0538 138.977 45.0938 139.037 45.1438C139.097 45.1838 139.127 45.2438 139.127 45.3238C139.127 45.3838 139.097 45.4338 139.037 45.4738C138.977 45.5138 138.917 45.5338 138.857 45.5338C138.667 45.5338 138.487 45.5238 138.317 45.5038C138.147 45.4938 137.987 45.4838 137.837 45.4738C137.687 45.4638 137.522 45.4588 137.342 45.4588C137.172 45.4588 136.997 45.4638 136.817 45.4738C136.647 45.4838 136.467 45.4938 136.277 45.5038C136.097 45.5238 135.907 45.5338 135.707 45.5338ZM144.979 45.5338C144.919 45.5338 144.854 45.5188 144.784 45.4888C144.714 45.4488 144.679 45.3938 144.679 45.3238C144.679 45.2438 144.714 45.1838 144.784 45.1438C144.864 45.0938 144.944 45.0538 145.024 45.0238C145.174 44.9738 145.304 44.9188 145.414 44.8588C145.534 44.7888 145.594 44.6488 145.594 44.4388V40.2238C145.594 40.0238 145.539 39.8888 145.429 39.8188C145.319 39.7488 145.189 39.6938 145.039 39.6538C144.959 39.6238 144.879 39.5838 144.799 39.5338C144.729 39.4838 144.694 39.4188 144.694 39.3388C144.694 39.2788 144.729 39.2288 144.799 39.1888C144.869 39.1488 144.934 39.1288 144.994 39.1288C145.194 39.1288 145.384 39.1338 145.564 39.1438C145.744 39.1538 145.919 39.1688 146.089 39.1888C146.269 39.1988 146.444 39.2038 146.614 39.2038C146.794 39.2038 146.959 39.1988 147.109 39.1888C147.259 39.1688 147.414 39.1538 147.574 39.1438C147.744 39.1338 147.929 39.1288 148.129 39.1288C148.189 39.1288 148.244 39.1488 148.294 39.1888C148.354 39.2288 148.384 39.2788 148.384 39.3388C148.384 39.4088 148.354 39.4738 148.294 39.5338C148.234 39.5838 148.164 39.6238 148.084 39.6538C147.944 39.7038 147.819 39.7588 147.709 39.8188C147.609 39.8788 147.559 40.0088 147.559 40.2088V42.7588C147.559 42.8588 147.579 42.9238 147.619 42.9538C147.659 42.9838 147.709 42.9588 147.769 42.8788L149.884 40.4188C149.904 40.3788 149.929 40.3438 149.959 40.3138C149.989 40.2838 150.004 40.2488 150.004 40.2088C150.004 40.0088 149.954 39.8788 149.854 39.8188C149.764 39.7488 149.644 39.6938 149.494 39.6538C149.414 39.6238 149.344 39.5838 149.284 39.5338C149.224 39.4838 149.194 39.4188 149.194 39.3388C149.194 39.2788 149.219 39.2288 149.269 39.1888C149.329 39.1488 149.389 39.1288 149.449 39.1288C149.649 39.1288 149.834 39.1338 150.004 39.1438C150.174 39.1538 150.339 39.1688 150.499 39.1888C150.659 39.1988 150.824 39.2038 150.994 39.2038C151.174 39.2038 151.344 39.1988 151.504 39.1888C151.674 39.1688 151.844 39.1538 152.014 39.1438C152.194 39.1338 152.384 39.1288 152.584 39.1288C152.644 39.1288 152.704 39.1488 152.764 39.1888C152.824 39.2288 152.854 39.2788 152.854 39.3388C152.854 39.4188 152.819 39.4838 152.749 39.5338C152.689 39.5838 152.619 39.6238 152.539 39.6538C152.389 39.6938 152.254 39.7488 152.134 39.8188C152.024 39.8788 151.969 40.0088 151.969 40.2088V44.4538C151.969 44.6538 152.029 44.7888 152.149 44.8588C152.269 44.9188 152.404 44.9738 152.554 45.0238C152.634 45.0538 152.704 45.0938 152.764 45.1438C152.824 45.1838 152.854 45.2438 152.854 45.3238C152.854 45.3938 152.824 45.4488 152.764 45.4888C152.704 45.5188 152.649 45.5338 152.599 45.5338C152.399 45.5338 152.209 45.5238 152.029 45.5038C151.849 45.4938 151.674 45.4838 151.504 45.4738C151.344 45.4638 151.174 45.4588 150.994 45.4588C150.824 45.4588 150.654 45.4638 150.484 45.4738C150.324 45.4838 150.154 45.4938 149.974 45.5038C149.804 45.5238 149.619 45.5338 149.419 45.5338C149.369 45.5338 149.314 45.5188 149.254 45.4888C149.204 45.4488 149.179 45.3938 149.179 45.3238C149.179 45.2438 149.204 45.1838 149.254 45.1438C149.314 45.0938 149.384 45.0538 149.464 45.0238C149.614 44.9738 149.739 44.9188 149.839 44.8588C149.949 44.7888 150.004 44.6538 150.004 44.4538V41.5588C150.004 41.4888 149.989 41.4488 149.959 41.4388C149.939 41.4288 149.914 41.4388 149.884 41.4688L147.739 44.0188C147.619 44.1488 147.559 44.2938 147.559 44.4538C147.559 44.6538 147.614 44.7888 147.724 44.8588C147.834 44.9188 147.959 44.9738 148.099 45.0238C148.179 45.0538 148.249 45.0938 148.309 45.1438C148.369 45.1838 148.399 45.2438 148.399 45.3238C148.399 45.3838 148.369 45.4338 148.309 45.4738C148.259 45.5138 148.204 45.5338 148.144 45.5338C147.944 45.5338 147.759 45.5238 147.589 45.5038C147.419 45.4938 147.259 45.4838 147.109 45.4738C146.959 45.4638 146.794 45.4588 146.614 45.4588C146.444 45.4588 146.269 45.4638 146.089 45.4738C145.919 45.4838 145.739 45.4938 145.549 45.5038C145.369 45.5238 145.179 45.5338 144.979 45.5338ZM158.542 45.5338C158.482 45.5338 158.417 45.5188 158.347 45.4888C158.277 45.4488 158.242 45.3938 158.242 45.3238C158.242 45.2438 158.277 45.1838 158.347 45.1438C158.427 45.0938 158.507 45.0538 158.587 45.0238C158.737 44.9738 158.867 44.9188 158.977 44.8588C159.097 44.7888 159.157 44.6488 159.157 44.4388V40.2238C159.157 40.0238 159.102 39.8888 158.992 39.8188C158.882 39.7488 158.752 39.6938 158.602 39.6538C158.522 39.6238 158.442 39.5838 158.362 39.5338C158.292 39.4838 158.257 39.4188 158.257 39.3388C158.257 39.2788 158.292 39.2288 158.362 39.1888C158.432 39.1488 158.497 39.1288 158.557 39.1288C158.757 39.1288 158.947 39.1338 159.127 39.1438C159.307 39.1538 159.482 39.1688 159.652 39.1888C159.832 39.1988 160.007 39.2038 160.177 39.2038C160.357 39.2038 160.522 39.1988 160.672 39.1888C160.822 39.1688 160.977 39.1538 161.137 39.1438C161.307 39.1338 161.492 39.1288 161.692 39.1288C161.752 39.1288 161.807 39.1488 161.857 39.1888C161.917 39.2288 161.947 39.2788 161.947 39.3388C161.947 39.4088 161.917 39.4738 161.857 39.5338C161.797 39.5838 161.727 39.6238 161.647 39.6538C161.507 39.7038 161.382 39.7588 161.272 39.8188C161.172 39.8788 161.122 40.0088 161.122 40.2088V42.7588C161.122 42.8588 161.142 42.9238 161.182 42.9538C161.222 42.9838 161.272 42.9588 161.332 42.8788L163.447 40.4188C163.467 40.3788 163.492 40.3438 163.522 40.3138C163.552 40.2838 163.567 40.2488 163.567 40.2088C163.567 40.0088 163.517 39.8788 163.417 39.8188C163.327 39.7488 163.207 39.6938 163.057 39.6538C162.977 39.6238 162.907 39.5838 162.847 39.5338C162.787 39.4838 162.757 39.4188 162.757 39.3388C162.757 39.2788 162.782 39.2288 162.832 39.1888C162.892 39.1488 162.952 39.1288 163.012 39.1288C163.212 39.1288 163.397 39.1338 163.567 39.1438C163.737 39.1538 163.902 39.1688 164.062 39.1888C164.222 39.1988 164.387 39.2038 164.557 39.2038C164.737 39.2038 164.907 39.1988 165.067 39.1888C165.237 39.1688 165.407 39.1538 165.577 39.1438C165.757 39.1338 165.947 39.1288 166.147 39.1288C166.207 39.1288 166.267 39.1488 166.327 39.1888C166.387 39.2288 166.417 39.2788 166.417 39.3388C166.417 39.4188 166.382 39.4838 166.312 39.5338C166.252 39.5838 166.182 39.6238 166.102 39.6538C165.952 39.6938 165.817 39.7488 165.697 39.8188C165.587 39.8788 165.532 40.0088 165.532 40.2088V44.4538C165.532 44.6538 165.592 44.7888 165.712 44.8588C165.832 44.9188 165.967 44.9738 166.117 45.0238C166.197 45.0538 166.267 45.0938 166.327 45.1438C166.387 45.1838 166.417 45.2438 166.417 45.3238C166.417 45.3938 166.387 45.4488 166.327 45.4888C166.267 45.5188 166.212 45.5338 166.162 45.5338C165.962 45.5338 165.772 45.5238 165.592 45.5038C165.412 45.4938 165.237 45.4838 165.067 45.4738C164.907 45.4638 164.737 45.4588 164.557 45.4588C164.387 45.4588 164.217 45.4638 164.047 45.4738C163.887 45.4838 163.717 45.4938 163.537 45.5038C163.367 45.5238 163.182 45.5338 162.982 45.5338C162.932 45.5338 162.877 45.5188 162.817 45.4888C162.767 45.4488 162.742 45.3938 162.742 45.3238C162.742 45.2438 162.767 45.1838 162.817 45.1438C162.877 45.0938 162.947 45.0538 163.027 45.0238C163.177 44.9738 163.302 44.9188 163.402 44.8588C163.512 44.7888 163.567 44.6538 163.567 44.4538V41.5588C163.567 41.4888 163.552 41.4488 163.522 41.4388C163.502 41.4288 163.477 41.4388 163.447 41.4688L161.302 44.0188C161.182 44.1488 161.122 44.2938 161.122 44.4538C161.122 44.6538 161.177 44.7888 161.287 44.8588C161.397 44.9188 161.522 44.9738 161.662 45.0238C161.742 45.0538 161.812 45.0938 161.872 45.1438C161.932 45.1838 161.962 45.2438 161.962 45.3238C161.962 45.3838 161.932 45.4338 161.872 45.4738C161.822 45.5138 161.767 45.5338 161.707 45.5338C161.507 45.5338 161.322 45.5238 161.152 45.5038C160.982 45.4938 160.822 45.4838 160.672 45.4738C160.522 45.4638 160.357 45.4588 160.177 45.4588C160.007 45.4588 159.832 45.4638 159.652 45.4738C159.482 45.4838 159.302 45.4938 159.112 45.5038C158.932 45.5238 158.742 45.5338 158.542 45.5338ZM174.655 45.6988C174.125 45.6988 173.645 45.5588 173.215 45.2788C172.795 44.9888 172.46 44.6038 172.21 44.1238C171.97 43.6338 171.85 43.0838 171.85 42.4738C171.85 41.8238 172 41.2388 172.3 40.7188C172.6 40.1988 173 39.7838 173.5 39.4738C174.01 39.1638 174.575 39.0088 175.195 39.0088C176.015 39.0088 176.695 39.2788 177.235 39.8188C177.325 39.9188 177.37 40.0088 177.37 40.0888C177.37 40.1488 177.325 40.2388 177.235 40.3588C177.145 40.4688 177.045 40.5688 176.935 40.6588C176.825 40.7488 176.73 40.7938 176.65 40.7938C176.56 40.7938 176.47 40.7688 176.38 40.7188C176.3 40.6588 176.22 40.5938 176.14 40.5238C175.88 40.3038 175.615 40.1288 175.345 39.9988C175.085 39.8588 174.86 39.7888 174.67 39.7888C174.29 39.7888 174 39.9488 173.8 40.2688C173.61 40.5788 173.515 41.0888 173.515 41.7988C173.515 42.2888 173.59 42.7138 173.74 43.0738C173.9 43.4238 174.125 43.6938 174.415 43.8838C174.705 44.0738 175.055 44.1688 175.465 44.1688C175.765 44.1688 176.025 44.1238 176.245 44.0338C176.465 43.9338 176.695 43.7838 176.935 43.5838C176.985 43.5538 177.025 43.5238 177.055 43.4938C177.095 43.4638 177.14 43.4488 177.19 43.4488C177.31 43.4488 177.37 43.5288 177.37 43.6888C177.37 43.7288 177.36 43.7888 177.34 43.8688C177.33 43.9388 177.3 44.0188 177.25 44.1088C177.16 44.3088 176.985 44.5338 176.725 44.7838C176.475 45.0338 176.175 45.2488 175.825 45.4288C175.475 45.6088 175.085 45.6988 174.655 45.6988ZM179.973 45.6988C179.703 45.6988 179.453 45.6338 179.223 45.5038C178.993 45.3738 178.808 45.2038 178.668 44.9938C178.538 44.7838 178.473 44.5538 178.473 44.3038C178.473 43.9638 178.578 43.6788 178.788 43.4488C179.008 43.2188 179.328 43.0138 179.748 42.8338L181.083 42.2488C181.283 42.1588 181.403 42.0788 181.443 42.0088C181.493 41.9388 181.518 41.8088 181.518 41.6188L181.533 40.7638C181.543 40.4838 181.493 40.2638 181.383 40.1038C181.273 39.9338 181.108 39.8488 180.888 39.8488C180.758 39.8488 180.628 39.8788 180.498 39.9388C180.368 39.9888 180.268 40.0488 180.198 40.1188C180.168 40.1588 180.143 40.2088 180.123 40.2688C180.113 40.3188 180.108 40.3738 180.108 40.4338C180.108 40.4938 180.113 40.5688 180.123 40.6588C180.133 40.7388 180.138 40.8088 180.138 40.8688C180.138 40.9288 180.058 41.0088 179.898 41.1088C179.738 41.1988 179.553 41.2838 179.343 41.3638C179.133 41.4338 178.953 41.4688 178.803 41.4688C178.733 41.4688 178.668 41.4388 178.608 41.3788C178.558 41.3188 178.533 41.2438 178.533 41.1538C178.533 40.9938 178.588 40.8388 178.698 40.6888C178.808 40.5288 178.988 40.3488 179.238 40.1488C179.498 39.9288 179.783 39.7338 180.093 39.5638C180.403 39.3938 180.708 39.2588 181.008 39.1588C181.318 39.0588 181.578 39.0088 181.788 39.0088C182.328 39.0088 182.758 39.1838 183.078 39.5338C183.398 39.8738 183.548 40.3288 183.528 40.8988L183.453 43.9288C183.443 44.1588 183.483 44.3538 183.573 44.5138C183.663 44.6738 183.773 44.7538 183.903 44.7538C184.093 44.7538 184.258 44.6888 184.398 44.5588C184.428 44.5288 184.458 44.5138 184.488 44.5138C184.538 44.5138 184.578 44.5288 184.608 44.5588C184.648 44.5888 184.668 44.6288 184.668 44.6788C184.668 44.7988 184.578 44.9538 184.398 45.1438C184.208 45.3238 184.008 45.4588 183.798 45.5488C183.588 45.6488 183.368 45.6988 183.138 45.6988C182.578 45.6988 182.113 45.4138 181.743 44.8438H181.713C181.383 45.1438 181.083 45.3588 180.813 45.4888C180.553 45.6288 180.273 45.6988 179.973 45.6988ZM180.873 44.7238C180.983 44.7238 181.073 44.7088 181.143 44.6788C181.213 44.6388 181.283 44.5788 181.353 44.4988C181.383 44.4588 181.408 44.4088 181.428 44.3488C181.448 44.2788 181.458 44.1988 181.458 44.1088L181.503 43.0288C181.503 42.9288 181.488 42.8638 181.458 42.8338C181.428 42.8038 181.393 42.7888 181.353 42.7888C181.333 42.7888 181.308 42.7938 181.278 42.8038C181.248 42.8138 181.213 42.8288 181.173 42.8488C180.883 42.9888 180.668 43.1338 180.528 43.2838C180.388 43.4238 180.318 43.6538 180.318 43.9738C180.318 44.2638 180.378 44.4638 180.498 44.5738C180.618 44.6738 180.743 44.7238 180.873 44.7238ZM186.094 49.7338C185.834 49.7338 185.584 49.6438 185.344 49.4638C185.104 49.2838 184.984 49.0588 184.984 48.7888C184.984 48.5988 185.034 48.4088 185.134 48.2188C185.234 48.0388 185.389 47.9488 185.599 47.9488C185.759 47.9488 185.919 47.9738 186.079 48.0238C186.249 48.0838 186.409 48.1088 186.559 48.0988C186.709 48.0788 186.814 48.0388 186.874 47.9788C186.934 47.9288 187.004 47.8288 187.084 47.6788C187.154 47.5588 187.219 47.4388 187.279 47.3188C187.349 47.2088 187.424 47.0638 187.504 46.8838C187.594 46.7138 187.704 46.4888 187.834 46.2088C187.954 45.9388 188.014 45.6988 188.014 45.4888C188.014 45.3388 187.989 45.2038 187.939 45.0838C187.899 44.9538 187.854 44.8288 187.804 44.7088L185.959 40.5238C185.869 40.2938 185.769 40.1038 185.659 39.9538C185.549 39.8038 185.399 39.6988 185.209 39.6388C185.119 39.5988 185.049 39.5588 184.999 39.5188C184.949 39.4688 184.924 39.3988 184.924 39.3088C184.924 39.2388 184.969 39.1938 185.059 39.1738C185.149 39.1538 185.229 39.1438 185.299 39.1438C185.539 39.1438 185.739 39.1488 185.899 39.1588C186.069 39.1688 186.219 39.1788 186.349 39.1888C186.479 39.1988 186.609 39.2038 186.739 39.2038C186.959 39.2038 187.144 39.1988 187.294 39.1888C187.444 39.1788 187.604 39.1688 187.774 39.1588C187.944 39.1488 188.144 39.1438 188.374 39.1438C188.444 39.1438 188.519 39.1588 188.599 39.1888C188.679 39.2188 188.719 39.2688 188.719 39.3388C188.719 39.4288 188.679 39.4938 188.599 39.5338C188.529 39.5638 188.454 39.5988 188.374 39.6388C188.264 39.6788 188.179 39.7388 188.119 39.8188C188.059 39.8988 188.029 40.0288 188.029 40.2088C188.029 40.2888 188.039 40.3838 188.059 40.4938C188.089 40.6038 188.134 40.7388 188.194 40.8988L189.124 43.1638C189.134 43.1938 189.149 43.2088 189.169 43.2088C189.179 43.2088 189.194 43.1938 189.214 43.1638L189.979 40.8688C190.009 40.7888 190.034 40.6938 190.054 40.5838C190.084 40.4638 190.099 40.3588 190.099 40.2688C190.099 40.0988 190.049 39.9638 189.949 39.8638C189.849 39.7538 189.744 39.6788 189.634 39.6388C189.554 39.6088 189.474 39.5738 189.394 39.5338C189.324 39.4938 189.289 39.4288 189.289 39.3388C189.289 39.2688 189.329 39.2188 189.409 39.1888C189.489 39.1588 189.564 39.1438 189.634 39.1438C189.904 39.1538 190.114 39.1688 190.264 39.1888C190.414 39.1988 190.569 39.2038 190.729 39.2038C190.829 39.2038 190.919 39.2038 190.999 39.2038C191.089 39.1938 191.194 39.1838 191.314 39.1738C191.434 39.1638 191.579 39.1538 191.749 39.1438C191.819 39.1438 191.894 39.1538 191.974 39.1738C192.064 39.1938 192.109 39.2388 192.109 39.3088C192.109 39.3988 192.084 39.4688 192.034 39.5188C191.994 39.5588 191.929 39.5988 191.839 39.6388C191.649 39.6988 191.479 39.8138 191.329 39.9838C191.179 40.1438 191.054 40.3388 190.954 40.5688L188.719 45.9388C188.639 46.1388 188.549 46.3538 188.449 46.5838C188.349 46.8238 188.244 47.0688 188.134 47.3188C188.034 47.5688 187.929 47.8238 187.819 48.0838C187.709 48.3438 187.599 48.5988 187.489 48.8488C187.369 49.1388 187.184 49.3588 186.934 49.5088C186.684 49.6588 186.404 49.7338 186.094 49.7338ZM193.256 45.5338C193.196 45.5338 193.131 45.5188 193.061 45.4888C192.991 45.4488 192.956 45.3938 192.956 45.3238C192.956 45.2438 192.991 45.1838 193.061 45.1438C193.141 45.0938 193.221 45.0538 193.301 45.0238C193.451 44.9738 193.581 44.9188 193.691 44.8588C193.811 44.7888 193.871 44.6488 193.871 44.4388V40.2238C193.871 40.0238 193.811 39.8888 193.691 39.8188C193.581 39.7488 193.451 39.6938 193.301 39.6538C193.221 39.6238 193.141 39.5838 193.061 39.5338C192.991 39.4838 192.956 39.4188 192.956 39.3388C192.956 39.2688 192.991 39.2188 193.061 39.1888C193.141 39.1488 193.211 39.1288 193.271 39.1288C193.471 39.1288 193.661 39.1338 193.841 39.1438C194.021 39.1538 194.196 39.1688 194.366 39.1888C194.546 39.1988 194.721 39.2038 194.891 39.2038C195.071 39.2038 195.236 39.1988 195.386 39.1888C195.536 39.1688 195.691 39.1538 195.851 39.1438C196.011 39.1338 196.191 39.1288 196.391 39.1288C196.451 39.1288 196.511 39.1488 196.571 39.1888C196.631 39.2288 196.661 39.2788 196.661 39.3388C196.661 39.4088 196.631 39.4738 196.571 39.5338C196.511 39.5838 196.441 39.6238 196.361 39.6538C196.221 39.7038 196.096 39.7588 195.986 39.8188C195.886 39.8788 195.836 40.0088 195.836 40.2088V41.5288C195.836 41.6988 195.881 41.8088 195.971 41.8588C196.061 41.9088 196.166 41.9338 196.286 41.9338H197.726C197.846 41.9338 197.946 41.9088 198.026 41.8588C198.106 41.8088 198.146 41.6988 198.146 41.5288V40.2088C198.146 40.0088 198.096 39.8788 197.996 39.8188C197.906 39.7588 197.786 39.7038 197.636 39.6538C197.556 39.6238 197.486 39.5838 197.426 39.5338C197.366 39.4838 197.336 39.4188 197.336 39.3388C197.336 39.2688 197.366 39.2188 197.426 39.1888C197.486 39.1488 197.546 39.1288 197.606 39.1288C197.806 39.1288 197.986 39.1338 198.146 39.1438C198.316 39.1538 198.481 39.1688 198.641 39.1888C198.811 39.1988 198.981 39.2038 199.151 39.2038C199.331 39.2038 199.501 39.1988 199.661 39.1888C199.821 39.1688 199.986 39.1538 200.156 39.1438C200.336 39.1338 200.526 39.1288 200.726 39.1288C200.786 39.1288 200.846 39.1488 200.906 39.1888C200.966 39.2188 200.996 39.2688 200.996 39.3388C200.996 39.4188 200.966 39.4888 200.906 39.5488C200.846 39.5988 200.776 39.6338 200.696 39.6538C200.546 39.6938 200.411 39.7488 200.291 39.8188C200.181 39.8788 200.126 40.0088 200.126 40.2088V44.4538C200.126 44.6538 200.181 44.7888 200.291 44.8588C200.411 44.9188 200.546 44.9738 200.696 45.0238C200.776 45.0538 200.846 45.0938 200.906 45.1438C200.976 45.1838 201.011 45.2438 201.011 45.3238C201.011 45.3938 200.981 45.4488 200.921 45.4888C200.861 45.5188 200.801 45.5338 200.741 45.5338C200.541 45.5338 200.351 45.5238 200.171 45.5038C200.001 45.4938 199.831 45.4838 199.661 45.4738C199.501 45.4638 199.331 45.4588 199.151 45.4588C198.981 45.4588 198.811 45.4638 198.641 45.4738C198.481 45.4838 198.311 45.4938 198.131 45.5038C197.961 45.5238 197.776 45.5338 197.576 45.5338C197.516 45.5338 197.456 45.5188 197.396 45.4888C197.346 45.4488 197.321 45.3938 197.321 45.3238C197.321 45.2438 197.351 45.1788 197.411 45.1288C197.471 45.0788 197.541 45.0438 197.621 45.0238C197.771 44.9738 197.896 44.9188 197.996 44.8588C198.096 44.7888 198.146 44.6538 198.146 44.4538V43.0438C198.146 42.8638 198.106 42.7488 198.026 42.6988C197.946 42.6488 197.846 42.6238 197.726 42.6238H196.271C196.151 42.6238 196.046 42.6538 195.956 42.7138C195.876 42.7638 195.836 42.8738 195.836 43.0438V44.4538C195.836 44.6538 195.891 44.7888 196.001 44.8588C196.111 44.9188 196.236 44.9738 196.376 45.0238C196.456 45.0538 196.526 45.0938 196.586 45.1438C196.646 45.1838 196.676 45.2438 196.676 45.3238C196.676 45.3838 196.646 45.4338 196.586 45.4738C196.526 45.5138 196.466 45.5338 196.406 45.5338C196.216 45.5338 196.036 45.5238 195.866 45.5038C195.696 45.4938 195.536 45.4838 195.386 45.4738C195.236 45.4638 195.071 45.4588 194.891 45.4588C194.721 45.4588 194.546 45.4638 194.366 45.4738C194.196 45.4838 194.016 45.4938 193.826 45.5038C193.646 45.5238 193.456 45.5338 193.256 45.5338ZM202.468 45.5338C202.418 45.5338 202.368 45.5188 202.318 45.4888C202.278 45.4488 202.258 45.4088 202.258 45.3688C202.258 45.3188 202.278 45.2738 202.318 45.2338C202.368 45.1838 202.423 45.1538 202.483 45.1438C202.703 45.0638 202.858 44.9988 202.948 44.9488C203.048 44.8888 203.098 44.7638 203.098 44.5738V40.1638C203.098 39.9638 203.053 39.8288 202.963 39.7588C202.883 39.6788 202.723 39.6038 202.483 39.5338C202.403 39.5138 202.343 39.4838 202.303 39.4438C202.263 39.4038 202.243 39.3688 202.243 39.3388C202.243 39.2788 202.263 39.2338 202.303 39.2038C202.353 39.1738 202.408 39.1588 202.468 39.1588C202.718 39.1588 202.923 39.1688 203.083 39.1888C203.243 39.1988 203.398 39.2138 203.548 39.2338C203.698 39.2538 203.873 39.2638 204.073 39.2638C204.273 39.2638 204.448 39.2538 204.598 39.2338C204.758 39.2138 204.923 39.1988 205.093 39.1888C205.273 39.1688 205.483 39.1588 205.723 39.1588C205.783 39.1588 205.833 39.1738 205.873 39.2038C205.923 39.2338 205.948 39.2788 205.948 39.3388C205.948 39.3688 205.928 39.4038 205.888 39.4438C205.858 39.4838 205.803 39.5138 205.723 39.5338C205.483 39.6038 205.313 39.6788 205.213 39.7588C205.123 39.8288 205.078 39.9638 205.078 40.1638V41.7088C205.078 41.7688 205.098 41.8088 205.138 41.8288C205.178 41.8488 205.218 41.8538 205.258 41.8438C205.368 41.7938 205.528 41.7538 205.738 41.7238C205.948 41.6938 206.143 41.6788 206.323 41.6788C206.573 41.6788 206.823 41.7088 207.073 41.7688C207.333 41.8288 207.573 41.9288 207.793 42.0688C208.023 42.2088 208.203 42.3888 208.333 42.6088C208.463 42.8288 208.528 43.0988 208.528 43.4188C208.528 43.9488 208.398 44.3688 208.138 44.6788C207.878 44.9888 207.533 45.2088 207.103 45.3388C206.683 45.4688 206.228 45.5338 205.738 45.5338C205.528 45.5338 205.333 45.5288 205.153 45.5188C204.973 45.5088 204.793 45.4988 204.613 45.4888C204.443 45.4888 204.253 45.4888 204.043 45.4888C203.903 45.4888 203.738 45.4888 203.548 45.4888C203.358 45.4988 203.163 45.5088 202.963 45.5188C202.773 45.5288 202.608 45.5338 202.468 45.5338ZM205.558 44.9338C205.798 44.9338 206.003 44.8238 206.173 44.6038C206.353 44.3738 206.443 44.0388 206.443 43.5988C206.443 43.1888 206.358 42.8788 206.188 42.6688C206.018 42.4488 205.783 42.3388 205.483 42.3388C205.343 42.3388 205.243 42.3638 205.183 42.4138C205.143 42.4338 205.113 42.4688 205.093 42.5188C205.083 42.5688 205.078 42.6188 205.078 42.6688V44.3038C205.078 44.4838 205.118 44.6338 205.198 44.7538C205.288 44.8738 205.408 44.9338 205.558 44.9338ZM208.693 45.5338C208.643 45.5338 208.588 45.5188 208.528 45.4888C208.478 45.4488 208.453 45.3988 208.453 45.3388C208.453 45.2588 208.478 45.1938 208.528 45.1438C208.578 45.0938 208.643 45.0588 208.723 45.0388C208.973 44.9788 209.153 44.9138 209.263 44.8438C209.373 44.7738 209.428 44.6538 209.428 44.4838V40.2088C209.428 40.0388 209.373 39.9138 209.263 39.8338C209.163 39.7538 208.988 39.6838 208.738 39.6238C208.658 39.6038 208.593 39.5688 208.543 39.5188C208.493 39.4588 208.468 39.3938 208.468 39.3238C208.468 39.2638 208.493 39.2188 208.543 39.1888C208.603 39.1488 208.663 39.1288 208.723 39.1288C208.923 39.1288 209.113 39.1338 209.293 39.1438C209.483 39.1538 209.668 39.1688 209.848 39.1888C210.038 39.1988 210.218 39.2038 210.388 39.2038C210.568 39.2038 210.753 39.1988 210.943 39.1888C211.143 39.1788 211.343 39.1688 211.543 39.1588C211.753 39.1488 211.953 39.1438 212.143 39.1438C212.213 39.1438 212.268 39.1588 212.308 39.1888C212.358 39.2188 212.383 39.2688 212.383 39.3388C212.383 39.4188 212.353 39.4788 212.293 39.5188C212.243 39.5588 212.178 39.5938 212.098 39.6238C211.828 39.7038 211.643 39.7888 211.543 39.8788C211.443 39.9588 211.393 40.0688 211.393 40.2088V44.4688C211.393 44.6188 211.448 44.7338 211.558 44.8138C211.668 44.8838 211.853 44.9588 212.113 45.0388C212.193 45.0688 212.258 45.1038 212.308 45.1438C212.358 45.1838 212.383 45.2438 212.383 45.3238C212.383 45.3938 212.358 45.4438 212.308 45.4738C212.268 45.5038 212.218 45.5188 212.158 45.5188C211.958 45.5188 211.753 45.5138 211.543 45.5038C211.343 45.4938 211.143 45.4838 210.943 45.4738C210.753 45.4638 210.568 45.4588 210.388 45.4588C210.218 45.4588 210.038 45.4638 209.848 45.4738C209.668 45.4838 209.478 45.4938 209.278 45.5038C209.088 45.5238 208.893 45.5338 208.693 45.5338ZM213.834 43.0288C213.734 43.0388 213.684 42.9888 213.684 42.8788C213.684 42.5788 213.709 42.3538 213.759 42.2038C213.819 42.0438 213.904 41.9538 214.014 41.9338C214.554 41.8538 215.119 41.7738 215.709 41.6938C216.309 41.6138 216.879 41.5538 217.419 41.5138C217.509 41.5038 217.569 41.5238 217.599 41.5738C217.629 41.6138 217.644 41.6688 217.644 41.7388C217.644 42.0388 217.624 42.2488 217.584 42.3688C217.544 42.4888 217.464 42.5588 217.344 42.5788C216.814 42.6588 216.234 42.7438 215.604 42.8338C214.974 42.9138 214.384 42.9788 213.834 43.0288Z" fill="#333333"/>
</svg>
